<svg xmlns="http://www.w3.org/2000/svg" viewBox="0 0 96 96" width="96" height="96">
  <!-- Ash Wyvern: an ash-grey wyvern hovering on broad, tattered, smouldering wings raised mid-beat, orange seams glowing between its scales, legs dangling and barbed tail trailing, its shadow on the ground far below. Lit from the upper left. -->
  <defs>
    <linearGradient id="aw-scale" x1="0" y1="0" x2="1" y2="1">
      <stop offset="0" stop-color="#cdc7c1"/>
      <stop offset="0.45" stop-color="#8c8682"/>
      <stop offset="1" stop-color="#4a4446"/>
    </linearGradient>
    <linearGradient id="aw-scale-dark" x1="0" y1="0" x2="1" y2="1">
      <stop offset="0" stop-color="#7c7674"/>
      <stop offset="1" stop-color="#2e2a2e"/>
    </linearGradient>
    <linearGradient id="aw-head" x1="0.1" y1="0" x2="0.8" y2="1">
      <stop offset="0" stop-color="#d6d0ca"/>
      <stop offset="0.5" stop-color="#928c88"/>
      <stop offset="1" stop-color="#4a4446"/>
    </linearGradient>
    <linearGradient id="aw-belly" x1="0" y1="0" x2="0.4" y2="1">
      <stop offset="0" stop-color="#e6e0d6"/>
      <stop offset="0.55" stop-color="#b4ac9f"/>
      <stop offset="1" stop-color="#7a7068"/>
    </linearGradient>
    <linearGradient id="aw-wing" x1="0" y1="0" x2="1" y2="1">
      <stop offset="0" stop-color="#8e837e"/>
      <stop offset="0.55" stop-color="#5a5052"/>
      <stop offset="1" stop-color="#2e282c"/>
    </linearGradient>
    <linearGradient id="aw-wing-far" x1="0" y1="0" x2="1" y2="1">
      <stop offset="0" stop-color="#524a4c"/>
      <stop offset="1" stop-color="#1e1a1e"/>
    </linearGradient>
    <linearGradient id="aw-horn" x1="0" y1="0" x2="1" y2="1">
      <stop offset="0" stop-color="#efe7d8"/>
      <stop offset="0.5" stop-color="#bbaf9a"/>
      <stop offset="1" stop-color="#5e5446"/>
    </linearGradient>
    <radialGradient id="aw-glow" cx="0.5" cy="0.5" r="0.5">
      <stop offset="0" stop-color="#fff3c4"/>
      <stop offset="0.3" stop-color="#ffd27a"/>
      <stop offset="0.6" stop-color="#ff8a3d" stop-opacity="0.5"/>
      <stop offset="1" stop-color="#ff8a3d" stop-opacity="0"/>
    </radialGradient>
    <radialGradient id="aw-glow-soft" cx="0.5" cy="0.5" r="0.5">
      <stop offset="0" stop-color="#ff8a3d" stop-opacity="0.45"/>
      <stop offset="1" stop-color="#ff8a3d" stop-opacity="0"/>
    </radialGradient>
    <radialGradient id="aw-eye" cx="0.4" cy="0.4" r="0.6">
      <stop offset="0" stop-color="#fff6d8"/>
      <stop offset="0.45" stop-color="#ffd27a"/>
      <stop offset="1" stop-color="#ff7a2a"/>
    </radialGradient>
    <radialGradient id="aw-shadow" cx="0.5" cy="0.5" r="0.5">
      <stop offset="0" stop-color="#0d0a12" stop-opacity="0.38"/>
      <stop offset="0.6" stop-color="#0d0a12" stop-opacity="0.2"/>
      <stop offset="1" stop-color="#0d0a12" stop-opacity="0"/>
    </radialGradient>
  </defs>

  <!-- soft ground shadow, far below the hovering body -->
  <ellipse cx="44" cy="88.2" rx="24" ry="2.8" fill="url(#aw-shadow)"/>

  <!-- ===== far wing, raised behind, a beat ahead of the near one, in shadow ===== -->
  <g transform="translate(5 0) rotate(10 50 46)">
  <path fill-rule="evenodd" d="M50 46 L44 30 L52 10 L26 4.4 C24 8 21.4 10 18.6 10.6 L19.8 12.4 L16.4 12.2 L12.2 14.4 C15.4 18.4 15.8 22.4 14.2 25.6 L16 26.4 L13.2 27.6 L10.4 30.2 C14.6 32 17.4 34.2 18.6 36.2 L20.4 35.6 L20.2 38.2 L22.6 40.2 C26 42 28.6 45.4 30.2 48 L32.4 47.4 L33 50.6 L36 52.4 Z M38 14 L40.4 14.6 L40.6 17 L38.4 17.4 L37.2 15.6 Z" fill="url(#aw-wing-far)" stroke="#0d0a12" stroke-width="1.1" stroke-linejoin="round"/>
  <path d="M26 4.4 C24 8 21.4 10 18.6 10.6 L19.8 12.4 L16.4 12.2 L12.2 14.4" fill="none" stroke="#ff7a2a" stroke-width="0.5" stroke-linejoin="round" opacity="0.7"/>
  <path d="M38 14 L40.4 14.6 L40.6 17 L38.4 17.4 L37.2 15.6 Z" fill="none" stroke="#c4501e" stroke-width="0.45" stroke-linejoin="round"/>
  <g fill="none" stroke-linecap="round">
    <path d="M44 12 Q36 13.6 29 12.8 M41 17.4 Q32 20 26.4 24 M43 23 Q36 28 33 31.6" stroke="#c4501e" stroke-width="0.45" opacity="0.5"/>
  </g>
  <path d="M52 10 Q39 5.6 26 4.4 M52 10 Q30 8.6 12.2 14.4 M52 10 Q28 16 10.4 30.2 M52 10 Q34 24 22.6 40.2" fill="none" stroke="#0d0a12" stroke-width="2" stroke-linecap="round"/>
  <path d="M52 10 Q39 5.6 26 4.4 M52 10 Q30 8.6 12.2 14.4 M52 10 Q28 16 10.4 30.2 M52 10 Q34 24 22.6 40.2" fill="none" stroke="#625a5a" stroke-width="0.9" stroke-linecap="round"/>
  <path d="M26.6 4 L24.6 2.6 L25.4 5.2 Z M12.8 13.8 L10.6 13.4 L12 15.4 Z" fill="#8a8072" stroke="#0d0a12" stroke-width="0.4" stroke-linejoin="round"/>
  <path d="M50 46 L44 30 L52 10" fill="none" stroke="#0d0a12" stroke-width="4" stroke-linecap="round" stroke-linejoin="round"/>
  <path d="M50 46 L44 30 L52 10" fill="none" stroke="#625a5a" stroke-width="2.4" stroke-linecap="round" stroke-linejoin="round"/>
  <path d="M46.6 36 L47.6 38.6 M48 22 L47 24.6" stroke="#c4501e" stroke-width="0.45" stroke-linecap="round"/>
  <circle cx="44" cy="30" r="1.5" fill="#5a5254" stroke="#0d0a12" stroke-width="0.5"/>
  <path d="M52.6 10 Q53 5.6 56.4 3.4 Q55.4 6.8 56 9.6 Z" fill="#8a8072" stroke="#0d0a12" stroke-width="0.6" stroke-linejoin="round"/>
  <circle cx="52" cy="10" r="1.4" fill="#5a5254" stroke="#0d0a12" stroke-width="0.5"/>
  </g>

  <!-- ===== far leg, dangling, in shadow ===== -->
  <path d="M52 58 C55 58 57 60 56.6 62.6 L55.4 68 C56.4 68.8 56.8 70 56.4 71 L54 71.4 L51.4 70.8 C50.8 70 51 69 51.8 68.4 L51.6 62.8 Z" fill="url(#aw-scale-dark)" stroke="#0d0a12" stroke-width="0.9" stroke-linejoin="round"/>
  <g fill="#8e8478" stroke="#0d0a12" stroke-width="0.4" stroke-linejoin="round">
    <path d="M51.4 70.6 L50.6 74.4 L52.4 71 Z"/><path d="M53.6 71.2 L53.6 75.2 L54.8 71.2 Z"/><path d="M55.8 70.6 L57 74.2 L56.8 70.4 Z"/>
  </g>
  <path d="M53.6 63 L54.2 67" stroke="#c4501e" stroke-width="0.5" stroke-linecap="round" opacity="0.8"/>

  <!-- ===== tail: tapering back and down, curling up into the barb ===== -->
  <path d="M33 55 C26 57.6 20 62 15 64.4 C11.4 66 8.4 65.4 5.8 62.8 L5 64.4 C7.6 67.8 12 69 16.6 67.4 C22.2 65.4 27.6 62 34 61 Z" fill="url(#aw-scale)" stroke="#0d0a12" stroke-width="1" stroke-linejoin="round"/>
  <path d="M31 56.4 C25 59 19.6 62.6 15 64.6" fill="none" stroke="#e6e0da" stroke-width="0.6" stroke-linecap="round" opacity="0.8"/>
  <g fill="none" stroke-linecap="round">
    <path d="M28.6 57.4 Q29.6 59.6 29.4 62.4 M23.8 60 Q24.8 62 24.6 64.6 M19.4 62.6 Q20.4 64.4 20.2 66.6 M15 64.6 Q15.8 66 15.6 67.6 M11 65.6 Q11.6 66.8 11.4 68.2" stroke="#2a0c08" stroke-width="1"/>
    <path d="M28.6 57.4 Q29.6 59.6 29.4 62.4 M23.8 60 Q24.8 62 24.6 64.6 M19.4 62.6 Q20.4 64.4 20.2 66.6 M15 64.6 Q15.8 66 15.6 67.6 M11 65.6 Q11.6 66.8 11.4 68.2" stroke="#ff7a2a" stroke-width="0.5"/>
  </g>
  <!-- dorsal spines along the tail -->
  <path d="M26.4 58.4 L25.4 55.6 L28.4 57.2 Z M20.6 61.6 L19.4 59 L22.4 60.4 Z M15 64.4 L13.6 62 L16.4 63.4 Z" fill="url(#aw-horn)" stroke="#0d0a12" stroke-width="0.45" stroke-linejoin="round"/>
  <!-- the barb -->
  <path d="M0.8 58.4 Q6 58.6 8.6 60.6 L10.4 63 L6.8 62.8 L6.6 66.6 L4.2 68.6 Q2 64.4 0.8 58.4 Z" fill="url(#aw-horn)" stroke="#0d0a12" stroke-width="0.8" stroke-linejoin="round"/>
  <path d="M1.6 59.4 L5.6 63.6" stroke="#ff7a2a" stroke-width="0.5" stroke-linecap="round"/>
  <path d="M1.4 59 Q5.4 59.2 8 60.8" fill="none" stroke="#fffaf0" stroke-width="0.4" opacity="0.8"/>

  <!-- ===== torso ===== -->
  <path d="M60 44 C64 46 65 51.6 62 55.6 C58 60.4 50 62.6 42 62.6 C36 62.6 31 61 29.4 57.6 C28 54.4 30.4 50.6 35 48.6 C42 45.6 52 42.4 60 44 Z" fill="url(#aw-scale)" stroke="#0d0a12" stroke-width="1.2" stroke-linejoin="round"/>
  <!-- scale plates split by smouldering seams: dark gap, ember line, hot core -->
  <g fill="none" stroke-linecap="round" stroke-linejoin="round">
    <path d="M33 54.6 Q46 50.6 61 47.4 M40 49 Q41.6 52 40.6 55.4 M46 47.4 Q47.6 50.4 46.8 53.8 M52 46 Q53.6 49 53 52.4 M57.6 45.2 Q59.2 47.6 58.8 50.4 M36.4 55.6 L37.4 59.4 M43 54 L44 58.6 M49.6 52.4 L50.6 57.4 M56 50.6 L57 55.2" stroke="#ff7a2a" stroke-width="2.4" opacity="0.18"/>
    <path d="M33 54.6 Q46 50.6 61 47.4 M40 49 Q41.6 52 40.6 55.4 M46 47.4 Q47.6 50.4 46.8 53.8 M52 46 Q53.6 49 53 52.4 M57.6 45.2 Q59.2 47.6 58.8 50.4 M36.4 55.6 L37.4 59.4 M43 54 L44 58.6 M49.6 52.4 L50.6 57.4 M56 50.6 L57 55.2" stroke="#2a0c08" stroke-width="1.1"/>
    <path d="M33 54.6 Q46 50.6 61 47.4 M40 49 Q41.6 52 40.6 55.4 M46 47.4 Q47.6 50.4 46.8 53.8 M52 46 Q53.6 49 53 52.4 M57.6 45.2 Q59.2 47.6 58.8 50.4 M36.4 55.6 L37.4 59.4 M43 54 L44 58.6 M49.6 52.4 L50.6 57.4 M56 50.6 L57 55.2" stroke="#ff7a2a" stroke-width="0.6"/>
    <path d="M36 53.6 Q46 50.6 58 48" stroke="#ffd27a" stroke-width="0.25"/>
  </g>
  <!-- lit top edges of the plates -->
  <path d="M35.4 50 Q38 49 40 49 M41.4 48 Q44 47.2 46 47.4 M47.4 46.4 Q50 45.6 52 46 M53.4 45 Q56 44.4 57.6 45" fill="none" stroke="#f2ede6" stroke-width="0.6" stroke-linecap="round" opacity="0.85"/>
  <path d="M33.6 50.4 Q30.4 53 30.6 57" fill="none" stroke="#e6e0da" stroke-width="0.8" stroke-linecap="round" opacity="0.8"/>

  <!-- belly plates -->
  <path d="M62.6 48.6 C61 54 54 58.4 44 59.4 C38 59.8 33 59 29.6 57.6 C31 61 36 62.6 42 62.6 C50 62.6 58 60.4 62 55.6 C63.4 53.6 63.8 51 62.6 48.6 Z" fill="url(#aw-belly)" stroke="#0d0a12" stroke-width="0.7" stroke-linejoin="round"/>
  <g fill="none" stroke-linecap="round">
    <path d="M36 59.4 L36.6 62 M40 59.6 L40.4 62.6 M44 59.4 L44.2 62.6 M48 58.8 L48.2 62.2 M52 57.8 L52.4 61.4 M56 56.2 L56.6 59.8 M59.6 53.6 L60.6 57" stroke="#2a0c08" stroke-width="0.9"/>
    <path d="M36 59.4 L36.6 62 M40 59.6 L40.4 62.6 M44 59.4 L44.2 62.6 M48 58.8 L48.2 62.2 M52 57.8 L52.4 61.4 M56 56.2 L56.6 59.8 M59.6 53.6 L60.6 57" stroke="#ff8a3d" stroke-width="0.45"/>
  </g>

  <!-- ===== near leg, dangling below the hover ===== -->
  <path d="M38 54 C44 51.6 50.4 53.6 51.6 58.4 C52.4 61.6 50.6 64 48 65 L46.6 70 C47.6 71 48 72.4 47.6 73.6 L45.4 74 L42.6 73.4 C41.6 72.6 41.8 71.2 42.8 70.4 L43.4 66 C40 65.4 37 63 36.4 59.6 C36 57.4 36.6 55.4 38 54 Z" fill="url(#aw-scale)" stroke="#0d0a12" stroke-width="1" stroke-linejoin="round"/>
  <path d="M39 55.2 Q43.6 53.4 48 55" fill="none" stroke="#f2ede6" stroke-width="0.7" stroke-linecap="round" opacity="0.85"/>
  <path d="M50.4 60 Q49.6 63.4 46.6 64.6" fill="none" stroke="#3a3436" stroke-width="0.7"/>
  <g fill="none" stroke-linecap="round" stroke-linejoin="round">
    <path d="M41 57.6 L44 59.6 L47.6 59 M44 59.6 L44.6 63.4 M44.6 66.4 L45 70.4" stroke="#2a0c08" stroke-width="1"/>
    <path d="M41 57.6 L44 59.6 L47.6 59 M44 59.6 L44.6 63.4 M44.6 66.4 L45 70.4" stroke="#ff7a2a" stroke-width="0.5"/>
  </g>
  <!-- hanging toes and talons, the lowest point of the body -->
  <path d="M42.6 73.2 L41.6 75.4 M45 73.8 L44.8 76 M47.4 73.4 L48.2 75.4" stroke="#0d0a12" stroke-width="2" stroke-linecap="round"/>
  <path d="M42.6 73.2 L41.6 75.4 M45 73.8 L44.8 76 M47.4 73.4 L48.2 75.4" stroke="#8c8682" stroke-width="1" stroke-linecap="round"/>
  <g fill="url(#aw-horn)" stroke="#0d0a12" stroke-width="0.4" stroke-linejoin="round">
    <path d="M41 75 L41.4 78.2 L42.4 75.6 Z"/><path d="M44.2 75.8 L44.8 79 L45.6 75.8 Z"/><path d="M47.6 75 L49 78 L48.8 74.8 Z"/>
  </g>
  <path d="M37.8 60 L35 61.6 L37.6 62.6 Z" fill="url(#aw-horn)" stroke="#0d0a12" stroke-width="0.4" stroke-linejoin="round"/>

  <!-- ===== neck, arching up to the head ===== -->
  <path d="M53 45.4 C57 39 62 33 68.4 30 L74.6 37.8 C70.6 40.4 67 44.6 64.4 50.6 Z" fill="url(#aw-scale)"/>
  <path d="M73 38.6 C69.6 41 66.6 45 64.6 50 L61.8 48.8 C64.2 44 67.6 39.6 71 36.4 Z" fill="url(#aw-belly)"/>
  <path d="M53.6 44.6 C57.4 38.6 62.4 33 68.4 30 M74.6 37.8 C70.6 40.4 67 44.6 64.4 50.6" fill="none" stroke="#0d0a12" stroke-width="1.1" stroke-linecap="round" stroke-linejoin="round"/>
  <g fill="none" stroke-linecap="round">
    <path d="M56.6 42.6 Q60 44 62.6 47 M59.4 38.6 Q63 40 65.6 43 M62.6 35 Q66 36.4 68.6 39.4 M66 32.4 Q69 33.6 71.6 37" stroke="#2a0c08" stroke-width="1"/>
    <path d="M56.6 42.6 Q60 44 62.6 47 M59.4 38.6 Q63 40 65.6 43 M62.6 35 Q66 36.4 68.6 39.4 M66 32.4 Q69 33.6 71.6 37" stroke="#ff7a2a" stroke-width="0.5"/>
  </g>
  <path d="M55 42.4 Q58.6 36.6 64 32.6" fill="none" stroke="#f2ede6" stroke-width="0.7" stroke-linecap="round" opacity="0.8"/>
  <!-- dorsal spines down the neck and back -->
  <path d="M56.2 40.6 L53.6 39 L57.4 38.4 Z M59.6 36.6 L57.2 34.6 L61 34.6 Z M63.2 33.2 L61.2 30.8 L64.8 31.4 Z M50.2 44.6 L48.4 42.4 L52 43.2 Z M44.6 45.8 L42.8 43.8 L46.4 44.6 Z M39 47.6 L37 45.8 L40.6 46.6 Z" fill="url(#aw-horn)" stroke="#0d0a12" stroke-width="0.45" stroke-linejoin="round"/>

  <!-- ===== head ===== -->
  <!-- swept-back horns, the far one darker -->
  <path d="M74.4 26.4 C71.6 22.6 68.4 19.6 64 18.4 C67 21 69.4 24 70.8 27.4 Z" fill="#8a8072" stroke="#0d0a12" stroke-width="0.8" stroke-linejoin="round"/>
  <path d="M72 27.4 C68 24.4 64.4 23 59.6 22.8 C63.4 24.6 66.4 27 68.8 30 Z" fill="url(#aw-horn)" stroke="#0d0a12" stroke-width="0.9" stroke-linejoin="round"/>
  <path d="M70.4 26.8 C67.2 24.8 64.2 23.8 61.2 23.4" fill="none" stroke="#fffaf0" stroke-width="0.4" stroke-linecap="round"/>
  <path d="M64.6 24 l0.4 1.4 M67 24.8 l0.2 1.4" stroke="#6e6250" stroke-width="0.4"/>
  <!-- skull and snout -->
  <path d="M67.4 30.4 C69 27.4 72.6 25.6 76.4 26 C78.8 26.2 80.6 27.2 81.8 28.6 C84.8 29.6 88 31.2 90.4 32.8 C91.8 33.8 92.2 35.2 91.4 36.2 C90.6 37 89.4 37.2 88.4 37 L83 37.6 C81 39.6 77.6 40.8 74.4 40.2 C71 39.6 68.4 37.6 67.4 35 C66.8 33.4 66.8 31.8 67.4 30.4 Z" fill="url(#aw-head)" stroke="#0d0a12" stroke-width="1.1" stroke-linejoin="round"/>
  <!-- cheek spikes -->
  <path d="M69 36.4 L64.6 37.4 L68.4 38.6 L65.6 40.4 L70.6 39.4 Z" fill="url(#aw-horn)" stroke="#0d0a12" stroke-width="0.5" stroke-linejoin="round"/>
  <!-- crown highlight, snout ridge, jaw shading -->
  <path d="M69 30 Q71.6 27.2 76 27.2" fill="none" stroke="#fffaf2" stroke-width="0.9" stroke-linecap="round" opacity="0.9"/>
  <path d="M82 29.6 Q86.4 31.2 89.8 33.4" fill="none" stroke="#f2ede6" stroke-width="0.6" stroke-linecap="round" opacity="0.85"/>
  <path d="M70 37.4 C72 39.4 75 40 78 39.6 C80 39.4 81.6 38.6 83 37.6 C80.6 40.4 76.4 41 73.4 40 C71.6 39.4 70.6 38.6 70 37.4 Z" fill="#3a3436" opacity="0.6"/>
  <!-- seams on the skull -->
  <g fill="none" stroke-linecap="round">
    <path d="M73.6 33.4 L76 34.4 M82.4 31.2 L84.6 32.6 M86 34.4 L88.4 34.8" stroke="#2a0c08" stroke-width="0.9"/>
    <path d="M73.6 33.4 L76 34.4 M82.4 31.2 L84.6 32.6 M86 34.4 L88.4 34.8" stroke="#ff7a2a" stroke-width="0.45"/>
  </g>
  <!-- brow and the ember eye -->
  <ellipse cx="78.6" cy="30.6" rx="3.8" ry="2.6" fill="url(#aw-glow)" opacity="0.85"/>
  <path d="M76.4 31 Q78.6 29.2 81 30.2 Q78.8 32 76.4 31 Z" fill="url(#aw-eye)" stroke="#0d0a12" stroke-width="0.5" stroke-linejoin="round"/>
  <path d="M79 29.8 L78.8 31.4" stroke="#2a0a0a" stroke-width="0.6" stroke-linecap="round"/>
  <circle cx="77.8" cy="30.5" r="0.35" fill="#ffffff"/>
  <path d="M75.2 29.6 Q78.4 27.4 82 29" fill="none" stroke="#0d0a12" stroke-width="0.9" stroke-linecap="round"/>
  <!-- nostril, smoking -->
  <path d="M88.4 33.2 Q89.6 32.8 90 33.8 Q89.2 34.4 88.4 33.2 Z" fill="#2a0a0a"/>
  <circle cx="89.2" cy="33.5" r="0.3" fill="#ff8a3d"/>
  <path d="M89.6 32.6 C90.6 30.4 89 28.8 90.2 26.8 C90.8 25.6 90.4 24.4 89.8 23.8" fill="none" stroke="#8e8896" stroke-width="0.7" stroke-linecap="round" opacity="0.45"/>
  <!-- mouth shut on its cinders, fire leaking at the lips -->
  <ellipse cx="82" cy="37.6" rx="6" ry="2" fill="url(#aw-glow-soft)"/>
  <path d="M75.4 38.4 Q82 38.4 89.4 36.6" fill="none" stroke="#0d0a12" stroke-width="0.8" stroke-linecap="round"/>
  <path d="M76.6 38 Q82 38 88.4 36.6" fill="none" stroke="#ff8a3d" stroke-width="0.45" stroke-linecap="round"/>
  <path d="M84 37.3 L84.6 39 L85.2 37.1 Z M80 37.8 L80.5 39.2 L81 37.7 Z" fill="#efe7d8" stroke="#0d0a12" stroke-width="0.3" stroke-linejoin="round"/>

  <!-- ===== near wing, raised high mid-beat, tattered and smouldering ===== -->
  <path fill-rule="evenodd" d="M50 46 L44 30 L52 10 L26 4.4 C24 8 21.4 10 18.6 10.6 L19.8 12.4 L16.4 12.2 L12.2 14.4 C15.4 18.4 15.8 22.4 14.2 25.6 L16 26.4 L13.2 27.6 L10.4 30.2 C14.6 32 17.4 34.2 18.6 36.2 L20.4 35.6 L20.2 38.2 L22.6 40.2 C26 42 28.6 45.4 30.2 48 L32.4 47.4 L33 50.6 L36 52.4 Z M23 18.6 L25.6 19 L26.2 21.4 L24 22.6 L22 21 Z M29 32.6 L31.2 33 L31.6 35.4 L29.4 36 L28.2 34.2 Z" fill="url(#aw-wing)" stroke="#0d0a12" stroke-width="1.2" stroke-linejoin="round"/>
  <!-- the torn trailing edge, still smouldering -->
  <path d="M26 4.4 C24 8 21.4 10 18.6 10.6 L19.8 12.4 L16.4 12.2 L12.2 14.4 C15.4 18.4 15.8 22.4 14.2 25.6 L16 26.4 L13.2 27.6 L10.4 30.2 C14.6 32 17.4 34.2 18.6 36.2 L20.4 35.6 L20.2 38.2 L22.6 40.2 C26 42 28.6 45.4 30.2 48 L32.4 47.4 L33 50.6" fill="none" stroke="#ff7a2a" stroke-width="2" stroke-linejoin="round" opacity="0.22"/>
  <path d="M25.4 5.4 C23.6 8.6 21.2 10.6 18.8 11.4 M15.6 13.8 C16.6 17.6 16.6 21.6 15.2 25 M14.2 30.4 C16 31.8 17.4 33.4 18.4 35 M23.6 40.8 C26.2 42.4 28 44.6 29.4 46.6" fill="none" stroke="#ff8a3d" stroke-width="0.5" stroke-linecap="round" opacity="0.9"/>
  <!-- burnt holes, rims still glowing -->
  <path d="M23 18.6 L25.6 19 L26.2 21.4 L24 22.6 L22 21 Z M29 32.6 L31.2 33 L31.6 35.4 L29.4 36 L28.2 34.2 Z" fill="none" stroke="#ff8a3d" stroke-width="0.5" stroke-linejoin="round"/>
  <!-- membrane folds, the lit band along the leading edge, and smouldering veins -->
  <path d="M46.6 10.8 Q36 7.4 28 6.2" fill="none" stroke="#b4aaa4" stroke-width="0.7" opacity="0.7"/>
  <path d="M42 34 Q36 38 32 44 M40 20 Q30 22 22 26" fill="none" stroke="#2a2226" stroke-width="0.6" opacity="0.7"/>
  <g fill="none" stroke-linecap="round">
    <path d="M44 12 Q36 13.6 29 12.8 M41 17.4 Q32 20 26.4 24 M43 23 Q36 28 33 31.6 M40.4 31 Q34.6 36 32 40 M36 14.4 Q34.4 18 31.6 19.6" stroke="#ff7a2a" stroke-width="0.5" opacity="0.5"/>
    <path d="M44 12 Q38 13.2 33 13 M41 17.4 Q35 19.4 30.6 21.6" stroke="#ffd27a" stroke-width="0.25" opacity="0.7"/>
  </g>
  <!-- finger bones -->
  <path d="M52 10 Q39 5.6 26 4.4 M52 10 Q30 8.6 12.2 14.4 M52 10 Q28 16 10.4 30.2 M52 10 Q34 24 22.6 40.2" fill="none" stroke="#0d0a12" stroke-width="2.2" stroke-linecap="round"/>
  <path d="M52 10 Q39 5.6 26 4.4 M52 10 Q30 8.6 12.2 14.4 M52 10 Q28 16 10.4 30.2 M52 10 Q34 24 22.6 40.2" fill="none" stroke="#a49c96" stroke-width="1.1" stroke-linecap="round"/>
  <path d="M50 9 Q39 5.8 30 5 M49 10 Q32 9.6 18 13" fill="none" stroke="#f2ede6" stroke-width="0.4" stroke-linecap="round"/>
  <!-- finger-tip talons -->
  <path d="M26.6 4 L24.6 2.6 L25.4 5.2 Z M12.8 13.8 L10.6 13.4 L12 15.4 Z M10.8 29.6 L8.8 30.6 L10.8 31.4 Z M22.6 39.6 L21.4 41.6 L23.6 41 Z" fill="url(#aw-horn)" stroke="#0d0a12" stroke-width="0.4" stroke-linejoin="round"/>
  <!-- arm: shoulder, elbow, wrist -->
  <path d="M50 46 L44 30 L52 10" fill="none" stroke="#0d0a12" stroke-width="4.4" stroke-linecap="round" stroke-linejoin="round"/>
  <path d="M50 46 L44 30 L52 10" fill="none" stroke="#a49c96" stroke-width="2.8" stroke-linecap="round" stroke-linejoin="round"/>
  <path d="M48.6 44 L43 30 L50.6 11" fill="none" stroke="#f2ede6" stroke-width="0.6" stroke-linecap="round" stroke-linejoin="round"/>
  <path d="M46.6 36 L47.6 38.6 M48 22 L47 24.6" stroke="#ff7a2a" stroke-width="0.5" stroke-linecap="round"/>
  <circle cx="44" cy="30" r="1.8" fill="#9a928c" stroke="#0d0a12" stroke-width="0.6"/>
  <circle cx="43.5" cy="29.4" r="0.5" fill="#f2ede6"/>
  <path d="M43 31.6 L40.8 33 L43.2 33.2 Z" fill="url(#aw-horn)" stroke="#0d0a12" stroke-width="0.35"/>
  <!-- wing-thumb claw -->
  <path d="M52.6 10 Q53 5.6 56.4 3.4 Q55.4 6.8 56 9.6 Z" fill="url(#aw-horn)" stroke="#0d0a12" stroke-width="0.7" stroke-linejoin="round"/>
  <path d="M53.4 8 Q54 5.4 55.6 4.2" fill="none" stroke="#fffaf0" stroke-width="0.35"/>
  <circle cx="52" cy="10" r="1.6" fill="#a49c96" stroke="#0d0a12" stroke-width="0.6"/>
  <circle cx="51.5" cy="9.5" r="0.45" fill="#f2ede6"/>
  <!-- shoulder knot where the wing meets the body -->
  <ellipse cx="50.4" cy="46" rx="3.2" ry="2.6" fill="url(#aw-scale)" stroke="#0d0a12" stroke-width="0.8"/>
  <path d="M48.4 45 Q50 43.6 52 44" fill="none" stroke="#f2ede6" stroke-width="0.5" stroke-linecap="round"/>

  <!-- ===== ash shaken loose by the wingbeat, and a few drifting embers ===== -->
  <g fill="#9a949a" opacity="0.75">
    <circle cx="30" cy="70" r="0.5"/><circle cx="36" cy="76" r="0.4"/><circle cx="24" cy="74" r="0.45"/><circle cx="58" cy="78" r="0.4"/>
    <circle cx="40" cy="82" r="0.35"/><circle cx="52" cy="83" r="0.35"/><circle cx="18" cy="48" r="0.4"/><circle cx="8" cy="40" r="0.35"/>
  </g>
  <g fill="#ffd27a">
    <circle cx="14" cy="8" r="0.5" opacity="0.85"/><circle cx="6.4" cy="22" r="0.45" opacity="0.8"/><circle cx="18" cy="44" r="0.4" opacity="0.75"/>
    <circle cx="32" cy="66" r="0.4" opacity="0.7"/><circle cx="64" cy="66" r="0.35" opacity="0.6"/>
  </g>
  <g fill="#ff8a3d">
    <circle cx="9" cy="16" r="0.4" opacity="0.7"/><circle cx="26" cy="47" r="0.35" opacity="0.6"/><circle cx="46" cy="80" r="0.3" opacity="0.5"/>
  </g>
</svg>
