<svg xmlns="http://www.w3.org/2000/svg" viewBox="0 0 96 96" width="96" height="96">
  <!-- Barrow Wight: the restless ghost of an ancient barrow-king, drifting above the ground in its corroded burial finery. A bronze sword in one hand, withering mist trailing from the other's claws. Lit from the upper left, rim-lit pale violet by its own curse. -->
  <defs>
    <radialGradient id="bw-aura" cx="0.5" cy="0.5" r="0.5">
      <stop offset="0" stop-color="#9a86e0" stop-opacity="0.26"/>
      <stop offset="0.6" stop-color="#7a5c9e" stop-opacity="0.1"/>
      <stop offset="1" stop-color="#7a5c9e" stop-opacity="0"/>
    </radialGradient>
    <linearGradient id="bw-mantle" x1="0" y1="0" x2="1" y2="1">
      <stop offset="0" stop-color="#7d93a3"/>
      <stop offset="0.45" stop-color="#4b5f71"/>
      <stop offset="1" stop-color="#253040"/>
    </linearGradient>
    <linearGradient id="bw-mantle-back" x1="0" y1="0" x2="0" y2="1">
      <stop offset="0" stop-color="#3a4a5c"/>
      <stop offset="0.7" stop-color="#232c3c"/>
      <stop offset="1" stop-color="#2a2444"/>
    </linearGradient>
    <linearGradient id="bw-lining" x1="0" y1="0" x2="0" y2="1">
      <stop offset="0" stop-color="#2c2440"/>
      <stop offset="1" stop-color="#3b3060"/>
    </linearGradient>
    <linearGradient id="bw-shroud" x1="0" y1="0" x2="0" y2="1">
      <stop offset="0" stop-color="#5d7183"/>
      <stop offset="0.55" stop-color="#3c4b5e"/>
      <stop offset="1" stop-color="#3e3a66"/>
    </linearGradient>
    <linearGradient id="bw-ghost" x1="0" y1="0" x2="1" y2="1">
      <stop offset="0" stop-color="#f2f6ff"/>
      <stop offset="0.45" stop-color="#bccbec"/>
      <stop offset="1" stop-color="#7d70b6"/>
    </linearGradient>
    <linearGradient id="bw-ghost-dark" x1="0" y1="0" x2="1" y2="1">
      <stop offset="0" stop-color="#c4d0ee"/>
      <stop offset="1" stop-color="#6a5ea6"/>
    </linearGradient>
    <linearGradient id="bw-wisp" x1="0" y1="0" x2="0" y2="1">
      <stop offset="0" stop-color="#dfe8ff" stop-opacity="0.95"/>
      <stop offset="0.6" stop-color="#a99be0" stop-opacity="0.75"/>
      <stop offset="1" stop-color="#7a6cc0" stop-opacity="0.3"/>
    </linearGradient>
    <linearGradient id="bw-mail" x1="0" y1="0" x2="1" y2="1">
      <stop offset="0" stop-color="#9a958c"/>
      <stop offset="0.5" stop-color="#635a52"/>
      <stop offset="1" stop-color="#3a312f"/>
    </linearGradient>
    <linearGradient id="bw-helm" x1="0" y1="0" x2="1" y2="1">
      <stop offset="0" stop-color="#b6cf9f"/>
      <stop offset="0.45" stop-color="#6f9274"/>
      <stop offset="1" stop-color="#34503f"/>
    </linearGradient>
    <linearGradient id="bw-helm-dark" x1="0" y1="0" x2="1" y2="1">
      <stop offset="0" stop-color="#7f9d78"/>
      <stop offset="1" stop-color="#2c4234"/>
    </linearGradient>
    <linearGradient id="bw-blade" x1="0" y1="0" x2="1" y2="0">
      <stop offset="0" stop-color="#f6e2a8"/>
      <stop offset="0.5" stop-color="#c99d55"/>
      <stop offset="0.51" stop-color="#8e6631"/>
      <stop offset="1" stop-color="#5a3d1e"/>
    </linearGradient>
    <linearGradient id="bw-gold" x1="0" y1="0" x2="1" y2="1">
      <stop offset="0" stop-color="#f8e09a"/>
      <stop offset="0.5" stop-color="#c79a4c"/>
      <stop offset="1" stop-color="#7a5522"/>
    </linearGradient>
    <linearGradient id="bw-face" x1="0" y1="0" x2="1" y2="1">
      <stop offset="0" stop-color="#e4ebfc"/>
      <stop offset="0.5" stop-color="#a7b2df"/>
      <stop offset="1" stop-color="#5e5298"/>
    </linearGradient>
    <linearGradient id="bw-brim" x1="0" y1="0" x2="0" y2="1">
      <stop offset="0" stop-color="#1c1430" stop-opacity="0.95"/>
      <stop offset="0.55" stop-color="#2e2350" stop-opacity="0.7"/>
      <stop offset="1" stop-color="#3a2f5e" stop-opacity="0"/>
    </linearGradient>
    <radialGradient id="bw-eye" cx="0.5" cy="0.5" r="0.5">
      <stop offset="0" stop-color="#ffffff"/>
      <stop offset="0.3" stop-color="#e3d6ff"/>
      <stop offset="0.6" stop-color="#a98bff" stop-opacity="0.6"/>
      <stop offset="1" stop-color="#a98bff" stop-opacity="0"/>
    </radialGradient>
    <radialGradient id="bw-mist" cx="0.5" cy="0.5" r="0.5">
      <stop offset="0" stop-color="#7a5c9e" stop-opacity="0.8"/>
      <stop offset="0.55" stop-color="#5a4380" stop-opacity="0.4"/>
      <stop offset="1" stop-color="#4a3670" stop-opacity="0"/>
    </radialGradient>
    <radialGradient id="bw-edge" cx="0.5" cy="0.5" r="0.5">
      <stop offset="0" stop-color="#e3d6ff" stop-opacity="0.7"/>
      <stop offset="1" stop-color="#a98bff" stop-opacity="0"/>
    </radialGradient>
  </defs>

  <!-- faint spectral aura around the whole figure -->
  <ellipse cx="48" cy="50" rx="34" ry="38" fill="url(#bw-aura)"/>

  <!-- funeral mantle, behind everything, flaring and tattered -->
  <path d="M36 31 C28 38 22 50 18 63 Q16 69 15.5 73 L19.5 71 L19 77 L23.5 73.5 L25.5 79 L29 74 L31.5 78 L34 73 Q48 67 62 73 L64.5 78 L67 74 L70.5 79 L72.5 73.5 L77 77 L76.5 71 L80.5 73 Q80 69 78 63 C74 50 68 38 60 31 Z" fill="url(#bw-mantle-back)" stroke="#0d0a12" stroke-width="1.2" stroke-linejoin="round"/>
  <!-- inner lining glimpsed between the folds -->
  <path d="M33 44 C29 54 26 64 24 73 L27 75 L29 74 Q31 62 35 50 Z M63 44 C67 54 70 64 72 73 L69 75 L67 74 Q65 62 61 50 Z" fill="url(#bw-lining)" opacity="0.9"/>
  <path d="M26 52 C24 60 22 67 21 73 M31 58 C30 65 29 70 29 74 M70 52 C72 60 74 67 75 73 M65 58 C66 65 67 70 67 74" fill="none" stroke="#141826" stroke-width="0.8" opacity="0.85"/>
  <path d="M33 37 C28 45 24 55 20 66" fill="none" stroke="#7d93a3" stroke-width="0.7" opacity="0.55"/>
  <path d="M31 44 C27.6 52 25.4 60 23.8 68 M36.4 47 C34.4 55 33 62 32.4 69" fill="none" stroke="#5f7688" stroke-width="0.6" opacity="0.55"/>
  <path d="M63 37 C68 46 72 56 77 67" fill="none" stroke="#a98bff" stroke-width="0.6" opacity="0.45"/>
  <!-- moth holes in the old cloth -->
  <path d="M22.5 64 q1 -0.8 1.6 0.2 q-0.4 1.2 -1.6 0.6 Z M73 60 q1 -0.6 1.4 0.4 q-0.6 1 -1.4 0.4 Z" fill="#0d0a12" opacity="0.8"/>
  <!-- the hem of the mantle smoking away into ghost-wisps -->
  <g fill="none" stroke="#b9aee6" stroke-linecap="round" opacity="0.55">
    <path d="M19 77 Q18 80 20 81.5" stroke-width="0.8"/>
    <path d="M25.5 79 Q25 81.5 27 82.5" stroke-width="0.7"/>
    <path d="M70.5 79 Q71.5 81.5 69.5 82.5" stroke-width="0.7"/>
    <path d="M77 77 Q78.5 79.5 77 81" stroke-width="0.8"/>
  </g>

  <!-- long ghostly hair streaming from under the helm -->
  <path d="M38.5 22 C35 26 33 30 30.5 33.5 C33.5 32.5 35 31.8 37 31.3 C36 33.5 35 35.2 33.5 37.5 C37 35.5 39.5 32 40.5 28 Z" fill="url(#bw-ghost)" stroke="#0d0a12" stroke-width="0.9" stroke-linejoin="round" opacity="0.92"/>
  <path d="M57.5 22 C61 26 63.5 29 67 31 C64 31.6 61.8 31.2 59.6 30.6 C60.6 33 62 35 64 37 C59.8 35.6 56.6 32.2 55.5 28 Z" fill="url(#bw-ghost-dark)" stroke="#0d0a12" stroke-width="0.9" stroke-linejoin="round" opacity="0.92"/>
  <path d="M37.6 25 C36 28 34.5 30.5 32.6 32.6 M58.6 25 C60.6 28 62.8 29.8 65 30.8" fill="none" stroke="#ffffff" stroke-width="0.5" opacity="0.7"/>
  <path d="M39 29 C38 31.5 36.8 33.5 35.4 35.6 M57 29 C58.2 31.5 60 33.5 61.8 35.4" fill="none" stroke="#6a5ea6" stroke-width="0.5"/>

  <!-- ghost-tail instead of legs: the shroud smokes away into one curling wisp -->
  <g stroke="#0d0a12" stroke-width="0.9" stroke-linejoin="round" stroke-opacity="0.6">
    <path d="M37.6 64 C37 72.6 40.4 78.2 45 80 C48.6 81.2 51 82.8 54 83.6 C57.2 84.4 60 82.6 59.2 80.2 C58.6 78.6 56.4 78.6 55.8 79.8 C57.2 79.8 57.4 81.6 55.6 81.6 C52.8 81.4 51 79.6 50.2 77.8 C55 77.6 60 74.4 61.4 64 Z" fill="url(#bw-wisp)"/>
  </g>
  <g stroke="#0d0a12" stroke-width="0.7" stroke-linejoin="round" stroke-opacity="0.35" opacity="0.85">
    <path d="M36 67 C33.6 71 34 75.6 36.4 79 C35.6 78.4 37.6 79.4 37.4 78.6 C36 75.6 36.6 71.6 39 68.6 Z" fill="url(#bw-wisp)"/>
    <path d="M61.6 66 C64.4 69 65.4 73 64 76.6 C64.8 76.4 65.6 75.8 65.4 75.4 C66.6 72 66.2 68.4 64.2 65.6 Z" fill="url(#bw-wisp)"/>
  </g>
  <path d="M39.6 72.6 C41.6 77.4 46 79.8 50.6 81.4 C52.6 82.2 54.6 82.8 56.4 82.6" fill="none" stroke="#ffffff" stroke-width="0.6" stroke-linecap="round" opacity="0.75"/>
  <path d="M44.4 75.4 C46.8 77.4 49 78.4 50.8 78.4 M53.4 76.4 C56 75.6 58.4 73.4 59.8 70.6 M41.6 73.6 C42.6 75 43.4 75.8 44.4 76.4" fill="none" stroke="#6a5ea6" stroke-width="0.55" stroke-linecap="round" opacity="0.85"/>
  <path d="M36.6 72 C36.4 74.6 37 76.8 38.2 78.4 M63.6 69.6 C64.6 72 64.6 74.4 63.6 76.6" fill="none" stroke="#f2f6ff" stroke-width="0.45" opacity="0.6"/>
  <circle cx="43.4" cy="82.4" r="0.5" fill="#cfc4f4" opacity="0.6"/>
  <circle cx="61.4" cy="82" r="0.45" fill="#cfc4f4" opacity="0.5"/>
  <circle cx="34.4" cy="80" r="0.4" fill="#cfc4f4" opacity="0.5"/>

  <!-- the shroud-skirt below the belt, fraying into nothing -->
  <path d="M38.5 56 L57.5 56 Q59.8 62 61.8 68 L58.8 67 L58 72 L55.2 68.6 L52.8 73.6 L50.4 69 L48 74.6 L45.6 69 L43.2 73.4 L40.8 68.6 L38 71.6 L37.2 67 L34.2 68 Q36.4 62 38.5 56 Z" fill="url(#bw-shroud)" stroke="#0d0a12" stroke-width="1.1" stroke-linejoin="round"/>
  <path d="M42 60 C41.6 64 41.2 66.6 40.8 68.6 M46.5 61 C46.3 65 46.2 67 45.6 69 M51 61 C51.4 65 51 67 50.6 69 M55 60 C56 64 57 66 58 69" fill="none" stroke="#222a3a" stroke-width="0.7"/>
  <path d="M39.8 58.5 C38.8 62 37.8 64.6 36.6 67" fill="none" stroke="#9fb2c2" stroke-width="0.7" stroke-linecap="round" opacity="0.8"/>
  <path d="M59.8 62.4 L61.2 66.6" stroke="#a98bff" stroke-width="0.6" opacity="0.55"/>
  <!-- a faded gold-thread border along the hem, unravelling -->
  <path d="M35.2 66 L37.2 67.4 L37.8 70.4 M40.8 67 L42.8 71.6 M45.6 67.6 L47.6 72.8 M50.6 67.6 L52.6 72 M55.4 66.8 L57.8 70.4" fill="none" stroke="#a8823e" stroke-width="0.6" opacity="0.7"/>
  <!-- runic panel stitched down the front of the shroud -->
  <path d="M46 60.6 L50 60.6 L50.4 67 L48 69.2 L45.6 67 Z" fill="#2c3346" stroke="#0d0a12" stroke-width="0.6"/>
  <path d="M48 61.8 L48 67.4 M46.9 63 L49.1 64.2 M46.9 65.6 L49.1 64.6" fill="none" stroke="#b38f4c" stroke-width="0.5"/>

  <!-- rusted chain-mail hauberk -->
  <path d="M39 34.5 Q48 32.5 57 34.5 L57.2 55 Q48 57.6 38.8 55 Z" fill="url(#bw-mail)" stroke="#0d0a12" stroke-width="1.1" stroke-linejoin="round"/>
  <g fill="none" stroke-width="0.45">
    <path d="M40 38 q0.75 0.9 1.5 0 q0.75 0.9 1.5 0 q0.75 0.9 1.5 0 q0.75 0.9 1.5 0 q0.75 0.9 1.5 0 q0.75 0.9 1.5 0 q0.75 0.9 1.5 0 q0.75 0.9 1.5 0 q0.75 0.9 1.5 0 q0.75 0.9 1.5 0 q0.75 0.9 1.5 0" stroke="#2c2522"/>
    <path d="M39.6 40.4 q0.75 0.9 1.5 0 q0.75 0.9 1.5 0 q0.75 0.9 1.5 0 q0.75 0.9 1.5 0 q0.75 0.9 1.5 0 q0.75 0.9 1.5 0 q0.75 0.9 1.5 0 q0.75 0.9 1.5 0 q0.75 0.9 1.5 0 q0.75 0.9 1.5 0 q0.75 0.9 1.5 0 q0.75 0.9 1.5 0" stroke="#2c2522"/>
    <path d="M40 42.8 q0.75 0.9 1.5 0 q0.75 0.9 1.5 0 q0.75 0.9 1.5 0 q0.75 0.9 1.5 0 q0.75 0.9 1.5 0 q0.75 0.9 1.5 0 q0.75 0.9 1.5 0 q0.75 0.9 1.5 0 q0.75 0.9 1.5 0 q0.75 0.9 1.5 0 q0.75 0.9 1.5 0" stroke="#2c2522"/>
    <path d="M39.6 45.2 q0.75 0.9 1.5 0 q0.75 0.9 1.5 0 q0.75 0.9 1.5 0 q0.75 0.9 1.5 0 q0.75 0.9 1.5 0 q0.75 0.9 1.5 0 q0.75 0.9 1.5 0 q0.75 0.9 1.5 0 q0.75 0.9 1.5 0 q0.75 0.9 1.5 0 q0.75 0.9 1.5 0 q0.75 0.9 1.5 0" stroke="#2c2522"/>
    <path d="M40 47.6 q0.75 0.9 1.5 0 q0.75 0.9 1.5 0 q0.75 0.9 1.5 0 q0.75 0.9 1.5 0 q0.75 0.9 1.5 0 q0.75 0.9 1.5 0 q0.75 0.9 1.5 0 q0.75 0.9 1.5 0 q0.75 0.9 1.5 0 q0.75 0.9 1.5 0 q0.75 0.9 1.5 0" stroke="#2c2522"/>
    <path d="M39.6 50 q0.75 0.9 1.5 0 q0.75 0.9 1.5 0 q0.75 0.9 1.5 0 q0.75 0.9 1.5 0 q0.75 0.9 1.5 0 q0.75 0.9 1.5 0 q0.75 0.9 1.5 0 q0.75 0.9 1.5 0 q0.75 0.9 1.5 0 q0.75 0.9 1.5 0 q0.75 0.9 1.5 0 q0.75 0.9 1.5 0" stroke="#2c2522"/>
    <path d="M40 52.4 q0.75 0.9 1.5 0 q0.75 0.9 1.5 0 q0.75 0.9 1.5 0 q0.75 0.9 1.5 0 q0.75 0.9 1.5 0 q0.75 0.9 1.5 0 q0.75 0.9 1.5 0 q0.75 0.9 1.5 0 q0.75 0.9 1.5 0 q0.75 0.9 1.5 0 q0.75 0.9 1.5 0" stroke="#2c2522"/>
    <!-- glints on the lit rings -->
    <path d="M40.2 38.5 q0.6 0.5 1.2 0 M42.9 38.5 q0.6 0.5 1.2 0 M40.2 43.3 q0.6 0.5 1.2 0 M41.6 40.9 q0.6 0.5 1.2 0 M40 48.1 q0.6 0.5 1.2 0 M41.4 45.7 q0.6 0.5 1.2 0" stroke="#d6d2c8"/>
  </g>
  <!-- rust blooms and a rent in the mail that shows the ghost-light within -->
  <path d="M53.5 49 q1.8 -1 2.8 0.6 q-0.6 1.8 -2.4 1.4 Z M41 52 q1.4 -0.8 2.2 0.4 q-0.6 1.2 -2 0.8 Z" fill="#8a4b2a" opacity="0.75"/>
  <path d="M55.4 38.6 Q56.2 42 55.6 45" stroke="#8a4b2a" stroke-width="0.8" fill="none" opacity="0.7"/>
  <!-- a burst of rings where the cold light of the ghost shows through -->
  <ellipse cx="51.4" cy="46.8" rx="3.4" ry="3.2" fill="url(#bw-edge)" opacity="0.9"/>
  <path d="M50 46 q0.7 0.8 1.4 0 q0.7 0.8 1.4 0 M50.4 48.2 q0.7 0.8 1.4 0" fill="none" stroke="#e3d6ff" stroke-width="0.45"/>
  <path d="M49.4 44.8 l-0.6 -0.6 M53.6 45 l0.7 -0.5 M53.4 48.8 l0.6 0.6" stroke="#2c2522" stroke-width="0.45"/>

  <!-- mail skirt peeking under the belt -->
  <path d="M39 57 Q48 59.8 57 57 L57.8 61 L56 60 L54.5 61.6 L52.5 60.4 L50.5 62 L48.5 60.6 L46.5 62 L44.5 60.4 L42.5 61.6 L41 60 L38.4 61 Z" fill="url(#bw-mail)" stroke="#0d0a12" stroke-width="0.9" stroke-linejoin="round"/>
  <path d="M40 59 q0.75 0.8 1.5 0 q0.75 0.8 1.5 0 q0.75 0.8 1.5 0 q0.75 0.8 1.5 0 q0.75 0.8 1.5 0 q0.75 0.8 1.5 0 q0.75 0.8 1.5 0 q0.75 0.8 1.5 0 q0.75 0.8 1.5 0 q0.75 0.8 1.5 0 q0.75 0.8 1.5 0" fill="none" stroke="#2c2522" stroke-width="0.45"/>

  <!-- rotted leather belt with bronze plaques -->
  <path d="M39.2 53.8 Q48 56.6 56.8 53.8 L57 57 Q48 59.8 39 57 Z" fill="#45332a" stroke="#0d0a12" stroke-width="0.9" stroke-linejoin="round"/>
  <path d="M39.6 54.6 Q48 57.2 56.4 54.6" fill="none" stroke="#7a5a44" stroke-width="0.4"/>
  <g fill="#7f9d78" stroke="#0d0a12" stroke-width="0.5">
    <rect x="40.4" y="54.4" width="2.2" height="2.2" rx="0.4"/>
    <rect x="43.6" y="55.2" width="2.2" height="2.2" rx="0.4"/>
    <rect x="50.2" y="55.2" width="2.2" height="2.2" rx="0.4"/>
    <rect x="53.4" y="54.4" width="2.2" height="2.2" rx="0.4"/>
  </g>
  <circle cx="41.5" cy="55.5" r="0.4" fill="#c9dcb2"/><circle cx="44.7" cy="56.3" r="0.4" fill="#c9dcb2"/>
  <path d="M46.2 55.2 L49.8 55.2 L50.2 58.4 L48 59.4 L45.8 58.4 Z" fill="url(#bw-gold)" stroke="#0d0a12" stroke-width="0.7" stroke-linejoin="round"/>
  <path d="M47 56.2 L49 56.2 L48 58.2 Z" fill="#5c3f1c"/>
  <circle cx="47.1" cy="56" r="0.35" fill="#fff4cc"/>

  <!-- wither-mist pooling and drifting down from the clawed hand (behind the arm) -->
  <ellipse cx="80" cy="66" rx="8" ry="7" fill="url(#bw-mist)"/>
  <ellipse cx="76" cy="74" rx="6" ry="4" fill="url(#bw-mist)" opacity="0.8"/>
  <path d="M79 61 C83 64 85 68 82.5 71.5 C80.5 74 77 73.6 76.4 71.4 C76 69.6 78 68.6 79.4 69.6" fill="none" stroke="#7a5c9e" stroke-width="1.5" stroke-linecap="round" opacity="0.85"/>
  <path d="M82 61.5 C86.5 64 88 68.5 86 72.4" fill="none" stroke="#5a4380" stroke-width="1.1" stroke-linecap="round" opacity="0.8"/>
  <path d="M75 63 C73.6 67 74 71 72 74.5 C70.8 76.6 72 78.6 74 78" fill="none" stroke="#5a4380" stroke-width="1.2" stroke-linecap="round" opacity="0.75"/>

  <!-- clawed arm sleeve (viewer's right), hanging ragged from the shoulder -->
  <path d="M61.5 38.5 Q67 40.5 70.5 46 L73.8 50.4 L70.8 50.6 L71.2 53.8 L68.2 51.2 L66.2 53.4 L65.6 49.8 Q63 46.4 61 43 Z" fill="url(#bw-mantle)" stroke="#0d0a12" stroke-width="1.1" stroke-linejoin="round"/>
  <path d="M63.5 41.6 Q66.6 44.6 68.4 49.4 M65.4 41.2 Q69 44 71.4 49" fill="none" stroke="#253040" stroke-width="0.6"/>
  <path d="M69.6 50.8 L72.6 50.6" stroke="#a8823e" stroke-width="0.5" opacity="0.8"/>
  <!-- gaunt forearm and long clawed hand -->
  <path d="M68 50.4 L74.6 52.6 L73.6 55.6 L67.2 53.2 Z" fill="url(#bw-ghost-dark)" stroke="#0d0a12" stroke-width="0.9" stroke-linejoin="round"/>
  <path d="M68.6 51 L74 52.9" stroke="#f2f6ff" stroke-width="0.5"/>
  <path d="M73.2 52.2 Q76.8 51.2 78.6 53.2 Q79.6 55.6 78 57.6 Q75.4 58.4 73.4 56.4 Z" fill="url(#bw-ghost)" stroke="#0d0a12" stroke-width="0.9" stroke-linejoin="round"/>
  <g stroke="#0d0a12" stroke-width="0.7" stroke-linejoin="round" fill="url(#bw-ghost)">
    <path d="M78 52.8 Q81.2 53.4 83 56.2 L84.6 59.2 L82.6 57.6 Q80.8 55.8 77.8 55 Z"/>
    <path d="M78.4 55 Q81.4 56.6 82.4 59.6 L83.2 63 L81.4 60.4 Q79.8 58 77.8 56.8 Z"/>
    <path d="M77.6 56.6 Q79.6 59 79.8 62 L80 65.4 L78.6 62.4 Q77.6 60 76.4 57.8 Z"/>
    <path d="M75.6 57.4 Q76.6 60 76.2 63 L75.6 66 L74.8 62.8 Q74.8 60.4 74.2 57.6 Z"/>
    <path d="M73.6 54.6 Q71.6 56.6 71.2 59 L70.6 61.4 L72.4 59.6 Q73.6 57.6 74.8 56.6 Z"/>
  </g>
  <!-- black claw tips and knuckle joints -->
  <path d="M83.4 57.4 L84.6 59.2 L83 58.4 Z M82.4 61 L83.2 63 L82 61.8 Z M79.6 63.4 L80 65.4 L79 64 Z M75.9 64 L75.6 66 L75 64.4 Z M71.2 59.8 L70.6 61.4 L71.8 60.4 Z" fill="#1a1426" stroke="#0d0a12" stroke-width="0.5" stroke-linejoin="round"/>
  <path d="M80.4 54.6 l0.6 0.8 M80.6 57.2 l0.5 0.8 M78.6 59.4 l0.6 0.5 M75.6 60.2 l0.6 0.2" stroke="#6a5ea6" stroke-width="0.5"/>
  <path d="M74 53 Q76 52 77.6 52.8" fill="none" stroke="#ffffff" stroke-width="0.5" opacity="0.85"/>
  <!-- mist curling between the fingers -->
  <path d="M80.6 58.8 C82.6 60.6 82.8 62.6 81.4 64.2 M77.4 60 C78.8 62.4 78.2 64.6 77 66" fill="none" stroke="#9f86d0" stroke-width="0.9" stroke-linecap="round" opacity="0.8"/>
  <path d="M76.6 67.6 C78.6 68.6 80.6 68 81.4 66.2" fill="none" stroke="#e3d6ff" stroke-width="0.5" stroke-linecap="round" opacity="0.7"/>
  <g fill="#e3d6ff">
    <circle cx="85.4" cy="63.6" r="0.5" opacity="0.8"/><circle cx="83.6" cy="69.6" r="0.45" opacity="0.6"/>
    <circle cx="74.6" cy="70.6" r="0.5" opacity="0.7"/><circle cx="79.2" cy="75.6" r="0.4" opacity="0.5"/>
    <circle cx="87" cy="67.4" r="0.35" opacity="0.5"/>
  </g>

  <!-- sword arm sleeve (viewer's left) -->
  <path d="M34.5 38.5 Q29 40.5 25.6 46 L22 50.8 L25 50.6 L25 53.8 L27.8 51.4 L29.8 53.4 L30.4 49.8 Q33 46.4 35 43 Z" fill="url(#bw-mantle)" stroke="#0d0a12" stroke-width="1.1" stroke-linejoin="round"/>
  <path d="M32.6 41.4 Q29.4 44.4 27.6 49.4 M30.8 41 Q27.4 43.8 24.8 48.6" fill="none" stroke="#253040" stroke-width="0.6"/>
  <path d="M33.6 40.2 Q29.6 42 26.8 46" fill="none" stroke="#b4c6d2" stroke-width="0.7" stroke-linecap="round" opacity="0.8"/>
  <path d="M23.4 50.8 L27 51" stroke="#a8823e" stroke-width="0.5" opacity="0.8"/>

  <!-- the shoulder mantle, open at the front over the mail -->
  <path d="M41.5 31 Q34 30.5 30 35 Q27.6 40 28.6 47 L31 44.6 L32.6 49 L35 45 L37.6 48.6 L39.2 44.2 L42.2 46.2 Q42.4 38 41.5 31 Z" fill="url(#bw-mantle)" stroke="#0d0a12" stroke-width="1.2" stroke-linejoin="round"/>
  <path d="M54.5 31 Q62 30.5 66 35 Q68.4 40 67.4 47 L65 44.6 L63.4 49 L61 45 L58.4 48.6 L56.8 44.2 L53.8 46.2 Q53.6 38 54.5 31 Z" fill="url(#bw-mantle)" stroke="#0d0a12" stroke-width="1.2" stroke-linejoin="round"/>
  <!-- light on the left shoulder, shadow folds on the right -->
  <path d="M31 36.4 Q34 32.6 39.6 32.2" fill="none" stroke="#c9d8e2" stroke-width="1" stroke-linecap="round" opacity="0.85"/>
  <path d="M33 40 Q34.4 43 35 45 M37 39 Q37.8 43 37.6 48 M58.6 39 Q58.4 43 58.4 48 M62.6 39 Q62.4 42 61 45 M65.6 38 Q66.4 41 65 44.6" fill="none" stroke="#1f2836" stroke-width="0.7"/>
  <path d="M66.6 37 Q67.6 41 67.2 45.4" fill="none" stroke="#a98bff" stroke-width="0.6" opacity="0.6"/>
  <!-- faded gold-thread border down the open edges -->
  <path d="M41.4 31.8 Q42 38.4 41.8 45.4 M54.6 31.8 Q54 38.4 54.2 45.4" fill="none" stroke="#a8823e" stroke-width="0.9"/>
  <path d="M41.4 33 l0.6 0.8 M41.6 35.6 l0.6 0.8 M41.7 38.2 l0.6 0.8 M41.8 40.8 l0.6 0.8 M54.6 33 l-0.6 0.8 M54.4 35.6 l-0.6 0.8 M54.3 38.2 l-0.6 0.8 M54.2 40.8 l-0.6 0.8" stroke="#3b2c18" stroke-width="0.4"/>
  <!-- a band of tiny gold stitched knots above the ragged edge -->
  <g fill="#c49a52">
    <circle cx="30.2" cy="42.6" r="0.4"/><circle cx="32" cy="43.2" r="0.4"/><circle cx="33.8" cy="42.8" r="0.4"/><circle cx="35.6" cy="43.4" r="0.4"/><circle cx="37.4" cy="42.8" r="0.4"/><circle cx="39.2" cy="42.4" r="0.4"/>
    <circle cx="65.8" cy="42.6" r="0.4" opacity="0.7"/><circle cx="64" cy="43.2" r="0.4" opacity="0.7"/><circle cx="62.2" cy="42.8" r="0.4" opacity="0.7"/><circle cx="60.4" cy="43.4" r="0.4" opacity="0.7"/><circle cx="58.6" cy="42.8" r="0.4" opacity="0.7"/><circle cx="56.8" cy="42.4" r="0.4" opacity="0.7"/>
  </g>
  <!-- tears and a frayed hole -->
  <path d="M30.6 41.6 q1 -0.6 1.4 0.4 q-0.6 0.9 -1.4 0.4 Z" fill="#0d0a12" opacity="0.8"/>
  <path d="M63.2 41 l1 1.6 M64.4 40.6 l0.4 1.4" stroke="#1f2836" stroke-width="0.5"/>

  <!-- bronze mantle brooches joined by a sagging chain -->
  <path d="M42.4 40.2 Q48 44.6 53.6 40.2" fill="none" stroke="#6b5a3a" stroke-width="0.9" stroke-dasharray="0.9 0.5"/>
  <circle cx="41.6" cy="39.4" r="2.1" fill="url(#bw-gold)" stroke="#0d0a12" stroke-width="0.7"/>
  <circle cx="54.4" cy="39.4" r="2.1" fill="url(#bw-gold)" stroke="#0d0a12" stroke-width="0.7"/>
  <circle cx="41.6" cy="39.4" r="1" fill="#5a3f88" stroke="#2a1d40" stroke-width="0.3"/>
  <circle cx="54.4" cy="39.4" r="1" fill="#5a3f88" stroke="#2a1d40" stroke-width="0.3"/>
  <circle cx="41.3" cy="39.1" r="0.35" fill="#e3d6ff"/><circle cx="54.1" cy="39.1" r="0.35" fill="#e3d6ff"/>
  <path d="M55.4 40.8 q0.8 0.4 1 1.2" stroke="#4f8f7a" stroke-width="0.6" fill="none"/>

  <!-- neck -->
  <path d="M45 28.6 L51 28.6 L51.8 34.4 L44.2 34.4 Z" fill="url(#bw-ghost-dark)" stroke="#0d0a12" stroke-width="0.9"/>
  <path d="M46.6 31 L47.2 34 M49.4 31 L48.8 34" stroke="#6a5ea6" stroke-width="0.5"/>

  <!-- gaunt ghost face -->
  <path d="M41.2 18.5 L54.8 18.5 Q55.2 25.4 53.2 29.4 Q50.8 33.8 48 34 Q45.2 33.8 42.8 29.4 Q40.8 25.4 41.2 18.5 Z" fill="url(#bw-face)" stroke="#0d0a12" stroke-width="1" stroke-linejoin="round"/>
  <!-- deep shadow under the brim -->
  <path d="M41.2 18.5 L54.8 18.5 L54.9 26.4 Q48 23.6 41.1 26.4 Z" fill="url(#bw-brim)"/>
  <!-- hollow cheeks, sharp cheekbones, a grim downturned mouth -->
  <path d="M42.6 25.6 Q43.4 28.6 45.6 30 Q44 27.6 44 25.4 Z M53.4 25.6 Q52.6 28.6 50.4 30 Q52 27.6 52 25.4 Z" fill="#4c3f86" opacity="0.85"/>
  <path d="M42.4 25.2 Q43.6 24.8 44.6 25.4" fill="none" stroke="#f2f6ff" stroke-width="0.5" stroke-linecap="round" opacity="0.8"/>
  <path d="M45 31 Q48 29.4 51 31 Q50 32.6 48 32.8 Q46 32.6 45 31 Z" fill="#1f1636" stroke="#1f1636" stroke-width="0.5" stroke-linejoin="round"/>
  <path d="M46.3 30.4 l0.1 0.8 M47.4 30.1 l0 0.9 M48.6 30.1 l0 0.9 M49.7 30.4 l-0.1 0.8" stroke="#dfe6fb" stroke-width="0.35"/>
  <path d="M46.4 33 Q48 33.6 49.6 33" fill="none" stroke="#e4ebfc" stroke-width="0.45" opacity="0.6"/>
  <!-- burning pale-violet eyes -->
  <ellipse cx="48" cy="23" rx="10.5" ry="5" fill="url(#bw-eye)" opacity="0.9"/>
  <path d="M42 21.6 L46.6 22.8 L46 24.4 L42.8 23.8 Z M54 21.6 L49.4 22.8 L50 24.4 L53.2 23.8 Z" fill="#120b1e"/>
  <path d="M42.9 22.4 L46 23.2 L45.6 23.9 L43.3 23.5 Z M53.1 22.4 L50 23.2 L50.4 23.9 L52.7 23.5 Z" fill="#e3d6ff"/>
  <path d="M43.6 22.9 L45.4 23.3 M52.4 22.9 L50.6 23.3" stroke="#ffffff" stroke-width="0.55" stroke-linecap="round"/>

  <!-- corroded bronze helm: cheek guards -->
  <path d="M37 19.4 L42 19 Q42.6 24.6 41.2 29.6 Q38.6 29.2 37.6 26 Z" fill="url(#bw-helm)" stroke="#0d0a12" stroke-width="1" stroke-linejoin="round"/>
  <path d="M59 19.4 L54 19 Q53.4 24.6 54.8 29.6 Q57.4 29.2 58.4 26 Z" fill="url(#bw-helm-dark)" stroke="#0d0a12" stroke-width="1" stroke-linejoin="round"/>
  <path d="M38.4 20.6 Q38.4 24 39 26.6" fill="none" stroke="#d9ebc4" stroke-width="0.6" stroke-linecap="round"/>
  <circle cx="39.6" cy="21.6" r="0.5" fill="#e1d2a0"/><circle cx="56.4" cy="21.6" r="0.5" fill="#8f8458"/>
  <path d="M39.4 24.6 q1 0.6 1.4 1.8 M55.6 25 q0.6 1 0.6 2" stroke="#2c4234" stroke-width="0.5" fill="none"/>
  <!-- helm dome, spangen ribs and rivets -->
  <path d="M37.4 18.6 Q37 8.6 48 7 Q59 8.6 58.6 18.6 Z" fill="url(#bw-helm)" stroke="#0d0a12" stroke-width="1.3" stroke-linejoin="round"/>
  <path d="M48 7.2 L48 17.8 M42.4 9.2 Q41.2 13 41.4 17.6 M53.6 9.2 Q54.8 13 54.6 17.6" fill="none" stroke="#a87a3e" stroke-width="1.3"/>
  <path d="M47.5 7.6 L47.5 17.4 M42 10 Q41 13.4 41 17" fill="none" stroke="#e8c88a" stroke-width="0.45"/>
  <path d="M39.6 13.4 Q41 9.8 45 8.6" fill="none" stroke="#e4f2d2" stroke-width="1.1" stroke-linecap="round" opacity="0.9"/>
  <path d="M56.6 11.6 Q58 14.4 58 17.6" fill="none" stroke="#24382c" stroke-width="0.9"/>
  <g fill="#e8c88a" stroke="#0d0a12" stroke-width="0.3">
    <circle cx="48" cy="10.4" r="0.55"/><circle cx="48" cy="13.6" r="0.55"/>
    <circle cx="41.8" cy="12" r="0.5"/><circle cx="54.2" cy="12" r="0.5"/>
  </g>
  <!-- verdigris crust and pitting -->
  <path d="M43.6 14 q1.6 -1 2.6 0.2 q-0.4 1.4 -2 1.2 Z M51 10.6 q1.2 -0.8 2 0.2 q-0.4 1 -1.6 0.8 Z M55.6 14.4 q1 -0.4 1.4 0.6 q-0.6 0.8 -1.4 0.2 Z" fill="#5fae96" opacity="0.85"/>
  <circle cx="44.4" cy="11" r="0.35" fill="#2c4234"/><circle cx="52" cy="15" r="0.35" fill="#2c4234"/><circle cx="39.8" cy="16.2" r="0.3" fill="#2c4234"/>
  <!-- small crest knob -->
  <path d="M46.6 7.4 Q48 4.6 49.4 7.4 Z" fill="url(#bw-gold)" stroke="#0d0a12" stroke-width="0.6" stroke-linejoin="round"/>
  <!-- brow band -->
  <path d="M36.8 16.8 Q48 14.2 59.2 16.8 L59.4 20 Q48 17.6 36.6 20 Z" fill="url(#bw-helm-dark)" stroke="#0d0a12" stroke-width="1" stroke-linejoin="round"/>
  <path d="M37.4 17.8 Q48 15.4 58.6 17.8" fill="none" stroke="#c4dcae" stroke-width="0.5" opacity="0.8"/>
  <path d="M38.6 18.4 l0 1 M40.6 18 l0 1 M55.4 18 l0 1 M57.4 18.4 l0 1" stroke="#1f2f25" stroke-width="0.5"/>
  <!-- thin gold circlet worn over the helm, with a dull amethyst -->
  <path d="M37.8 15.8 Q48 12.8 58.2 15.8" fill="none" stroke="#7a5522" stroke-width="1.6" stroke-linecap="round"/>
  <path d="M37.8 15.4 Q48 12.4 58.2 15.4" fill="none" stroke="#e2bb64" stroke-width="0.9" stroke-linecap="round"/>
  <path d="M40 14.2 Q44 13 46 12.8" fill="none" stroke="#fff1c4" stroke-width="0.4"/>
  <path d="M42.4 14.2 L43 12 L43.8 13.8 Z M52.2 13.8 L53 12 L53.6 14.2 Z" fill="#e2bb64" stroke="#0d0a12" stroke-width="0.4" stroke-linejoin="round"/>
  <path d="M46.6 13.2 L48 10.4 L49.4 13.2 L48 14.6 Z" fill="url(#bw-gold)" stroke="#0d0a12" stroke-width="0.5" stroke-linejoin="round"/>
  <ellipse cx="48" cy="12.9" rx="0.7" ry="0.9" fill="#6a4aa0"/>
  <circle cx="47.8" cy="12.6" r="0.28" fill="#e3d6ff"/>
  <!-- nose guard -->
  <path d="M46.8 18.4 L49.2 18.4 L49 27 Q48 28.2 47 27 Z" fill="url(#bw-helm)" stroke="#0d0a12" stroke-width="0.8" stroke-linejoin="round"/>
  <path d="M47.5 19 L47.5 26.4" stroke="#d9ebc4" stroke-width="0.4"/>
  <circle cx="48" cy="19.4" r="0.4" fill="#e8c88a"/>
  <!-- cold light spilling from the eyes past the cheek guards -->
  <path d="M42.4 22.4 Q40 21.8 37.6 22.6 M53.6 22.4 Q56.4 21.4 59 22.2" fill="none" stroke="#e3d6ff" stroke-width="0.5" stroke-linecap="round" opacity="0.7"/>

  <!-- heavy gold torc, twisted, open at the throat -->
  <path d="M40.8 31.4 Q41.8 35.8 46.2 36.6" fill="none" stroke="#0d0a12" stroke-width="3.6" stroke-linecap="round"/>
  <path d="M55.2 31.4 Q54.2 35.8 49.8 36.6" fill="none" stroke="#0d0a12" stroke-width="3.6" stroke-linecap="round"/>
  <path d="M40.8 31.4 Q41.8 35.8 46.2 36.6" fill="none" stroke="#c79a4c" stroke-width="2.4" stroke-linecap="round"/>
  <path d="M55.2 31.4 Q54.2 35.8 49.8 36.6" fill="none" stroke="#a87a36" stroke-width="2.4" stroke-linecap="round"/>
  <path d="M40.6 31.6 Q41.2 34.8 44.6 35.8" fill="none" stroke="#f8e09a" stroke-width="0.7" stroke-linecap="round"/>
  <path d="M41.2 32.8 l1.2 -0.6 M41.8 34.2 l1 -0.9 M42.8 35.2 l0.8 -1 M44 35.9 l0.5 -1.1 M54.8 32.8 l-1.2 -0.6 M54.2 34.2 l-1 -0.9 M53.2 35.2 l-0.8 -1 M52 35.9 l-0.5 -1.1" stroke="#6a4618" stroke-width="0.5"/>
  <circle cx="46.4" cy="36.6" r="1.7" fill="url(#bw-gold)" stroke="#0d0a12" stroke-width="0.7"/>
  <circle cx="49.6" cy="36.6" r="1.7" fill="url(#bw-gold)" stroke="#0d0a12" stroke-width="0.7"/>
  <circle cx="45.9" cy="36" r="0.5" fill="#fff4cc"/><circle cx="49.1" cy="36" r="0.45" fill="#fff4cc"/>
  <path d="M45.6 37.4 Q46.4 38 47.4 37.6 M48.8 37.4 Q49.6 38 50.6 37.6" fill="none" stroke="#6a4618" stroke-width="0.4"/>

  <!-- leaf-bladed bronze sword, raised; its edge burns cold -->
  <path d="M24.3 52.4 Q21.4 47.5 21.7 43.3 Q16 36.5 16.2 31.8 Q15.6 26 16 21.6 Q19.2 26.4 21.8 30.6 Q25.2 36.8 23.6 42.7 Q25.6 47.5 26.7 51.6 Z" fill="url(#bw-edge)" stroke="#c9b8ff" stroke-width="2.6" stroke-linejoin="round" opacity="0.35"/>
  <path d="M24.3 52.4 Q21.4 47.5 21.7 43.3 Q16 36.5 16.2 31.8 Q15.6 26 16 21.6 Q19.2 26.4 21.8 30.6 Q25.2 36.8 23.6 42.7 Q25.6 47.5 26.7 51.6 Z" fill="url(#bw-blade)" stroke="#0d0a12" stroke-width="1" stroke-linejoin="round"/>
  <!-- midrib and the cold-glowing edge -->
  <path d="M25.4 51.6 Q22.4 44 22.6 41 Q18 35 17.2 25" fill="none" stroke="#5a3d1e" stroke-width="0.5"/>
  <path d="M24.6 51.4 Q21.6 45 21.8 42 Q17.2 35.6 16.6 25.4" fill="none" stroke="#fff3cf" stroke-width="0.45" opacity="0.8"/>
  <path d="M17 31.2 Q16.6 26.6 16.4 23" fill="none" stroke="#efe6ff" stroke-width="0.7" stroke-linecap="round"/>
  <path d="M20.4 30.8 Q18.4 27.6 16.8 23.6 M23.6 38 Q22.8 34 21.2 31.4" fill="none" stroke="#c9b8ff" stroke-width="0.6" stroke-linecap="round" opacity="0.9"/>
  <!-- verdigris pits, notches and an engraved wave-band -->
  <path d="M19.4 34.6 q0.8 -0.6 1.3 0.2 q-0.3 0.8 -1.2 0.5 Z M22.4 46 q0.7 -0.4 1 0.3 q-0.3 0.6 -1 0.3 Z" fill="#4f8f7a"/>
  <path d="M23.7 40.4 l0.8 0.1 l-0.4 0.7 M18.3 28.2 l-0.7 0.3 l0.6 0.5" fill="#0d0a12" stroke="#0d0a12" stroke-width="0.35"/>
  <path d="M21.2 37.2 q0.6 -0.8 1.2 0 q0.6 0.8 1.2 0 M20.4 34.4 q0.5 -0.7 1 0 q0.5 0.7 1 0" fill="none" stroke="#5a3d1e" stroke-width="0.4"/>
  <circle cx="16" cy="21.6" r="1.6" fill="url(#bw-eye)"/>
  <circle cx="16.1" cy="22" r="0.4" fill="#ffffff"/>
  <!-- bronze hilt shoulders, grip, crescent pommel -->
  <path d="M21.8 53.8 Q25 51 29.2 51.4 L29 53.4 Q25.8 53.4 22.8 55.4 Z" fill="url(#bw-gold)" stroke="#0d0a12" stroke-width="0.9" stroke-linejoin="round"/>
  <path d="M22.8 53.6 Q25.4 51.8 28.6 52" fill="none" stroke="#fff1c4" stroke-width="0.4"/>
  <path d="M26 54.4 L28.2 60.6" stroke="#0d0a12" stroke-width="3.2" stroke-linecap="round"/>
  <path d="M26 54.4 L28.2 60.6" stroke="#4a3426" stroke-width="2" stroke-linecap="round"/>
  <path d="M26.6 58.2 l1.4 -0.6 M27.2 59.6 l1.4 -0.6" stroke="#7a5a44" stroke-width="0.45"/>
  <path d="M26 61.6 Q28.4 60 31 61.2 Q29.6 62 29.4 63.2 Q28.2 62 26.8 62.8 Q26.8 62 26 61.6 Z" fill="url(#bw-gold)" stroke="#0d0a12" stroke-width="0.7" stroke-linejoin="round"/>
  <circle cx="27.8" cy="61.2" r="0.35" fill="#fff4cc"/>
  <!-- bony ghost hand wrapped round the grip -->
  <path d="M27.4 51.6 L30.2 51.8 L30.6 54 L27.6 54.2 Z" fill="url(#bw-ghost-dark)" stroke="#0d0a12" stroke-width="0.8"/>
  <path d="M24.6 55.6 Q27 53.4 29.8 54.4 Q31 56.6 29.6 58.6 Q27 59.2 25.2 57.8 Z" fill="url(#bw-ghost)" stroke="#0d0a12" stroke-width="0.9" stroke-linejoin="round"/>
  <path d="M25.6 56.2 Q27.6 55 29.8 55.8 M25.6 57.6 Q27.6 56.6 29.6 57.4" fill="none" stroke="#6a5ea6" stroke-width="0.45"/>
  <path d="M25.6 55.4 Q26.8 54.4 28.4 54.4" fill="none" stroke="#ffffff" stroke-width="0.5"/>
  <path d="M29.6 56.4 L31.2 57 L30 57.6 Z" fill="#1a1426"/>

  <!-- cold motes drifting about the wight -->
  <circle cx="61.6" cy="18.6" r="0.6" fill="#e3d6ff" opacity="0.8"/>
  <circle cx="64.2" cy="15.8" r="0.45" fill="#e3d6ff" opacity="0.6"/>
  <circle cx="34.6" cy="17" r="0.5" fill="#e3d6ff" opacity="0.6"/>
  <circle cx="12.6" cy="26.4" r="0.45" fill="#e3d6ff" opacity="0.6"/>
  <circle cx="20.2" cy="18.6" r="0.4" fill="#e3d6ff" opacity="0.5"/>
</svg>
