<svg xmlns="http://www.w3.org/2000/svg" viewBox="0 0 96 96" width="96" height="96">
  <!-- Bone Colossus, attack key pose (Colossal Sweep): the end of a huge flat swing, one plated fist flung out to the right, a pale trail curving round the front where it passed; body twisted into the blow, soulfire blazing. Same anchor as the alive picture. Lit from the upper left. -->
  <defs>
    <radialGradient id="bxa-shadow" cx="0.5" cy="0.5" r="0.5">
      <stop offset="0" stop-color="#0d0a12" stop-opacity="0.55"/>
      <stop offset="0.7" stop-color="#0d0a12" stop-opacity="0.25"/>
      <stop offset="1" stop-color="#0d0a12" stop-opacity="0"/>
    </radialGradient>
    <linearGradient id="bxa-steel" x1="0" y1="0" x2="1" y2="1">
      <stop offset="0" stop-color="#a7b0c0"/>
      <stop offset="0.45" stop-color="#6b7487"/>
      <stop offset="1" stop-color="#363b4b"/>
    </linearGradient>
    <linearGradient id="bxa-steel-dark" x1="0" y1="0" x2="1" y2="1">
      <stop offset="0" stop-color="#7d8698"/>
      <stop offset="1" stop-color="#2a2e3b"/>
    </linearGradient>
    <linearGradient id="bxa-bone" x1="0" y1="0" x2="1" y2="1">
      <stop offset="0" stop-color="#e6ddc5"/>
      <stop offset="0.55" stop-color="#bdb196"/>
      <stop offset="1" stop-color="#7d725d"/>
    </linearGradient>
    <linearGradient id="bxa-bone-dark" x1="0" y1="0" x2="1" y2="1">
      <stop offset="0" stop-color="#b5aa8f"/>
      <stop offset="1" stop-color="#5a5243"/>
    </linearGradient>
    <linearGradient id="bxa-cape" x1="0" y1="0" x2="0" y2="1">
      <stop offset="0" stop-color="#3b2852"/>
      <stop offset="1" stop-color="#160f22"/>
    </linearGradient>
    <linearGradient id="bxa-tabard" x1="0" y1="0" x2="0" y2="1">
      <stop offset="0" stop-color="#5b2a44"/>
      <stop offset="1" stop-color="#2d1424"/>
    </linearGradient>
    <linearGradient id="bxa-violet" x1="0" y1="0" x2="1" y2="1">
      <stop offset="0" stop-color="#83719c"/>
      <stop offset="0.5" stop-color="#54436c"/>
      <stop offset="1" stop-color="#2b2139"/>
    </linearGradient>
    <radialGradient id="bxa-cavity" cx="0.5" cy="0.6" r="0.6">
      <stop offset="0" stop-color="#2a6658"/>
      <stop offset="0.55" stop-color="#16302a"/>
      <stop offset="1" stop-color="#0c0a12"/>
    </radialGradient>
    <radialGradient id="bxa-glow" cx="0.5" cy="0.5" r="0.5">
      <stop offset="0" stop-color="#f2fffa"/>
      <stop offset="0.3" stop-color="#8ff7d6" stop-opacity="0.85"/>
      <stop offset="0.6" stop-color="#5ef0c0" stop-opacity="0.5"/>
      <stop offset="1" stop-color="#5ef0c0" stop-opacity="0"/>
    </radialGradient>
    <linearGradient id="bxa-flame" x1="0" y1="0" x2="0" y2="1">
      <stop offset="0" stop-color="#ffffff"/>
      <stop offset="0.4" stop-color="#b4fbe4"/>
      <stop offset="1" stop-color="#2fbf94"/>
    </linearGradient>
    <!-- the sweep's trail: nothing where the swing began on the left, brightest at the fist -->
    <linearGradient id="bxa-trail" gradientUnits="userSpaceOnUse" x1="4" y1="0" x2="90" y2="0">
      <stop offset="0" stop-color="#e9fff7" stop-opacity="0"/>
      <stop offset="0.4" stop-color="#d8fff0" stop-opacity="0.26"/>
      <stop offset="0.85" stop-color="#bff8e4" stop-opacity="0.6"/>
      <stop offset="1" stop-color="#e9fff7" stop-opacity="0.8"/>
    </linearGradient>
    <linearGradient id="bxa-trail-core" gradientUnits="userSpaceOnUse" x1="8" y1="0" x2="88" y2="0">
      <stop offset="0" stop-color="#ffffff" stop-opacity="0"/>
      <stop offset="0.5" stop-color="#f4fffb" stop-opacity="0.45"/>
      <stop offset="1" stop-color="#ffffff" stop-opacity="0.95"/>
    </linearGradient>
    <linearGradient id="bxa-trail-edge" gradientUnits="userSpaceOnUse" x1="6" y1="0" x2="90" y2="0">
      <stop offset="0" stop-color="#ffffff" stop-opacity="0"/>
      <stop offset="0.55" stop-color="#ffffff" stop-opacity="0.55"/>
      <stop offset="1" stop-color="#ffffff" stop-opacity="1"/>
    </linearGradient>
    <radialGradient id="bxa-spark" cx="0.5" cy="0.5" r="0.5">
      <stop offset="0" stop-color="#ffffff"/>
      <stop offset="0.3" stop-color="#e9fff7" stop-opacity="0.9"/>
      <stop offset="1" stop-color="#8ff7d6" stop-opacity="0"/>
    </radialGradient>
  </defs>

  <!-- soft ground shadow, spread by the wide stance -->
  <ellipse cx="49" cy="88.6" rx="45" ry="5" fill="url(#bxa-shadow)"/>

  <!-- the barrow-cape, flung out behind by the swing -->
  <path d="M28 24 L68 24 C72 40 75 58 76.4 78 L72.4 76 L69.4 83 L65.6 77.6 L61.4 84 L57.6 78.4 L53.4 84.6 L49.4 79 L45 85 L41 79 L36 84 L32.4 77.4 L26.6 82 L23.6 75.6 L16.6 78.4 L14 72.6 L5.6 73.6 C12 58 18 40 28 24 Z" fill="url(#bxa-cape)" stroke="#0d0a12" stroke-width="1.2" stroke-linejoin="round"/>
  <path d="M44 62 L41 79 M50 62 L49.4 79 M22 52 C18 62 15 68 14 72.6 M28 54 C26 64 25 72 23.6 75.6" fill="none" stroke="#120b1b" stroke-width="0.8" opacity="0.8"/>
  <path d="M20 44 C16 54 11 64 7 72" fill="none" stroke="#5a4378" stroke-width="0.7" opacity="0.6"/>

  <!-- the trailing arm, pulled back by the twist -->
  <path d="M15 31 L22 34.4 L13.4 47.4 L7 43.6 Z" fill="url(#bxa-bone-dark)" stroke="#0d0a12" stroke-width="1.1" stroke-linejoin="round"/>
  <path d="M18.4 32.8 L10.4 45.6" stroke="#3a3428" stroke-width="0.8"/>
  <path d="M16 32 L8.6 43.4" stroke="#e6ddc5" stroke-width="0.5" opacity="0.7"/>
  <path d="M11.4 37.4 L18.4 40.2 L16.8 42.8 L9.8 40 Z" fill="#3b4150" stroke="#0d0a12" stroke-width="0.9" stroke-linejoin="round"/>
  <ellipse cx="9.8" cy="46.6" rx="5.2" ry="4.2" fill="url(#bxa-steel-dark)" stroke="#0d0a12" stroke-width="1" transform="rotate(20 9.8 46.6)"/>
  <path d="M5.8 45 Q9.6 42.6 13.6 45.6" fill="none" stroke="#aab3c2" stroke-width="0.6"/>
  <path d="M4.6 49 L13.6 48 L15.8 57.4 L5.8 58.6 Z" fill="url(#bxa-steel-dark)" stroke="#0d0a12" stroke-width="1.1" stroke-linejoin="round"/>
  <path d="M5.6 50.4 L6.6 57.6" stroke="#a9b2c2" stroke-width="0.6"/>
  <path d="M3.4 59 C6.8 56.6 14.6 56.6 17.4 58.8 C18.6 62.4 18.2 66.4 16.4 68.8 C12.4 70.4 7.4 70.4 4 68.6 C2.4 65.6 2.2 61.8 3.4 59 Z" fill="url(#bxa-steel-dark)" stroke="#0d0a12" stroke-width="1.2" stroke-linejoin="round"/>
  <path d="M3.6 62 Q10.4 60.6 17.6 62.2 M3.8 65.2 Q10.4 63.8 17.8 65.4" fill="none" stroke="#1d2029" stroke-width="0.6"/>
  <path d="M7.4 58 L7.2 69.4 M11 57.6 L11 70 M14.6 57.8 L14.6 69.6" stroke="#1d2029" stroke-width="0.5"/>
  <path d="M4.4 59.6 Q8.6 57.8 13 58" fill="none" stroke="#b9c2d0" stroke-width="0.7" stroke-linecap="round"/>

  <!-- ===== legs, braced wide to take the weight of the swing ===== -->
  <g stroke="#0d0a12" stroke-width="1.2" stroke-linejoin="round">
    <path d="M31 60 L42 60 L37.4 72 L27 71.4 Z" fill="url(#bxa-bone)"/>
    <path d="M54 60 L65 60 L69.6 71.4 L59 72 Z" fill="url(#bxa-bone-dark)"/>
  </g>
  <path d="M34.8 60.4 L31 71.4 M38.6 60.4 L34.6 71.6 M57.8 60.4 L62 71.6 M61.6 60.4 L66 71.4" stroke="#4f4738" stroke-width="0.8"/>
  <path d="M33.8 60.6 L30 71.2 M37.6 60.6 L33.6 71.4" stroke="#f3ecd9" stroke-width="0.5" opacity="0.8"/>
  <g stroke="#0d0a12" stroke-width="0.9" stroke-linejoin="round">
    <path d="M29.8 64.2 L40.8 64.4 L39.6 67.4 L28.6 67.2 Z" fill="url(#bxa-steel-dark)"/>
    <path d="M55.6 64.4 L66.6 64.2 L67.8 67.2 L56.8 67.4 Z" fill="#3b4150"/>
  </g>
  <path d="M32 65.4 l0.6 1 l0.6 -1 M35.4 65.4 l0.4 1.2 M58.8 65.4 l0.6 1 l0.6 -1 M62.4 65.4 l0.4 1.2" fill="none" stroke="#8ff7d6" stroke-width="0.5"/>
  <g stroke="#0d0a12" stroke-width="1.2" stroke-linejoin="round">
    <path d="M26.4 76 L37 76 L35.8 84.4 L26 84.4 Z" fill="url(#bxa-steel)"/>
    <path d="M59.6 76 L70.2 76 L70.8 84.4 L60.6 84.4 Z" fill="url(#bxa-steel-dark)"/>
  </g>
  <path d="M28 77.4 L27.8 83.4" stroke="#c8d0dc" stroke-width="0.9" stroke-linecap="round"/>
  <path d="M68.8 77.6 L69.2 83.4" stroke="#232733" stroke-width="0.8"/>
  <path d="M34.6 77.6 Q35 80 34.2 83 M63.4 77 Q64 79.6 63.4 82.4" stroke="#8a4b2a" stroke-width="0.7" fill="none" opacity="0.75"/>
  <ellipse cx="31.8" cy="73.6" rx="6.4" ry="4.6" fill="url(#bxa-steel)" stroke="#0d0a12" stroke-width="1.1"/>
  <ellipse cx="64.8" cy="73.6" rx="6.2" ry="4.5" fill="url(#bxa-steel-dark)" stroke="#0d0a12" stroke-width="1.1"/>
  <path d="M27 72.4 Q31.8 69.4 36.6 72.4" fill="none" stroke="#e1e7ef" stroke-width="0.8"/>
  <path d="M60.2 72.4 Q64.8 69.6 69.4 72.4" fill="none" stroke="#9aa3b3" stroke-width="0.6"/>
  <circle cx="31.8" cy="73.8" r="1.2" fill="#2a2e3b" stroke="#0d0a12" stroke-width="0.4"/>
  <circle cx="64.8" cy="73.8" r="1.2" fill="#1d2029" stroke="#0d0a12" stroke-width="0.4"/>
  <g stroke="#0d0a12" stroke-width="1.1" stroke-linejoin="round">
    <path d="M22.4 88.6 L22.4 84.4 C22.6 83.6 23.4 83.4 24.4 83.4 L35.4 83.4 C39 83.6 41.8 86 41.6 88.6 Z" fill="url(#bxa-steel-dark)"/>
    <path d="M58.8 88.6 L58.8 84.4 C59 83.6 59.8 83.4 60.8 83.4 L71.8 83.4 C75.8 83.6 79 86 78.8 88.6 Z" fill="#3b4150"/>
  </g>
  <path d="M22.8 85.6 L40 85.6 M22.8 87.2 L41.2 87.2 M59.2 85.6 L76.6 85.6 M59.2 87.2 L78 87.2" stroke="#1a1d26" stroke-width="0.6"/>
  <path d="M24 84.4 Q30 83.8 36 84.4" fill="none" stroke="#c3cbd8" stroke-width="0.5"/>
  <!-- grit ground up under the planted feet -->
  <path d="M20.6 88 q-2.6 -1 -4.6 -0.4 M21 86.2 q-2 -1.8 -4.2 -1.8 M80.6 88 q2.6 -1 4.6 -0.4 M80.2 86 q2 -1.8 4.4 -1.6" fill="none" stroke="#4a4258" stroke-width="0.6" stroke-linecap="round"/>
  <circle cx="14.6" cy="85.4" r="0.6" fill="#5a5168"/><circle cx="16.4" cy="82.6" r="0.45" fill="#5a5168"/><circle cx="86.4" cy="85.2" r="0.6" fill="#5a5168"/><circle cx="84.6" cy="82.4" r="0.45" fill="#5a5168"/>

  <!-- the swinging arm's upper bones, running up under the heaved shoulder -->
  <path d="M71.6 32.4 L80.4 29 L90.4 40.8 L83.6 46.4 Z" fill="url(#bxa-bone)" stroke="#0d0a12" stroke-width="1.1" stroke-linejoin="round"/>
  <path d="M76.2 30.6 L87 43.8" stroke="#4f4738" stroke-width="0.8"/>
  <path d="M74.6 31.4 L85.4 44.4 M79.2 30 L89 41.4" stroke="#f3ecd9" stroke-width="0.5" opacity="0.8"/>
  <path d="M77.4 37.8 L84 33.8 L86 36.6 L79.4 40.6 Z" fill="url(#bxa-steel-dark)" stroke="#0d0a12" stroke-width="0.9" stroke-linejoin="round"/>
  <path d="M79.8 37.6 l1 -0.2 l-0.2 1.2 M82.4 36 l0.8 0.8" fill="none" stroke="#8ff7d6" stroke-width="0.5"/>

  <!-- ===== the trunk, wrenched round into the swing ===== -->
  <g transform="translate(-2 1) rotate(5 48 60)">
    <!-- waist vertebrae -->
    <g stroke="#0d0a12" stroke-width="0.9" stroke-linejoin="round">
      <path d="M42.8 51.6 L53.2 51.6 L52.6 54.4 L43.4 54.4 Z" fill="url(#bxa-bone-dark)"/>
      <rect x="44.4" y="50.6" width="7.2" height="3.4" rx="1.2" fill="url(#bxa-bone)"/>
      <path d="M42.6 55.4 L53.4 55.4 L52.8 58.2 L43.2 58.2 Z" fill="url(#bxa-bone-dark)"/>
      <rect x="44.2" y="54.4" width="7.6" height="3.4" rx="1.2" fill="url(#bxa-bone)"/>
    </g>
    <!-- pelvis wings -->
    <g stroke="#0d0a12" stroke-width="1" stroke-linejoin="round">
      <path d="M29.4 57 C29.2 52.4 33.6 50.4 38.4 51.4 C41.6 52.2 43.4 54.8 43 58 L30.4 58.6 Z" fill="url(#bxa-bone)"/>
      <path d="M66.6 57 C66.8 52.4 62.4 50.4 57.6 51.4 C54.4 52.2 52.6 54.8 53 58 L65.6 58.6 Z" fill="url(#bxa-bone-dark)"/>
    </g>
    <!-- tassets -->
    <g stroke="#0d0a12" stroke-width="1" stroke-linejoin="round">
      <path d="M27.6 60 L39.6 61.4 L39 69 Q33.4 71 27.8 69 Z" fill="url(#bxa-steel)"/>
      <path d="M56.4 61.4 L68.4 60 L68.2 69 Q62.6 71 57 69 Z" fill="url(#bxa-steel-dark)"/>
    </g>
    <path d="M27.8 64.4 L39.4 65.4 M56.6 65.4 L68.3 64.4" stroke="#20232d" stroke-width="0.6"/>
    <circle cx="29.6" cy="61.6" r="0.7" fill="#d8dfe9"/><circle cx="37.6" cy="62.4" r="0.7" fill="#d8dfe9"/>
    <circle cx="58.4" cy="62.4" r="0.7" fill="#8a93a3"/><circle cx="66.4" cy="61.6" r="0.7" fill="#8a93a3"/>
    <!-- the stole, flicked back -->
    <path d="M64.4 59.4 L68.6 60.2 L66.6 76 L65.6 74 L64 76.4 L63.4 73.8 L61.6 75 Z" fill="url(#bxa-violet)" stroke="#0d0a12" stroke-width="0.8" stroke-linejoin="round"/>
    <!-- fauld and belt -->
    <path d="M29 56.6 Q48 61 67 56.6 L67.2 61.6 Q48 66.2 28.8 61.6 Z" fill="url(#bxa-steel-dark)" stroke="#0d0a12" stroke-width="1" stroke-linejoin="round"/>
    <path d="M29.4 58.2 Q48 62.6 66.8 58.2" fill="none" stroke="#a9b2c2" stroke-width="0.5"/>
    <path d="M29.2 59.6 Q48 64 66.8 59.6 L66.8 61.8 Q48 66.4 29.2 61.8 Z" fill="#3a2a22" stroke="#0d0a12" stroke-width="0.8"/>
    <rect x="45.4" y="61.2" width="5.2" height="4" rx="0.8" fill="#b9873c" stroke="#0d0a12" stroke-width="0.7"/>
    <rect x="47" y="62.4" width="2" height="1.6" fill="#3a2a22"/>
    <!-- tabard, its hem whipped back by the turn -->
    <path d="M42 64 L54 64 L52.4 79.6 L50.2 77.2 L47.6 80.6 L45.4 77 L42.4 80.4 L41 76.6 L37.6 78.6 Z" fill="url(#bxa-tabard)" stroke="#0d0a12" stroke-width="1" stroke-linejoin="round"/>
    <path d="M43 66 L40.6 77.4 M53 66 L51.8 78" stroke="#c99a4a" stroke-width="0.7" opacity="0.85"/>
    <path d="M44.4 76 L50.8 70.4 M44.4 70.4 L50.8 76" stroke="#d9cfb4" stroke-width="1" stroke-linecap="round"/>
    <path d="M45 69.6 Q47.6 66 50.2 69.6 Q50.4 72 49 72.6 L46.2 72.6 Q44.8 72 45 69.6 Z" fill="#e3dac0" stroke="#2d1424" stroke-width="0.5"/>
    <circle cx="46.6" cy="69.8" r="0.7" fill="#2d1424"/><circle cx="48.6" cy="69.8" r="0.7" fill="#2d1424"/>

    <!-- the ribcage, soulfire roaring in it -->
    <path d="M27.6 25.4 C36 21.4 60 21.4 68.4 25.4 C74.4 32 74.6 43 69.4 50.6 C62 54.6 34 54.6 26.6 50.6 C21.4 43 21.6 32 27.6 25.4 Z" fill="url(#bxa-cavity)" stroke="#0d0a12" stroke-width="1.2" stroke-linejoin="round"/>
    <ellipse cx="48" cy="41" rx="24" ry="16" fill="url(#bxa-glow)" opacity="0.6"/>
    <g fill="none" stroke-linecap="round">
      <path d="M46 31 C40 29.6 32 30.6 26.4 33.6 M46 36.4 C40 35 32 36 25.4 39 M46 41.8 C40 40.6 32 41.6 26 44.6 M46 47 C40 46 33 47 28 49.6 M50 31 C56 29.6 64 30.6 69.6 33.6 M50 36.4 C56 35 64 36 70.6 39 M50 41.8 C56 40.6 64 41.6 70 44.6 M50 47 C56 46 63 47 68 49.6" stroke="#0d0a12" stroke-width="2.2"/>
      <path d="M46 31 C40 29.6 32 30.6 26.4 33.6 M46 36.4 C40 35 32 36 25.4 39 M46 41.8 C40 40.6 32 41.6 26 44.6 M46 47 C40 46 33 47 28 49.6 M50 31 C56 29.6 64 30.6 69.6 33.6 M50 36.4 C56 35 64 36 70.6 39 M50 41.8 C56 40.6 64 41.6 70 44.6 M50 47 C56 46 63 47 68 49.6" stroke="#79b4a2" stroke-width="1.1"/>
    </g>
    <g stroke="#0d0a12" stroke-width="0.7">
      <rect x="45.2" y="27" width="5.6" height="3.6" rx="1.2" fill="#8fb8a8"/>
      <rect x="45.2" y="31.6" width="5.6" height="3.6" rx="1.2" fill="#96c0ae"/>
      <rect x="45.4" y="46.6" width="5.2" height="3.4" rx="1.2" fill="#96c0ae"/>
    </g>
    <!-- the lantern, swinging on its chain with the turn, flame streaming -->
    <circle cx="49" cy="42" r="11" fill="url(#bxa-glow)"/>
    <path d="M48 33.6 L49.2 36.4" stroke="#0d0a12" stroke-width="1.5"/>
    <path d="M48 33.6 L49.2 36.4" stroke="#7a8395" stroke-width="0.7" stroke-dasharray="0.8 0.6"/>
    <g transform="rotate(-14 49.2 36.6)">
      <ellipse cx="49.2" cy="37" rx="3" ry="1.3" fill="url(#bxa-bone)" stroke="#0d0a12" stroke-width="0.8"/>
      <path d="M49.2 37.4 C52.6 40.4 53.4 43.6 52 45.6 C51 47 47.4 47 46.6 45.6 C45.6 43.6 46.4 40.8 49.2 37.4 Z" fill="url(#bxa-flame)"/>
      <path d="M49.2 40.6 C50.6 42 50.8 43.6 50.2 44.6 C49.8 45.4 48.8 45.4 48.4 44.6 C47.8 43.6 48 42.2 49.2 40.6 Z" fill="#ffffff"/>
      <g fill="none" stroke-linecap="round">
        <path d="M47.6 37.8 C44.4 40 44.2 45.2 47.4 47.6 M50.8 37.8 C54 40 54.2 45.2 51 47.6 M48.6 38 C47.4 40.6 47.4 45.2 48.4 47.8 M49.8 38 C51 40.6 51 45.2 50 47.8" stroke="#0d0a12" stroke-width="1.5"/>
        <path d="M47.6 37.8 C44.4 40 44.2 45.2 47.4 47.6 M50.8 37.8 C54 40 54.2 45.2 51 47.6 M48.6 38 C47.4 40.6 47.4 45.2 48.4 47.8 M49.8 38 C51 40.6 51 45.2 50 47.8" stroke="#d6cdb3" stroke-width="0.7"/>
      </g>
      <path d="M46.2 47.2 Q49.2 46.4 52.2 47.2 L51.6 49.2 Q49.2 50 46.8 49.2 Z" fill="url(#bxa-bone)" stroke="#0d0a12" stroke-width="0.7" stroke-linejoin="round"/>
    </g>
    <!-- soulfire licking out between the ribs -->
    <path d="M52 38.6 C55 37.6 57.4 35.4 58.6 33 M52.4 44.4 C56 44.2 59.4 42.6 61.6 40.4 M44 42 C41 41.4 38.6 39.6 37.4 37.4" fill="none" stroke="#8ff7d6" stroke-width="0.8" stroke-linecap="round" opacity="0.8"/>
    <!-- front ribs -->
    <g fill="none" stroke-linecap="round">
      <path d="M25.4 29.6 C22.6 34 25.6 38.6 31.8 39.2 C36 39.6 39.8 38.4 42 36.6 M25 35.2 C22.6 39.6 25.8 44 31.8 44.6 C36 45 39.8 43.8 42 42 M25.6 40.8 C23.6 45 26.6 49 32.2 49.6 C36.2 50 39.8 48.8 42 47.2 M28 46.4 C26.8 50 29.4 53.2 33.8 53.6 C37.2 53.8 40 52.8 42 51.6" stroke="#0d0a12" stroke-width="3.4"/>
      <path d="M70.6 29.6 C73.4 34 70.4 38.6 64.2 39.2 C60 39.6 56.2 38.4 54 36.6 M71 35.2 C73.4 39.6 70.2 44 64.2 44.6 C60 45 56.2 43.8 54 42 M70.4 40.8 C72.4 45 69.4 49 63.8 49.6 C59.8 50 56.2 48.8 54 47.2 M68 46.4 C69.2 50 66.6 53.2 62.2 53.6 C58.8 53.8 56 52.8 54 51.6" stroke="#0d0a12" stroke-width="3.4"/>
      <path d="M25.4 29.6 C22.6 34 25.6 38.6 31.8 39.2 C36 39.6 39.8 38.4 42 36.6 M25 35.2 C22.6 39.6 25.8 44 31.8 44.6 C36 45 39.8 43.8 42 42 M25.6 40.8 C23.6 45 26.6 49 32.2 49.6 C36.2 50 39.8 48.8 42 47.2 M28 46.4 C26.8 50 29.4 53.2 33.8 53.6 C37.2 53.8 40 52.8 42 51.6" stroke="#d6cdb3" stroke-width="2"/>
      <path d="M70.6 29.6 C73.4 34 70.4 38.6 64.2 39.2 C60 39.6 56.2 38.4 54 36.6 M71 35.2 C73.4 39.6 70.2 44 64.2 44.6 C60 45 56.2 43.8 54 42 M70.4 40.8 C72.4 45 69.4 49 63.8 49.6 C59.8 50 56.2 48.8 54 47.2 M68 46.4 C69.2 50 66.6 53.2 62.2 53.6 C58.8 53.8 56 52.8 54 51.6" stroke="#a89d82" stroke-width="2"/>
      <path d="M24.6 31.8 C23.8 35.6 27 38 31.8 38.4 M24.4 37.4 C23.8 41 27 43.2 31.8 43.8 M25 43 C24.6 46.4 27.6 48.4 32.2 48.8" stroke="#f3ecd9" stroke-width="0.6"/>
      <path d="M35 39.8 C38 39.6 40.4 38.6 41.8 37.6 M35 45.2 C38 45 40.4 44 41.8 43 M35.4 50.2 C38.2 50 40.4 49 41.8 48.2 M61 39.8 C58 39.6 55.6 38.6 54.2 37.6 M61 45.2 C58 45 55.6 44 54.2 43 M60.6 50.2 C57.8 50 55.6 49 54.2 48.2" stroke="#b4fbe4" stroke-width="0.7"/>
    </g>
    <g fill="#cfc5aa" stroke="#0d0a12" stroke-width="0.6">
      <circle cx="42.2" cy="36.4" r="1.1"/><circle cx="42.2" cy="41.8" r="1.1"/><circle cx="42.2" cy="47" r="1.1"/><circle cx="42.2" cy="51.4" r="1"/>
      <circle cx="53.8" cy="36.4" r="1.1" fill="#a89d82"/><circle cx="53.8" cy="41.8" r="1.1" fill="#a89d82"/><circle cx="53.8" cy="47" r="1.1" fill="#a89d82"/><circle cx="53.8" cy="51.4" r="1" fill="#a89d82"/>
    </g>
    <!-- chest plates and sternum -->
    <g stroke="#0d0a12" stroke-width="1.1" stroke-linejoin="round">
      <path d="M24.6 25.6 C30 22.4 37 21.6 44 22.4 L43.4 31.6 C37.6 33.6 31 33.2 25.6 31.4 Z" fill="url(#bxa-steel)"/>
      <path d="M71.4 25.6 C66 22.4 59 21.6 52 22.4 L52.6 31.6 C58.4 33.6 65 33.2 70.4 31.4 Z" fill="url(#bxa-steel-dark)"/>
      <path d="M44.2 22.6 L51.8 22.6 L51 33.2 Q48 35 45 33.2 Z" fill="url(#bxa-bone)"/>
    </g>
    <path d="M26.6 26.4 Q32 23.6 38 23.4" fill="none" stroke="#eef2f8" stroke-width="1" stroke-linecap="round" opacity="0.85"/>
    <path d="M26.2 29.6 Q34 31.8 43 30" fill="none" stroke="#2c303c" stroke-width="0.6"/>
    <path d="M53.4 30 Q62 31.8 69.6 29.6" fill="none" stroke="#1d2029" stroke-width="0.6"/>
    <path d="M45.6 25 L50.4 25 M45.6 27.8 L50.4 27.8 M45.8 30.6 L50.2 30.6" stroke="#6e6452" stroke-width="0.6"/>
    <g fill="#e1e7ef" stroke="#0d0a12" stroke-width="0.3">
      <circle cx="27.4" cy="27" r="0.7"/><circle cx="41.6" cy="24.2" r="0.7"/><circle cx="41.8" cy="30.4" r="0.7"/><circle cx="27.8" cy="30.4" r="0.7"/>
    </g>
    <g fill="#8a93a3" stroke="#0d0a12" stroke-width="0.3">
      <circle cx="68.6" cy="27" r="0.7"/><circle cx="54.4" cy="24.2" r="0.7"/><circle cx="54.2" cy="30.4" r="0.7"/><circle cx="68.2" cy="30.4" r="0.7"/>
    </g>
    <path d="M31 27.8 L35 26.2 L33.6 27.8 L36.4 27.2" fill="none" stroke="#1c1f28" stroke-width="0.7" stroke-linejoin="round"/>
    <path d="M60 24.4 Q61 27 60.4 30 M38.6 28.6 Q39.2 30.6 38.6 32.2" stroke="#8a4b2a" stroke-width="0.7" fill="none" opacity="0.75"/>
    <path d="M57.2 25.6 l1 1.6 l1 -1.6 M58.2 27.2 l0 1.8" fill="none" stroke="#8ff7d6" stroke-width="0.6" stroke-linecap="round"/>

    <!-- the trailing shoulder, dropped back by the twist -->
    <path d="M12.4 22.6 C10.2 17 10.4 11.6 13 7.2 C13.8 11.6 15.4 16.2 17.6 20.8 Z" fill="url(#bxa-bone)" stroke="#0d0a12" stroke-width="0.9" stroke-linejoin="round"/>
    <path d="M19.8 20 C19 15.4 19.8 11.6 22 9 C22 12.6 23 16 24.6 19.4 Z" fill="url(#bxa-bone)" stroke="#0d0a12" stroke-width="0.9" stroke-linejoin="round"/>
    <path d="M6.6 33 C11 38 22 39 30.6 35 L30 38.4 C22 42 11 41 7 36.4 Z" fill="url(#bxa-steel-dark)" stroke="#0d0a12" stroke-width="1" stroke-linejoin="round"/>
    <path d="M6 31.6 C6.4 23 14 18.4 23.4 18.8 C30.6 19.4 34.6 23.6 34 29 C33 33.4 28 35.6 22 36 C15 36.4 9.4 35.6 6 31.6 Z" fill="url(#bxa-steel)" stroke="#0d0a12" stroke-width="1.3" stroke-linejoin="round"/>
    <path d="M8.4 28 Q11 21.6 19 20.6" fill="none" stroke="#f0f4fa" stroke-width="1.2" stroke-linecap="round"/>
    <path d="M7.4 31.4 Q19 35.4 33 30.6" fill="none" stroke="#2c303c" stroke-width="0.7"/>
    <g fill="#e1e7ef" stroke="#0d0a12" stroke-width="0.3">
      <circle cx="9.6" cy="26.4" r="0.7"/><circle cx="16" cy="21.6" r="0.7"/><circle cx="24.6" cy="20.6" r="0.7"/><circle cx="31.6" cy="24.6" r="0.7"/>
    </g>
    <path d="M26 22.6 Q27.6 26 26.6 29.6" stroke="#8a4b2a" stroke-width="0.7" fill="none" opacity="0.7"/>
    <!-- the swinging shoulder, heaved up and round after the arm -->
    <g transform="rotate(-20 64 26)">
      <path d="M83.6 21.6 C85.8 16 85.6 10.6 83 6.2 C82.2 10.6 80.6 15.2 78.4 19.8 Z" fill="url(#bxa-bone-dark)" stroke="#0d0a12" stroke-width="0.9" stroke-linejoin="round"/>
      <path d="M76.2 19 C77 14.4 76.2 10.6 74 8 C74 11.6 73 15 71.4 18.4 Z" fill="url(#bxa-bone)" stroke="#0d0a12" stroke-width="0.9" stroke-linejoin="round"/>
      <path d="M89.4 32 C85 37 74 38 65.4 34 L66 37.4 C74 41 85 40 89 35.4 Z" fill="#3b4150" stroke="#0d0a12" stroke-width="1" stroke-linejoin="round"/>
      <path d="M90 30.6 C89.6 22 82 17.4 72.6 17.8 C65.4 18.4 61.4 22.6 62 28 C63 32.4 68 34.6 74 35 C81 35.4 86.6 34.6 90 30.6 Z" fill="url(#bxa-steel-dark)" stroke="#0d0a12" stroke-width="1.3" stroke-linejoin="round"/>
      <path d="M64.4 24 Q67.6 19.6 74 19.4" fill="none" stroke="#c3cbd8" stroke-width="0.9" stroke-linecap="round"/>
      <path d="M88.6 30.4 Q77 34.4 63 29.6" fill="none" stroke="#1d2029" stroke-width="0.7"/>
      <g fill="#8a93a3" stroke="#0d0a12" stroke-width="0.3">
        <circle cx="86.4" cy="25.4" r="0.7"/><circle cx="80" cy="20.6" r="0.7"/><circle cx="71.4" cy="19.6" r="0.7"/><circle cx="64.4" cy="23.6" r="0.7"/>
      </g>
      <path d="M80 23 Q81.4 26.4 80.6 30" stroke="#8a4b2a" stroke-width="0.7" fill="none" opacity="0.7"/>
    </g>

    <!-- the gorget -->
    <path d="M30.4 21.4 Q48 16.8 65.6 21.4 L66 26 Q48 22 30 26 Z" fill="url(#bxa-steel-dark)" stroke="#0d0a12" stroke-width="1" stroke-linejoin="round"/>
    <path d="M31 23 Q48 18.8 65.2 23" fill="none" stroke="#aab3c2" stroke-width="0.5"/>

    <!-- the helms, turned hard into the blow -->
    <g transform="translate(3 1) rotate(4 48 14)">
      <g transform="translate(39 12.8) rotate(-2) scale(0.74) translate(-48 -21)">
        <!-- plume whipped straight back by the turn -->
        <path d="M48 9.6 Q42 6.4 33 7.4 Q26 8.4 20 10.6 L24.4 11.6 L19.6 14.4 L25.8 14.2 L22.6 17.6 L29.6 15.4 L30.6 18.4 L35.6 14.6 Q41 12.4 45 12.4 Z" fill="#7e1f2e" stroke="#0d0a12" stroke-width="1.3" stroke-linejoin="round"/>
        <path d="M45.5 9.6 Q39 8 31 9.4 M43 11.4 Q36 11 28.6 12.6" fill="none" stroke="#c4425a" stroke-width="0.9"/>
        <path d="M37.5 15.5 Q48 8.5 58.5 15.5 L59 29.5 Q48 33.5 37 29.5 Z" fill="url(#bxa-steel)" stroke="#0d0a12" stroke-width="1.6" stroke-linejoin="round"/>
        <path d="M48 9.8 L48 31.6" stroke="#2a2e3b" stroke-width="1"/>
        <path d="M47.1 10.4 L47.1 18.5" stroke="#f2f5fa" stroke-width="1"/>
        <path d="M39.6 16.4 Q42.5 12.6 46 11.6" fill="none" stroke="#f2f5fa" stroke-width="1.5" stroke-linecap="round" opacity="0.9"/>
        <path d="M56.8 17 L57.2 28.6" stroke="#2a2e3b" stroke-width="1.1"/>
        <ellipse cx="48" cy="21.4" rx="18" ry="7.4" fill="url(#bxa-glow)" opacity="0.95"/>
        <path d="M39.2 20 L56.8 20 L56.6 22.8 L39.4 22.8 Z" fill="#0b0912" stroke="#0d0a12" stroke-width="0.8"/>
        <path d="M40.2 20.6 L46.6 22.2 M49.4 22.2 L55.8 20.6" stroke="#8ff7d6" stroke-width="2" stroke-linecap="round"/>
        <path d="M41 20.8 L46 22 M50 22 L55 20.8" stroke="#ffffff" stroke-width="0.8" stroke-linecap="round"/>
        <circle cx="43.4" cy="21.5" r="1.6" fill="#ffffff"/><circle cx="52.6" cy="21.5" r="1.6" fill="#ffffff"/>
        <path d="M46.9 23.8 L46.9 29.6 M49.1 23.8 L49.1 29.6" stroke="#0b0912" stroke-width="1.4"/>
        <path d="M47.4 24.2 L47.4 27.4 M48.6 24.2 L48.6 27.4" stroke="#5ef0c0" stroke-width="0.6" opacity="0.8"/>
        <path d="M41 25 l0 2.6 M43 25.3 l0 2.6 M53 25.3 l0 2.6 M55 25 l0 2.6" stroke="#262a35" stroke-width="1.1" stroke-linecap="round"/>
        <path d="M38 17.8 Q48 15 58.2 17.8" fill="none" stroke="#3c4250" stroke-width="0.9"/>
        <g fill="#e1e7ef" stroke="#0d0a12" stroke-width="0.4">
          <circle cx="40.2" cy="17.4" r="0.8"/><circle cx="44" cy="16.5" r="0.8"/><circle cx="52" cy="16.5" r="0.8"/><circle cx="55.8" cy="17.4" r="0.8"/>
        </g>
        <rect x="45.8" y="8.2" width="4.4" height="2.8" rx="0.8" fill="#b9873c" stroke="#0d0a12" stroke-width="0.9"/>
      </g>
      <g transform="translate(57.4 12) rotate(7) scale(0.77) translate(-48 -21)">
        <path d="M37.5 15.5 Q48 8.5 58.5 15.5 L59 29.5 Q48 33.5 37 29.5 Z" fill="url(#bxa-steel)" stroke="#0d0a12" stroke-width="1.6" stroke-linejoin="round"/>
        <path d="M48 9.8 L48 31.6" stroke="#2a2e3b" stroke-width="1"/>
        <path d="M47.1 10.4 L47.1 18.5" stroke="#f2f5fa" stroke-width="1"/>
        <path d="M39.6 16.4 Q42.5 12.6 46 11.6" fill="none" stroke="#f2f5fa" stroke-width="1.5" stroke-linecap="round" opacity="0.9"/>
        <path d="M56.8 17 L57.2 28.6" stroke="#2a2e3b" stroke-width="1.1"/>
        <path d="M37.8 18 Q37.4 24 37.8 29" fill="none" stroke="#2a2e3b" stroke-width="0.9"/>
        <ellipse cx="48" cy="21.4" rx="18" ry="7.4" fill="url(#bxa-glow)" opacity="0.95"/>
        <path d="M39.2 20 L56.8 20 L56.6 22.8 L39.4 22.8 Z" fill="#0b0912" stroke="#0d0a12" stroke-width="0.8"/>
        <path d="M40.2 20.6 L46.6 22.2 M49.4 22.2 L55.8 20.6" stroke="#8ff7d6" stroke-width="2" stroke-linecap="round"/>
        <path d="M41 20.8 L46 22 M50 22 L55 20.8" stroke="#ffffff" stroke-width="0.8" stroke-linecap="round"/>
        <circle cx="43.4" cy="21.5" r="1.6" fill="#ffffff"/><circle cx="52.6" cy="21.5" r="1.6" fill="#ffffff"/>
        <path d="M46.9 23.8 L46.9 29.6 M49.1 23.8 L49.1 29.6" stroke="#0b0912" stroke-width="1.4"/>
        <path d="M47.4 24.2 L47.4 27.4 M48.6 24.2 L48.6 27.4" stroke="#5ef0c0" stroke-width="0.6" opacity="0.8"/>
        <path d="M41 25 l0 2.6 M43 25.3 l0 2.6 M53 25.3 l0 2.6 M55 25 l0 2.6" stroke="#262a35" stroke-width="1.1" stroke-linecap="round"/>
        <path d="M38 17.8 Q48 15 58.2 17.8" fill="none" stroke="#3c4250" stroke-width="0.9"/>
        <g fill="#e1e7ef" stroke="#0d0a12" stroke-width="0.4">
          <circle cx="40.2" cy="17.4" r="0.8"/><circle cx="44" cy="16.5" r="0.8"/><circle cx="52" cy="16.5" r="0.8"/><circle cx="55.8" cy="17.4" r="0.8"/>
        </g>
        <path d="M51 11.6 L54.6 14 L52.4 14.4 L54.2 16" fill="none" stroke="#1c1f28" stroke-width="0.9" stroke-linejoin="round"/>
        <path d="M45.8 9.6 L46.6 7.6 L47.6 9 L48.6 7.2 L50.2 9.4 L50.2 10.6 L45.8 10.6 Z" fill="#b9873c" stroke="#0d0a12" stroke-width="0.9" stroke-linejoin="round"/>
        <!-- soulfire streaming back off the visor -->
        <path d="M56.6 20.4 Q61 19 64.6 16 M56.6 21.8 Q61.4 21.6 65.6 19.4" fill="none" stroke="#8ff7d6" stroke-width="1.1" stroke-linecap="round" opacity="0.8"/>
      </g>
      <!-- the chanter's circlet across both brows -->
      <path d="M33.4 9.4 Q48 4.2 62.4 8.6 L62.6 10.6 Q48 6.4 33.6 11.6 Z" fill="url(#bxa-bone)" stroke="#0d0a12" stroke-width="0.8" stroke-linejoin="round"/>
      <g fill="url(#bxa-bone)" stroke="#0d0a12" stroke-width="0.6" stroke-linejoin="round">
        <path d="M38.4 8.4 L38.6 4.8 L40.2 7.8 Z"/><path d="M43.2 7 L44 2.8 L45.4 6.6 Z"/><path d="M51.2 6.4 L52.6 2.6 L53.4 6.8 Z"/><path d="M56.6 7.2 L58.2 4 L58.6 7.8 Z"/>
      </g>
      <circle cx="48" cy="6.4" r="1.8" fill="url(#bxa-bone)" stroke="#0d0a12" stroke-width="0.7"/>
      <circle cx="48" cy="6.4" r="1.1" fill="#8ff7d6"/>
      <circle cx="48" cy="6.4" r="4.4" fill="url(#bxa-glow)" opacity="0.8"/>
    </g>
  </g>

  <!-- ===== the sweep's trail, curving round the front where the fist passed ===== -->
  <g stroke-linejoin="round">
    <path d="M2 42 C6 64 30 79 52 78 C72 77 86 67 93.6 51 L84 50.6 C78 61.6 68 68 52 69.4 C32 70.6 13 62 9.6 42 Z" fill="url(#bxa-trail)"/>
    <path d="M5.6 46.6 C11 64.4 32 75.2 52 74.6 C69 74 82.2 66 89.8 53 L85.6 52 C79 61.6 67 67.8 52 69.4 C34 70.2 17.6 62 11 46.6 Z" fill="url(#bxa-trail-core)"/>
    <path d="M3.8 44.6 C9 66.6 31 77.8 52 77 C70.6 76.2 84.4 67.2 92 52.4" fill="none" stroke="url(#bxa-trail-edge)" stroke-width="1.2" stroke-linecap="round"/>
    <path d="M11 46.6 C17.6 62 34 70.2 52 69.4 C67 67.8 79 61.6 85.6 52" fill="none" stroke="url(#bxa-trail-edge)" stroke-width="0.6" stroke-linecap="round" opacity="0.7"/>
    <!-- speed streaks inside the trail -->
    <path d="M18 63 C26 68.6 36 71 46 71.2 M56 71 C65 70.2 73 67.4 79.6 62.6 M12 56 C15.6 60.4 20 63.6 25 65.6" fill="none" stroke="#ffffff" stroke-width="0.5" stroke-linecap="round" opacity="0.6"/>
    <path d="M30 70 C38 72.4 46 73.2 54 72.8 M66 70.8 C72 69 77.6 66 82.4 61.6" fill="none" stroke="#8ff7d6" stroke-width="0.6" stroke-linecap="round" opacity="0.6"/>
  </g>

  <!-- ===== the swinging arm, flung out to its full reach ===== -->
  <ellipse cx="87.8" cy="45.2" rx="6" ry="4.8" fill="url(#bxa-steel)" stroke="#0d0a12" stroke-width="1.1" transform="rotate(-40 87.8 45.2)"/>
  <path d="M83.2 46.4 Q85 40.8 90.8 40.4" fill="none" stroke="#e1e7ef" stroke-width="0.7"/>
  <circle cx="87.8" cy="45.4" r="1" fill="#2a2e3b"/>
  <path d="M82.2 48.2 L91.6 42.6 L95.4 50.6 L86.2 56 Z" fill="url(#bxa-steel)" stroke="#0d0a12" stroke-width="1.1" stroke-linejoin="round"/>
  <path d="M83.6 49 L87.2 55" stroke="#d8dfe9" stroke-width="0.7"/>
  <path d="M86.4 45.6 L93 47.4" stroke="#2a2e3b" stroke-width="0.6"/>
  <path d="M91 47.6 Q92.4 50 91.6 52.6" stroke="#8a4b2a" stroke-width="0.6" fill="none" opacity="0.7"/>
  <!-- the plated fist, knuckles first -->
  <path d="M80.4 53.8 C83.6 49.6 90.6 47.8 94.4 50 C95.8 54 95.4 58.8 93.2 62 C89 64 84.4 63.8 81.8 61.6 C80 59 79.6 56 80.4 53.8 Z" fill="url(#bxa-steel)" stroke="#0d0a12" stroke-width="1.3" stroke-linejoin="round"/>
  <path d="M84 51.6 Q86.6 56 85.6 62.8 M88.2 50 Q90.8 55 90 62.8" fill="none" stroke="#2a2e3b" stroke-width="0.6"/>
  <path d="M80.8 55.4 Q87.6 54.4 95.2 55 M80.8 58.8 Q87.6 58 95 58.6" fill="none" stroke="#2a2e3b" stroke-width="0.55"/>
  <path d="M81.6 53.4 Q85 50.4 90 49.6" fill="none" stroke="#eef2f8" stroke-width="0.9" stroke-linecap="round"/>
  <g fill="#c9d1dd" stroke="#0d0a12" stroke-width="0.35">
    <circle cx="82.4" cy="56.6" r="0.65"/><circle cx="86.4" cy="53.4" r="0.65"/><circle cx="90.6" cy="51.8" r="0.65"/>
  </g>
  <path d="M82.4 61 Q80.6 64.4 83.2 65.6 Q85.6 65.2 85.8 62.6" fill="url(#bxa-steel-dark)" stroke="#0d0a12" stroke-width="0.8" stroke-linejoin="round"/>

  <!-- the strike: a burst of light and bone chips off the knuckles -->
  <circle cx="93.4" cy="55" r="4.4" fill="url(#bxa-spark)" opacity="0.9"/>
  <path d="M93.4 50 L93.4 60 M88.4 55 L95.8 55" stroke="#ffffff" stroke-width="0.5" stroke-linecap="round" opacity="0.85"/>
  <g fill="#e6ddc5" stroke="#0d0a12" stroke-width="0.4" stroke-linejoin="round">
    <path d="M90.4 45 l1.6 -0.8 l0.2 1.4 Z"/><path d="M94 46.4 l1.2 0.4 l-0.8 1 Z"/><path d="M91.6 63.4 l1.6 0.2 l-0.8 1.2 Z"/><path d="M88 64.8 l1.2 -0.4 l0 1.2 Z"/>
  </g>
  <circle cx="95" cy="61" r="0.5" fill="#8ff7d6"/><circle cx="89.6" cy="47.2" r="0.45" fill="#d8fff0"/>

  <!-- soulfire embers thrown off by the turn -->
  <g fill="#8ff7d6">
    <circle cx="70.6" cy="9" r="0.8" opacity="0.9"/><circle cx="74" cy="6" r="0.6" opacity="0.75"/><circle cx="66" cy="4.4" r="0.5" opacity="0.7"/>
    <circle cx="24" cy="14" r="0.55" opacity="0.6"/><circle cx="58" cy="35" r="0.5" opacity="0.8"/><circle cx="60.6" cy="31" r="0.4" opacity="0.6"/>
  </g>
</svg>
