<svg xmlns="http://www.w3.org/2000/svg" viewBox="0 0 96 96" width="96" height="96">
  <!-- Clockwork Titan, destroyed: toppled onto its back at the anchor. The glass chest shattered and its gears spilled across the grit, the arcane core cracked and nearly dark, the wind-up key snapped off at the shaft and flung clear, the porcelain mask cracked across, and one last puff of steam from a shoulder vent. Lit from the upper left. -->
  <defs>
    <linearGradient id="ctd-iron" x1="0" y1="0" x2="1" y2="1"><stop offset="0" stop-color="#c4bcb0"/><stop offset="0.45" stop-color="#7f766d"/><stop offset="1" stop-color="#3b3335"/></linearGradient>
    <linearGradient id="ctd-irondk" x1="0" y1="0" x2="1" y2="1"><stop offset="0" stop-color="#968b81"/><stop offset="1" stop-color="#2c2527"/></linearGradient>
    <linearGradient id="ctd-plate" x1="0" y1="0" x2="1" y2="1"><stop offset="0" stop-color="#b0a08f"/><stop offset="0.45" stop-color="#6e6058"/><stop offset="1" stop-color="#33292b"/></linearGradient>
    <linearGradient id="ctd-platedk" x1="0" y1="0" x2="1" y2="1"><stop offset="0" stop-color="#857568"/><stop offset="1" stop-color="#271f21"/></linearGradient>
    <linearGradient id="ctd-brass" x1="0" y1="0" x2="1" y2="1"><stop offset="0" stop-color="#fbe5a2"/><stop offset="0.45" stop-color="#d09c48"/><stop offset="1" stop-color="#76491a"/></linearGradient>
    <linearGradient id="ctd-brass-dark" x1="0" y1="0" x2="1" y2="1"><stop offset="0" stop-color="#d2a356"/><stop offset="1" stop-color="#5a3812"/></linearGradient>
    <linearGradient id="ctd-copper" x1="0" y1="0" x2="1" y2="1"><stop offset="0" stop-color="#f2ae80"/><stop offset="0.5" stop-color="#b9673b"/><stop offset="1" stop-color="#5c2a15"/></linearGradient>
    <linearGradient id="ctd-steel" x1="0" y1="0" x2="1" y2="0"><stop offset="0" stop-color="#f4f6fa"/><stop offset="0.45" stop-color="#b8c0cc"/><stop offset="0.55" stop-color="#6a7282"/><stop offset="1" stop-color="#3a404e"/></linearGradient>
    <linearGradient id="ctd-anvil" x1="0" y1="0" x2="1" y2="1"><stop offset="0" stop-color="#a8a29c"/><stop offset="0.5" stop-color="#56504e"/><stop offset="1" stop-color="#1e1a1c"/></linearGradient>
    <linearGradient id="ctd-porcelain" x1="0" y1="0" x2="1" y2="1"><stop offset="0" stop-color="#fffbf3"/><stop offset="0.55" stop-color="#ebe0d0"/><stop offset="1" stop-color="#b7a697"/></linearGradient>
    <radialGradient id="ctd-haze" cx="0.5" cy="0.5" r="0.5"><stop offset="0" stop-color="#a98bff" stop-opacity="0.55"/><stop offset="1" stop-color="#a98bff" stop-opacity="0"/></radialGradient>
    <radialGradient id="ctd-steam" cx="0.5" cy="0.5" r="0.5"><stop offset="0" stop-color="#f4f6fa" stop-opacity="0.8"/><stop offset="0.5" stop-color="#d6dce4" stop-opacity="0.42"/><stop offset="1" stop-color="#d6dce4" stop-opacity="0"/></radialGradient>
    <radialGradient id="ctd-pool" cx="0.5" cy="0.5" r="0.5"><stop offset="0" stop-color="#4a4248"/><stop offset="0.7" stop-color="#2e282e"/><stop offset="1" stop-color="#1e1a20"/></radialGradient>
    <radialGradient id="ctd-glass-dead" cx="0.38" cy="0.32" r="0.7"><stop offset="0" stop-color="#2e2440"/><stop offset="1" stop-color="#0e0a16"/></radialGradient>
  </defs>
  <!-- a bed of grit and broken flagstones under the wreck -->
  <path d="M3 83 Q4 73.6 17 71 Q33 67.6 52 68 Q72 67.4 84 70 Q94 73 94 81 Q93.4 89.6 82 91.6 Q62 94.4 44 94 Q22 94.4 10.6 91.6 Q2.6 89.4 3 83 Z" fill="url(#ctd-pool)" stroke="#0d0a12" stroke-width="0.8" stroke-linejoin="round"/>
  <path d="M8 85 Q12 77 24 74 M74 72.6 Q86 74 90 79 M60 92.6 L66 91 L72 92.8" fill="none" stroke="#4a4248" stroke-width="0.6"/>

  <!-- ===== the key, snapped off at the shaft and flung clear ===== -->
  <g transform="translate(79 50.6) rotate(-14)">
    <path d="M-12.6 0 L-3 0" stroke="#0d0a12" stroke-width="4.6" stroke-linecap="round"/>
    <path d="M-12.6 0 L-3 0" stroke="url(#ctd-brass)" stroke-width="2.9"/>
    <path d="M-12.4 -0.8 L-3.4 -0.8" stroke="#fff1c4" stroke-width="0.6"/>
    <path d="M-13.8 -2.2 L-12.4 -0.8 L-14 0.4 L-12.6 1.2 L-13.6 2.2" fill="url(#ctd-brass-dark)" stroke="#0d0a12" stroke-width="0.6" stroke-linejoin="round"/>
    <g transform="translate(-3 0) scale(0.78)">
      <path d="M0 0 C1.6 -1.8 0.2 -9 5.2 -9.6 C10.6 -10.2 11.8 -4.2 7.4 -1.2 L7.4 1.2 C11.8 4.2 10.6 10.2 5.2 9.6 C0.2 9 1.6 1.8 0 0 Z" fill="url(#ctd-brass)" stroke="#0d0a12" stroke-width="1.2" stroke-linejoin="round"/>
      <ellipse cx="5.6" cy="-5.2" rx="2.1" ry="2.3" fill="#2a1a10" stroke="#5a3812" stroke-width="0.5"/>
      <ellipse cx="5.6" cy="5.2" rx="2.1" ry="2.3" fill="#2a1a10" stroke="#5a3812" stroke-width="0.5"/>
      <path d="M1.6 -3 C1.4 -7 3 -8.6 5.6 -8.7 C8.4 -8.8 10 -7 9.6 -4.6" fill="none" stroke="#fff1c4" stroke-width="0.7" stroke-linecap="round"/>
      <circle cx="2.6" cy="0" r="1.8" fill="#c99a4a" stroke="#0d0a12" stroke-width="0.55"/>
    </g>
  </g>
  <!-- the broken stub of its shaft, still jammed in the back, poking out from under the body -->
  <path d="M56.4 62.4 L59.6 56.6" stroke="#0d0a12" stroke-width="4" stroke-linecap="round"/>
  <path d="M56.4 62.4 L59.6 56.6" stroke="url(#ctd-brass-dark)" stroke-width="2.4"/>
  <path d="M58.2 56.4 L59.4 55.4 L60 56.8 L61.2 56.2 L60.6 57.8" fill="url(#ctd-brass-dark)" stroke="#0d0a12" stroke-width="0.5" stroke-linejoin="round"/>

  <!-- ===== the far arm, flung back past the shoulder, its anvil upturned ===== -->
  <g transform="translate(27 61.6) rotate(-30) matrix(0 0.5 0.5 0 0 0) translate(-82 -35)">
  <!-- upper arm: a riveted iron drum with a filigreed brass band -->
  <path d="M74.8 32 L89.2 32 L88.2 45 L75.8 45 Z" fill="url(#ctd-irondk)" stroke="#0d0a12" stroke-width="1.1" stroke-linejoin="round"/>
  <path d="M76.2 33 L77 44" stroke="#a59d93" stroke-width="0.9" stroke-linecap="round" opacity="0.85"/>
  <path d="M87.8 33 L87 44" stroke="#241d20" stroke-width="0.7"/>
  <path d="M75 37 L89 37 L88.7 40.2 L75.3 40.2 Z" fill="url(#ctd-brass-dark)" stroke="#0d0a12" stroke-width="0.7" stroke-linejoin="round"/>
  <path d="M76.6 39.2 C77.3 38.3 78.6 38.2 78.9 39.1 C79.1 39.9 78.3 40.3 77.8 39.8 C77.5 39.4 77.9 38.9 78.2 39.1 M78.9 39.1 C79.5 38.4 80.3 38.5 80.8 39.2 M87.4 39.2 C86.7 38.3 85.4 38.2 85.1 39.1 C84.9 39.9 85.8 40.3 86.2 39.8 C86.5 39.4 86.1 38.9 85.8 39.1 M85.1 39.1 C84.5 38.4 83.7 38.5 83.2 39.2" fill="none" stroke="#5a3812" stroke-width="0.4" stroke-linecap="round" opacity="0.9"/>
  <g fill="#9a8f86" stroke="#0d0a12" stroke-width="0.3"><circle cx="77" cy="34.6" r="0.6"/><circle cx="82" cy="34.4" r="0.6"/><circle cx="87" cy="34.6" r="0.6"/><circle cx="77.2" cy="42.6" r="0.6"/><circle cx="86.8" cy="42.6" r="0.6"/></g>
  <path d="M86.5 46.7 87.6 47.1 87.3 48.2 86.2 48.1 85.4 49.3 86.1 50.3 85.3 51 84.4 50.2 83.1 50.7 83 51.9 82 52 81.7 50.9 80.3 50.6 79.6 51.5 78.7 50.9 79.1 49.8 78.2 48.8 77.1 49.1 76.7 48.1 77.7 47.5 77.5 46.1 76.4 45.7 76.7 44.6 77.8 44.7 78.6 43.5 77.9 42.5 78.7 41.8 79.6 42.6 80.9 42.1 81 40.9 82 40.8 82.3 41.9 83.7 42.2 84.4 41.3 85.3 41.9 84.9 43 85.8 44 86.9 43.7 87.3 44.7 86.3 45.3Z" fill="url(#ctd-brass-dark)" stroke="#0d0a12" stroke-width="0.4" stroke-linejoin="round"/><circle cx="83.5" cy="48.8" r="1" fill="#1a1012" stroke="#0d0a12" stroke-width="0.25"/><circle cx="79.6" cy="47.9" r="1" fill="#1a1012" stroke="#0d0a12" stroke-width="0.25"/><circle cx="80.5" cy="44" r="1" fill="#1a1012" stroke="#0d0a12" stroke-width="0.25"/><circle cx="84.4" cy="44.9" r="1" fill="#1a1012" stroke="#0d0a12" stroke-width="0.25"/><circle cx="82" cy="46.4" r="3.7" fill="none" stroke="#0d0a12" stroke-width="0.3" opacity="0.55"/><circle cx="82" cy="46.4" r="1.6" fill="#3a2418" stroke="#0d0a12" stroke-width="0.3"/><circle cx="81.5" cy="45.9" r="0.6" fill="#e0b45a"/><path d="M78.2 45 A4 4 0 0 1 80.6 42.6" fill="none" stroke="#e0b45a" stroke-width="0.4" stroke-linecap="round" opacity="0.85"/>
  <!-- forearm: an iron sleeve at the elbow, the gauntlet below, driven by a ram and two side pistons -->
  
  <path d="M75.2 49 L88.8 49 L88.6 54.2 L75.4 54.2 Z" fill="url(#ctd-irondk)" stroke="#0d0a12" stroke-width="0.9" stroke-linejoin="round"/>
  <path d="M75.4 52.8 L88.6 52.8" stroke="#e0b45a" stroke-width="0.7"/>
  <path d="M74.8 54 L89.2 54 L90.6 63.4 L73.4 63.4 Z" fill="url(#ctd-irondk)" stroke="#0d0a12" stroke-width="1.1" stroke-linejoin="round"/>
  <path d="M75.6 55 L74.4 62.6" stroke="#a59d93" stroke-width="0.8" stroke-linecap="round" opacity="0.85"/>
  <path d="M74.4 58.6 L89.6 58.6" stroke="#3a3134" stroke-width="0.6"/>
  <path d="M78.8 57.4 C79.4 56.6 80.6 56.5 80.9 57.3 C81.1 58 80.3 58.4 79.9 57.9 C79.6 57.6 80 57.2 80.3 57.3 M80.9 57.3 C81.4 56.7 82.2 56.8 82.6 57.4 M85.2 57.4 C84.6 56.6 83.4 56.5 83.1 57.3 C82.9 58 83.7 58.4 84.1 57.9 C84.4 57.6 84.1 57.2 83.8 57.3 M83.1 57.3 C82.6 56.7 81.8 56.8 81.4 57.4" fill="none" stroke="#1d1618" stroke-width="0.4" stroke-linecap="round" opacity="0.9"/>
  <g fill="#9a8f86" stroke="#0d0a12" stroke-width="0.3"><circle cx="76.4" cy="55.6" r="0.6"/><circle cx="87.6" cy="55.6" r="0.6"/><circle cx="75.4" cy="61.2" r="0.6"/><circle cx="82" cy="61.2" r="0.6"/><circle cx="88.6" cy="61.2" r="0.6"/></g>
  <path d="M90.5 53 L91.9 53 L91.9 57.6 L90.5 57.6 Z" fill="url(#ctd-steel)" stroke="#0d0a12" stroke-width="0.45"/>
  <path d="M89.6 48 L92.8 48 L92.7 53.6 L89.7 53.6 Z" fill="url(#ctd-brass)" stroke="#0d0a12" stroke-width="0.6" stroke-linejoin="round"/>
  <path d="M90.3 48.6 L90.3 53" stroke="#fff1c4" stroke-width="0.35"/>
  <path d="M72.1 53 L73.5 53 L73.5 57.6 L72.1 57.6 Z" fill="url(#ctd-steel)" stroke="#0d0a12" stroke-width="0.45"/>
  <path d="M71.2 48 L74.4 48 L74.3 53.6 L71.3 53.6 Z" fill="url(#ctd-brass)" stroke="#0d0a12" stroke-width="0.6" stroke-linejoin="round"/>
  <path d="M71.9 48.6 L71.9 53" stroke="#fff1c4" stroke-width="0.35"/>
  <path d="M72.2 63.4 L91.8 63.4 L91.4 66 L72.6 66 Z" fill="url(#ctd-brass-dark)" stroke="#0d0a12" stroke-width="0.8" stroke-linejoin="round"/>
  <path d="M73 64.1 L91 64.1" stroke="#fff1c4" stroke-width="0.4" opacity="0.8"/>
  <path d="M70 78.8 L70 75.4 L72.4 75.4 L72.4 73.4 Q76 72.4 75.4 69.4 L72.6 68.6 L72.6 66 L90.4 66 L90.4 68.6 L87 69.4 Q86.4 72.2 88.4 73.4 Q92.8 74 95.4 76.4 Q92.2 78.2 88 78.8 Z" fill="url(#ctd-anvil)" stroke="#0d0a12" stroke-width="1.1" stroke-linejoin="round"/>
  <path d="M73 68.6 L90 68.6" stroke="#0d0a12" stroke-width="0.6"/>
  <path d="M73.4 66.8 L89.6 66.8 M70.8 76.2 L72.4 76.2" stroke="#a8a29c" stroke-width="0.6" stroke-linecap="round"/>
  <path d="M76.6 66.2 L76.6 68.4 M80.4 66.2 L80.4 68.4 M84.2 66.2 L84.2 68.4 M87.6 66.2 L87.6 68.4" stroke="#241d20" stroke-width="0.5"/>
  <path d="M73 74.4 L87.8 74.4" stroke="#a8a29c" stroke-width="0.5" stroke-linecap="round" opacity="0.8"/>
  <path d="M88.8 74.4 Q92 74.8 94.2 76.2" fill="none" stroke="#a8a29c" stroke-width="0.5" stroke-linecap="round"/>
  <path d="M70.8 78 L87.8 78" stroke="#eef1f6" stroke-width="0.8" stroke-linecap="round" opacity="0.9"/>
  <rect x="74.4" y="75.2" width="1.6" height="1.6" fill="#140f12"/>
  <circle cx="77.6" cy="76" r="0.65" fill="#140f12"/>
  <path d="M76.6 70 Q77.2 71.8 75.6 73" fill="none" stroke="#a8a29c" stroke-width="0.4" opacity="0.7"/>
  </g>

  <!-- ===== the far pauldron, its vent still breathing ===== -->
  <path d="M14.4 62.6 C13.6 56.6 18.6 52.6 25 52.4 C30.6 52.4 34.4 55.6 34.6 60 L34 63 C29 61 21 61 15.6 64.2 Z" fill="url(#ctd-platedk)" stroke="#0d0a12" stroke-width="1.1" stroke-linejoin="round"/>
  <path d="M16.6 58.6 Q19 54.4 24.6 53.8" fill="none" stroke="#b0a08f" stroke-width="0.7" stroke-linecap="round"/>
  <path d="M15.6 64.2 C21 61 29 61 34 63 L34 65 C29 63.4 21.2 63.6 16.2 66.4 Z" fill="url(#ctd-brass-dark)" stroke="#0d0a12" stroke-width="0.8" stroke-linejoin="round"/>
  <g transform="translate(22.6 46.6) rotate(-18) translate(-85 -14.4)">
  <path d="M82 21.4 L82.4 14.4 L87.6 14.4 L88 21.4 Z" fill="url(#ctd-brass-dark)" stroke="#0d0a12" stroke-width="0.9" stroke-linejoin="round"/>
  <path d="M83.2 16.4 L86.8 16.4 M83.1 18 L86.9 18 M83 19.6 L87 19.6" stroke="#3a2309" stroke-width="0.6"/>
  <path d="M82.9 15.4 L82.6 20.8" stroke="#e0b45a" stroke-width="0.5"/>
  <ellipse cx="85" cy="14.4" rx="3.1" ry="1.1" fill="url(#ctd-brass)" stroke="#0d0a12" stroke-width="0.8"/>
  <ellipse cx="85" cy="14.4" rx="2" ry="0.55" fill="#1a1012"/>
  </g>

  <!-- ===== legs, stretched out to the right, boots toes-up ===== -->
  <path d="M64.6 61.6 L77 61.2 L77.4 70.6 L65 71 Z M80.6 59 Q80.8 56.8 83.2 56.6 L88 56.8 Q91.4 57.6 91.4 61.2 L91.6 72.4 Q91 74 88.4 74 L82.6 74 Q80.6 73.6 80.6 71.6 Z" fill="url(#ctd-irondk)" stroke="#0d0a12" stroke-width="1" stroke-linejoin="round"/>
  <path d="M80.8 59 Q80.8 56.8 83.2 56.6 L88 56.8 Q91.4 57.6 91.4 61.2 L91.4 62.4 L80.8 62.4 Z" fill="url(#ctd-brass-dark)" stroke="#0d0a12" stroke-width="0.8" stroke-linejoin="round"/>
  <path d="M90.4 58 L92.6 58.8 L92.6 73.2 L90.4 74 Z" fill="#1a1416" stroke="#0d0a12" stroke-width="0.5"/>
  <path d="M81.6 65.5 82.4 65.6 82.4 66.4 81.6 66.5 81.3 67.4 81.8 68 81.3 68.6 80.7 68.2 79.8 68.7 79.8 69.5 79.1 69.6 78.8 68.9 77.8 68.7 77.3 69.3 76.7 68.9 76.9 68.2 76.3 67.4 75.6 67.6 75.3 66.9 76 66.5 76 65.5 75.3 65.1 75.6 64.4 76.3 64.6 76.9 63.8 76.7 63.1 77.3 62.7 77.8 63.3 78.8 63.1 79.1 62.4 79.8 62.5 79.8 63.3 80.7 63.8 81.3 63.4 81.8 64 81.3 64.6Z" fill="url(#ctd-brass-dark)" stroke="#0d0a12" stroke-width="0.4" stroke-linejoin="round"/><circle cx="78.8" cy="66" r="1" fill="#3a2418" stroke="#0d0a12" stroke-width="0.3"/><circle cx="78.5" cy="65.7" r="0.4" fill="#e0b45a"/><path d="M76.4 65.1 A2.6 2.6 0 0 1 77.9 63.6" fill="none" stroke="#e0b45a" stroke-width="0.3" stroke-linecap="round" opacity="0.85"/>
  <path d="M64.6 74.2 L77.2 73.8 L77.6 84 L65 84.4 Z" fill="url(#ctd-iron)" stroke="#0d0a12" stroke-width="1" stroke-linejoin="round"/>
  <path d="M65.6 75.6 L76.4 75.2" stroke="#f4eee4" stroke-width="0.6" opacity="0.8"/>
  <path d="M80.8 72.4 Q81 70.2 83.4 70 L88.6 70.2 Q92 71 92 74.6 L92.2 87 Q91.6 88.6 89 88.6 L83 88.6 Q80.8 88.2 80.8 86.2 Z" fill="url(#ctd-iron)" stroke="#0d0a12" stroke-width="1" stroke-linejoin="round"/>
  <path d="M81 72.4 Q81 70.2 83.4 70 L88.6 70.2 Q92 71 92 74.6 L92 75.8 L81 75.8 Z" fill="url(#ctd-brass)" stroke="#0d0a12" stroke-width="0.8" stroke-linejoin="round"/>
  <path d="M82.4 71.6 Q85 70.8 88.4 71.2" fill="none" stroke="#fff1c4" stroke-width="0.5"/>
  <path d="M91 71.4 L93.2 72.2 L93.2 87.8 L91 88.6 Z" fill="#1a1416" stroke="#0d0a12" stroke-width="0.5"/>
  <path d="M82 77.4 L82.2 86.4" stroke="#f4eee4" stroke-width="0.6" opacity="0.8"/>
  <g fill="#efe8dc" stroke="#0d0a12" stroke-width="0.3"><circle cx="84" cy="78.6" r="0.5"/><circle cx="84" cy="82.4" r="0.5"/><circle cx="84" cy="86" r="0.5"/><circle cx="83.6" cy="64.6" r="0.5"/><circle cx="83.6" cy="68.4" r="0.5"/></g>
  <path d="M82 78.7 82.8 78.8 82.8 79.6 82 79.7 81.6 80.7 82.2 81.3 81.6 81.9 81 81.5 80 82.1 80 82.9 79.3 83 79 82.2 78 82.1 77.5 82.7 76.8 82.3 77 81.5 76.4 80.7 75.6 80.9 75.3 80.1 76 79.7 76 78.7 75.3 78.3 75.6 77.5 76.4 77.7 77 76.9 76.8 76.1 77.5 75.7 78 76.3 79 76.2 79.3 75.4 80 75.5 80 76.3 81 76.9 81.6 76.5 82.2 77.1 81.6 77.7Z" fill="url(#ctd-brass)" stroke="#0d0a12" stroke-width="0.4" stroke-linejoin="round"/><circle cx="79" cy="79.2" r="1.1" fill="#3a2418" stroke="#0d0a12" stroke-width="0.3"/><circle cx="78.7" cy="78.9" r="0.4" fill="#fff1c4"/><path d="M76.4 78.3 A2.7 2.7 0 0 1 78.1 76.6" fill="none" stroke="#fff1c4" stroke-width="0.3" stroke-linecap="round" opacity="0.85"/>

  <!-- ===== the body, flat on its back: neck to the left, hips to the right ===== -->
  <path d="M20.6 67 Q21.2 61 29.6 60.6 L56 60.6 Q64.4 61.2 65 67.2 L65.2 79.6 Q64.6 85.2 56 85.6 L29.6 86 Q21.2 85.6 20.6 80 Z" fill="url(#ctd-iron)" stroke="#0d0a12" stroke-width="1.3" stroke-linejoin="round"/>
  <!-- the far and near chest plates, foreshortened along the flanks, rimmed in brass -->
  <g stroke="#0d0a12" stroke-linejoin="round"><path d="M22.4 66.4 Q23 62.4 29.6 62.2 L55.6 62.2 Q62 62.6 63 66.4 Z" fill="url(#ctd-platedk)" stroke-width="0.9"/>
  <path d="M22.4 80.2 L63.2 80 Q62.4 83.8 55.8 84 L29.8 84.4 Q23.4 84 22.4 80.2 Z" fill="url(#ctd-plate)" stroke-width="0.9"/>
  <path d="M22.4 66.4 L63 66.4 L63 67.8 L22.4 67.8 Z M22.4 78.8 L63.2 78.6 L63.2 80 L22.4 80.2 Z" fill="url(#ctd-brass)" stroke-width="0.6"/></g>
  <path d="M23.6 63.6 Q25 62.8 29.6 62.8 L44 62.8" fill="none" stroke="#c9b8a6" stroke-width="0.6" stroke-linecap="round"/>
  <g fill="#9a8f86" stroke="#0d0a12" stroke-width="0.3"><circle cx="26" cy="64.6" r="0.5"/><circle cx="32" cy="64" r="0.5"/><circle cx="38" cy="63.8" r="0.5"/><circle cx="50" cy="63.8" r="0.5"/><circle cx="56" cy="64" r="0.5"/></g><g fill="#efe8dc" stroke="#0d0a12" stroke-width="0.3"><circle cx="26" cy="82.4" r="0.5"/><circle cx="32" cy="82.6" r="0.5"/><circle cx="38" cy="82.8" r="0.5"/><circle cx="50" cy="82.8" r="0.5"/><circle cx="56" cy="82.6" r="0.5"/></g>
  <path d="M25.4 72.4 C24 71.4 24 69.5 25.2 69 C26.4 68.7 27 70 26.2 70.6 C25.6 71 25 70.6 25.2 70.1 M25.2 69 C24.3 68.2 24.4 67 25.4 66.3 M57.6 72.4 C56.2 73.4 56.2 75.3 57.4 75.8 C58.6 76.1 59.2 74.8 58.4 74.2 C57.8 73.8 57.2 74.2 57.4 74.7 M57.4 75.8 C56.5 76.6 56.6 77.8 57.6 78.5" fill="none" stroke="#3a3134" stroke-width="0.4" stroke-linecap="round" opacity="0.9"/>
  <!-- a dent and rust where it struck the ground -->
  <path d="M53 70 Q55 72 54.4 75" fill="none" stroke="#1c1618" stroke-width="0.6"/>
  <path d="M28.8 69.6 Q29.4 72 28.6 74.6" fill="none" stroke="#9a5230" stroke-width="0.6" opacity="0.7"/>
  <!-- the chest window: glass shattered, the wheels spilled, the core gone dim and cracked -->
  <ellipse cx="40" cy="73" rx="11" ry="7.4" fill="url(#ctd-brass)" stroke="#0d0a12" stroke-width="1.1"/>
  <ellipse cx="40" cy="73" rx="8.8" ry="5.8" fill="url(#ctd-glass-dead)" stroke="#0d0a12" stroke-width="0.7"/>
  <path d="M38.9 75.8 39.5 76.2 39.2 76.8 38.5 76.5 37.9 77.1 38.1 77.8 37.5 78 37.1 77.4 36.3 77.5 36 78.2 35.4 78 35.4 77.3 34.7 76.9 34.1 77.3 33.7 76.8 34.1 76.3 33.8 75.5 33.1 75.5 33 74.8 33.7 74.7 33.9 73.8 33.3 73.4 33.6 72.8 34.3 73.1 34.9 72.5 34.7 71.8 35.3 71.6 35.7 72.2 36.5 72.1 36.8 71.4 37.4 71.6 37.4 72.3 38.1 72.7 38.7 72.3 39.1 72.8 38.7 73.3 39 74.1 39.7 74.1 39.8 74.8 39.1 74.9Z" fill="url(#ctd-copper)" stroke="#0d0a12" stroke-width="0.4" stroke-linejoin="round"/><circle cx="36.4" cy="74.8" r="1" fill="#3a2418" stroke="#0d0a12" stroke-width="0.3"/><circle cx="36.1" cy="74.5" r="0.4" fill="#ffd2ad"/><path d="M34.1 74 A2.4 2.4 0 0 1 35.6 72.5" fill="none" stroke="#ffd2ad" stroke-width="0.3" stroke-linecap="round" opacity="0.85"/>
  <path d="M45 70.2 L46.6 69 M44.4 70.8 L42.6 70.2" stroke="#8a8094" stroke-width="0.6" stroke-linecap="round"/>
  <circle cx="44.8" cy="70.6" r="0.8" fill="#3a2a2e" stroke="#0d0a12" stroke-width="0.3"/>
  <circle cx="42" cy="72.8" r="3.4" fill="url(#ctd-haze)" opacity="0.55"/>
  <path d="M42 69.6 L43.8 72.8 L42.2 76 L40.4 72.8 Z" fill="#5a4a7a" stroke="#1a1030" stroke-width="0.45" stroke-linejoin="round"/>
  <path d="M42 69.6 L41.6 72 L42.8 73.2 L42.2 76" fill="none" stroke="#0d0a12" stroke-width="0.4"/>
  <circle cx="41.4" cy="71.2" r="0.35" fill="#c9b6ff" opacity="0.8"/>
  <!-- jagged glass still caught in the bezel -->
  <g fill="#cfc4ee" fill-opacity="0.55" stroke="#ffffff" stroke-width="0.3" stroke-linejoin="round">
    <path d="M31.4 70.6 L34.2 71.2 L32 73 Z M34.2 68.2 L37.8 67.8 L35.8 70 Z M45.8 68.4 L48.6 70.8 L45.6 70.4 Z M48.2 75.6 L46.8 78 L46 76.4 Z M32.6 77 L35.2 78.4 L33 79 Z"/>
  </g>
  <g fill="#fff1c4" stroke="#0d0a12" stroke-width="0.3"><circle cx="48.7" cy="74.9" r="0.5"/><circle cx="45.3" cy="77.9" r="0.5"/><circle cx="40" cy="79" r="0.5"/><circle cx="34.7" cy="77.9" r="0.5"/><circle cx="31.3" cy="74.9" r="0.5"/><circle cx="31.3" cy="71.1" r="0.5"/><circle cx="34.7" cy="68.1" r="0.5"/><circle cx="40" cy="67" r="0.5"/><circle cx="45.3" cy="68.1" r="0.5"/><circle cx="48.7" cy="71.1" r="0.5"/></g>
  <!-- girdle across the hips -->
  <path d="M58.8 61.4 Q61.8 73.2 58.8 85 L62.4 84.8 Q65.2 73.2 62.4 61.6 Z" fill="url(#ctd-brass)" stroke="#0d0a12" stroke-width="0.9" stroke-linejoin="round"/>
  <g fill="#fff1c4" stroke="#0d0a12" stroke-width="0.3"><circle cx="60.6" cy="64.6" r="0.5"/><circle cx="61.4" cy="69.8" r="0.5"/><circle cx="61.6" cy="75" r="0.5"/><circle cx="61.4" cy="80" r="0.5"/><circle cx="60.6" cy="83.4" r="0.5"/></g>
  <!-- the gorget at the neck -->
  <path d="M20.4 65.4 Q17.6 73.2 20.4 81.4 L23.4 81 Q21 73.2 23.4 65.8 Z" fill="url(#ctd-irondk)" stroke="#0d0a12" stroke-width="0.9" stroke-linejoin="round"/>

  <!-- ===== the helm, lolled onto its side, the porcelain mask cracked across ===== -->
  <g transform="translate(11.6 73.2) rotate(-64) scale(0.82) translate(-49.6 -17)">
  <!-- ===== the helm, sunk between the shoulders, a porcelain page-mask set in its face ===== -->
  <path d="M37.6 23.4 Q49.6 20 61.6 23.4 L62.2 29.6 Q49.6 33 37 29.6 Z" fill="url(#ctd-irondk)" stroke="#0d0a12" stroke-width="1" stroke-linejoin="round"/>
  <path d="M37.4 28.4 Q49.6 31.6 62 28.4" fill="none" stroke="#e0b45a" stroke-width="0.6"/>
  <path d="M37.2 22.6 C36 12.4 41.6 4.4 49.6 4.2 C57.8 4.2 63 11.2 62.2 21.6 L61.6 26.6 Q49.6 29.8 37.8 26.8 Z" fill="url(#ctd-brass)" stroke="#0d0a12" stroke-width="1.2" stroke-linejoin="round"/>
  <path d="M39.4 15 Q40.6 8 46.6 5.6" fill="none" stroke="#fff1c4" stroke-width="1" stroke-linecap="round" opacity="0.95"/>
  <path d="M60.8 12 Q62 18 61 24" fill="none" stroke="#5a3812" stroke-width="0.7"/>
  <path d="M41.4 11.6 C41 10.2 42.1 8.9 43.2 9.3 C44.1 9.7 43.8 10.9 42.9 10.9 C42.3 10.8 42.2 10.1 42.6 10 M43.2 9.3 C43 8.2 43.8 7.4 44.8 7.5 M56.6 9.6 C56.7 8.3 55.6 7.2 54.6 7.7 C53.8 8.3 54.3 9.3 55.1 9.2 C55.6 9 55.7 8.4 55.2 8.3 M54.6 7.7 C54.6 6.7 53.7 6.2 52.8 6.4" fill="none" stroke="#6e4618" stroke-width="0.4" stroke-linecap="round" opacity="0.9"/>
  <!-- a comb crest -->
  <path d="M44.4 5.4 C46.2 2.2 51.8 1.2 55.6 3.6 L54.2 5.8 C51.4 4.6 47.8 4.8 46 6.6 Z" fill="url(#ctd-brass-dark)" stroke="#0d0a12" stroke-width="0.8" stroke-linejoin="round"/>
  <path d="M45.6 4.4 Q49 2.4 53 2.8" fill="none" stroke="#fff1c4" stroke-width="0.45"/>
  <!-- the iron brow band -->
  <path d="M37.2 14.6 Q49.6 10.8 62.4 14.2 L62.4 17.4 Q49.6 14.4 37.2 18.2 Z" fill="url(#ctd-iron)" stroke="#0d0a12" stroke-width="0.9" stroke-linejoin="round"/>
  <path d="M38 15.4 Q49.6 11.8 61.6 14.8" fill="none" stroke="#f4eee4" stroke-width="0.45"/>
  <g fill="#efe8dc" stroke="#0d0a12" stroke-width="0.3"><circle cx="39.6" cy="16.4" r="0.5"/><circle cx="43.8" cy="15" r="0.5"/><circle cx="48" cy="14" r="0.5"/><circle cx="58.6" cy="14.6" r="0.5"/></g>
  <!-- cheek guard and the ear cog at the back of the helm -->
  <path d="M37.6 18.2 L45.4 17 L46 26.8 L38.2 26.4 Z" fill="url(#ctd-brass-dark)" stroke="#0d0a12" stroke-width="0.8" stroke-linejoin="round"/>
  <path d="M43.4 21.6 44 21.7 44 22.3 43.4 22.4 43.1 23.2 43.4 23.7 42.9 24.2 42.4 23.9 41.6 24.2 41.5 24.8 40.9 24.8 40.8 24.2 40 23.9 39.5 24.2 39 23.7 39.3 23.2 39 22.4 38.4 22.3 38.4 21.7 39 21.6 39.3 20.8 39 20.3 39.5 19.8 40 20.1 40.8 19.8 40.9 19.2 41.5 19.2 41.6 19.8 42.4 20.1 42.9 19.8 43.4 20.3 43.1 20.8Z" fill="url(#ctd-copper)" stroke="#0d0a12" stroke-width="0.4" stroke-linejoin="round"/><circle cx="41.2" cy="22" r="0.9" fill="#3a2418" stroke="#0d0a12" stroke-width="0.3"/><circle cx="40.9" cy="21.7" r="0.3" fill="#ffd2ad"/>
  <!-- the face opening -->
  <ellipse cx="51.4" cy="19.6" rx="7.2" ry="8" fill="#1a1012" stroke="#0d0a12" stroke-width="1"/>
  <ellipse cx="51.4" cy="19.6" rx="7.2" ry="8" fill="none" stroke="url(#ctd-brass)" stroke-width="0.8"/>
  <!-- the porcelain mask -->
  <path d="M45.8 16 Q47.6 12.4 51.8 12.4 Q56 12.6 57 16.4 Q57.8 21.2 55.8 24.4 Q53.8 27 51 27 Q47.6 26.6 46.2 23.8 Q44.8 20.2 45.8 16 Z" fill="url(#ctd-porcelain)" stroke="#0d0a12" stroke-width="0.9" stroke-linejoin="round"/>
  <path d="M46.6 17.8 Q47.2 14 50.6 13.4" fill="none" stroke="#ffffff" stroke-width="0.8" stroke-linecap="round"/>
  <path d="M56.6 19.6 Q56.4 23.2 54 25.6" fill="none" stroke="#a08b7c" stroke-width="0.6" stroke-linecap="round"/>
  <!-- painted brows -->
  <path d="M46.6 16.2 Q48.4 14.8 50.4 15.8 M52.4 15.8 Q54.2 15 56 16" fill="none" stroke="#3a2a4a" stroke-width="0.55" stroke-linecap="round"/>
  <!-- the arcane eyes -->
  <path d="M46.8 18.4 Q48.8 17 50.6 18.4 Q48.8 19.6 46.8 18.4 Z M52.2 18.2 Q54 16.8 55.8 18.2 Q54 19.4 52.2 18.2 Z" fill="#120c1a" stroke="#3a2a4a" stroke-width="0.35"/>
  <circle cx="48.8" cy="18.3" r="0.45" fill="#6a55a8" opacity="0.8"/>
  <!-- harlequin teardrop, nose, and the thin painted mouth -->
  <path d="M48.6 20.4 l0.6 1 l-0.6 1 l-0.6 -1 Z" fill="#7a55c8"/>
  <path d="M51.6 19.2 Q51 21.2 52 21.8" fill="none" stroke="#a08b7c" stroke-width="0.45" stroke-linecap="round"/>
  <path d="M49.2 23.8 Q51.8 24.6 54.4 23.6" fill="none" stroke="#5a1f3e" stroke-width="0.6" stroke-linecap="round"/>
  <path d="M49 24.4 L49.2 26.2 M54.4 24.2 L54.2 26" stroke="#a08b7c" stroke-width="0.4"/>
  <!-- the mask cracked across, a chip knocked out of the cheek -->
  <path d="M45.8 15 L48.4 16.6 L49.8 19 L52 20 L52.6 22.6 L54.8 24 L55.2 26.6" fill="none" stroke="#2a1a24" stroke-width="0.6" stroke-linejoin="round"/>
  <path d="M49.8 19 L48 21 M52.6 22.6 L50.6 23.6" fill="none" stroke="#2a1a24" stroke-width="0.4"/>
  <path d="M55.6 21.6 L57 20.8 L56.6 24.2 L55.2 23.6 Z" fill="#1a1012" stroke="#0d0a12" stroke-width="0.4" stroke-linejoin="round"/>
  </g>

  <!-- ===== the near pauldron, knocked askew ===== -->
  <path d="M15.4 84.6 C14.6 90.6 19.6 93.6 26 93.2 C31.6 92.8 35.4 90 35.4 86 L34.6 83.6 C29.6 85.4 21.4 85.4 16 82.6 Z" fill="url(#ctd-plate)" stroke="#0d0a12" stroke-width="1.1" stroke-linejoin="round"/>
  <path d="M16 82.6 C21.4 85.4 29.6 85.4 34.6 83.6 L34.6 81.2 C29.2 83 21.6 83 16.4 80.4 Z" fill="url(#ctd-brass)" stroke="#0d0a12" stroke-width="0.8" stroke-linejoin="round"/>
  <path d="M17.4 86.6 Q18.6 89.6 22.4 90.4" fill="none" stroke="#f4eee4" stroke-width="0.7" stroke-linecap="round"/>
  <g fill="#fff1c4" stroke="#0d0a12" stroke-width="0.3"><circle cx="19.4" cy="83" r="0.5"/><circle cx="24.4" cy="84.2" r="0.5"/><circle cx="29.6" cy="84" r="0.5"/></g>

  <!-- ===== the near arm, lying slack along the ground ===== -->
  <g transform="translate(33.4 88.4) rotate(0) matrix(0 0.42 0.42 0 0 0) translate(-14 -35)">
  <!-- upper arm: a riveted iron drum with a filigreed brass band -->
  <path d="M6.8 32 L21.2 32 L20.2 45 L7.8 45 Z" fill="url(#ctd-iron)" stroke="#0d0a12" stroke-width="1.1" stroke-linejoin="round"/>
  <path d="M8.2 33 L9 44" stroke="#f4eee4" stroke-width="0.9" stroke-linecap="round" opacity="0.85"/>
  <path d="M19.8 33 L19 44" stroke="#241d20" stroke-width="0.7"/>
  <path d="M7 37 L21 37 L20.7 40.2 L7.3 40.2 Z" fill="url(#ctd-brass)" stroke="#0d0a12" stroke-width="0.7" stroke-linejoin="round"/>
  <path d="M8.6 39.2 C9.3 38.3 10.6 38.2 10.9 39.1 C11.1 39.9 10.3 40.3 9.8 39.8 C9.5 39.4 9.9 38.9 10.2 39.1 M10.9 39.1 C11.5 38.4 12.3 38.5 12.8 39.2 M19.4 39.2 C18.7 38.3 17.4 38.2 17.1 39.1 C16.9 39.9 17.8 40.3 18.2 39.8 C18.5 39.4 18.1 38.9 17.8 39.1 M17.1 39.1 C16.5 38.4 15.7 38.5 15.2 39.2" fill="none" stroke="#5a3812" stroke-width="0.4" stroke-linecap="round" opacity="0.9"/>
  <g fill="#efe8dc" stroke="#0d0a12" stroke-width="0.3"><circle cx="9" cy="34.6" r="0.6"/><circle cx="14" cy="34.4" r="0.6"/><circle cx="19" cy="34.6" r="0.6"/><circle cx="9.2" cy="42.6" r="0.6"/><circle cx="18.8" cy="42.6" r="0.6"/></g>
  <path d="M18.5 46 19.6 46.3 19.5 47.3 18.4 47.4 17.8 48.7 18.6 49.6 17.9 50.4 16.9 49.8 15.8 50.5 15.9 51.7 14.8 51.9 14.4 50.9 13 50.8 12.4 51.8 11.4 51.4 11.7 50.2 10.6 49.3 9.6 49.8 9 48.9 9.9 48.2 9.5 46.8 8.4 46.5 8.5 45.5 9.6 45.4 10.2 44.1 9.4 43.2 10.1 42.4 11.1 43 12.2 42.3 12.1 41.1 13.2 40.9 13.6 41.9 15 42 15.6 41 16.6 41.4 16.3 42.6 17.4 43.5 18.4 43 19 43.9 18.1 44.6Z" fill="url(#ctd-brass)" stroke="#0d0a12" stroke-width="0.4" stroke-linejoin="round"/><circle cx="15.8" cy="48.5" r="1" fill="#1a1012" stroke="#0d0a12" stroke-width="0.25"/><circle cx="11.9" cy="48.2" r="1" fill="#1a1012" stroke="#0d0a12" stroke-width="0.25"/><circle cx="12.2" cy="44.3" r="1" fill="#1a1012" stroke="#0d0a12" stroke-width="0.25"/><circle cx="16.1" cy="44.6" r="1" fill="#1a1012" stroke="#0d0a12" stroke-width="0.25"/><circle cx="14" cy="46.4" r="3.7" fill="none" stroke="#0d0a12" stroke-width="0.3" opacity="0.55"/><circle cx="14" cy="46.4" r="1.6" fill="#3a2418" stroke="#0d0a12" stroke-width="0.3"/><circle cx="13.5" cy="45.9" r="0.6" fill="#fff1c4"/><path d="M10.2 45 A4 4 0 0 1 12.6 42.6" fill="none" stroke="#fff1c4" stroke-width="0.4" stroke-linecap="round" opacity="0.85"/>
  <!-- forearm: an iron sleeve at the elbow, the gauntlet below, driven by a ram and two side pistons -->
  
  <path d="M7.2 49 L20.8 49 L20.6 54.2 L7.4 54.2 Z" fill="url(#ctd-iron)" stroke="#0d0a12" stroke-width="0.9" stroke-linejoin="round"/>
  <path d="M7.4 52.8 L20.6 52.8" stroke="#e0b45a" stroke-width="0.7"/>
  <path d="M6.8 54 L21.2 54 L22.6 63.4 L5.4 63.4 Z" fill="url(#ctd-iron)" stroke="#0d0a12" stroke-width="1.1" stroke-linejoin="round"/>
  <path d="M7.6 55 L6.4 62.6" stroke="#f4eee4" stroke-width="0.8" stroke-linecap="round" opacity="0.85"/>
  <path d="M6.4 58.6 L21.6 58.6" stroke="#3a3134" stroke-width="0.6"/>
  <path d="M10.8 57.4 C11.4 56.6 12.6 56.5 12.9 57.3 C13.1 58 12.3 58.4 11.9 57.9 C11.7 57.6 12 57.2 12.3 57.3 M12.9 57.3 C13.4 56.7 14.2 56.8 14.6 57.4 M17.2 57.4 C16.6 56.6 15.4 56.5 15.1 57.3 C14.9 58 15.7 58.4 16.1 57.9 C16.3 57.6 16.1 57.2 15.8 57.3 M15.1 57.3 C14.6 56.7 13.8 56.8 13.4 57.4" fill="none" stroke="#3a3134" stroke-width="0.4" stroke-linecap="round" opacity="0.9"/>
  <g fill="#efe8dc" stroke="#0d0a12" stroke-width="0.3"><circle cx="8.4" cy="55.6" r="0.6"/><circle cx="19.6" cy="55.6" r="0.6"/><circle cx="7.4" cy="61.2" r="0.6"/><circle cx="14" cy="61.2" r="0.6"/><circle cx="20.6" cy="61.2" r="0.6"/></g>
  <path d="M4.1 53 L5.5 53 L5.5 57.6 L4.1 57.6 Z" fill="url(#ctd-steel)" stroke="#0d0a12" stroke-width="0.45"/>
  <path d="M3.2 48 L6.4 48 L6.3 53.6 L3.3 53.6 Z" fill="url(#ctd-brass)" stroke="#0d0a12" stroke-width="0.6" stroke-linejoin="round"/>
  <path d="M3.9 48.6 L3.9 53" stroke="#fff1c4" stroke-width="0.35"/>
  <path d="M22.5 53 L23.9 53 L23.9 57.6 L22.5 57.6 Z" fill="url(#ctd-steel)" stroke="#0d0a12" stroke-width="0.45"/>
  <path d="M21.6 48 L24.8 48 L24.7 53.6 L21.7 53.6 Z" fill="url(#ctd-brass)" stroke="#0d0a12" stroke-width="0.6" stroke-linejoin="round"/>
  <path d="M22.3 48.6 L22.3 53" stroke="#fff1c4" stroke-width="0.35"/>
  <path d="M4.2 63.4 L23.8 63.4 L23.4 66 L4.6 66 Z" fill="url(#ctd-brass)" stroke="#0d0a12" stroke-width="0.8" stroke-linejoin="round"/>
  <path d="M5 64.1 L23 64.1" stroke="#fff1c4" stroke-width="0.4" opacity="0.8"/>
  <path d="M2 78.8 L2 75.4 L4.4 75.4 L4.4 73.4 Q8 72.4 7.4 69.4 L4.6 68.6 L4.6 66 L22.4 66 L22.4 68.6 L19 69.4 Q18.4 72.2 20.4 73.4 Q24.8 74 27.4 76.4 Q24.2 78.2 20 78.8 Z" fill="url(#ctd-anvil)" stroke="#0d0a12" stroke-width="1.1" stroke-linejoin="round"/>
  <path d="M5 68.6 L22 68.6" stroke="#0d0a12" stroke-width="0.6"/>
  <path d="M5.4 66.8 L21.6 66.8 M2.8 76.2 L4.4 76.2" stroke="#e6e0d8" stroke-width="0.6" stroke-linecap="round"/>
  <path d="M8.6 66.2 L8.6 68.4 M12.4 66.2 L12.4 68.4 M16.2 66.2 L16.2 68.4 M19.6 66.2 L19.6 68.4" stroke="#241d20" stroke-width="0.5"/>
  <path d="M5 74.4 L19.8 74.4" stroke="#e6e0d8" stroke-width="0.5" stroke-linecap="round" opacity="0.8"/>
  <path d="M20.8 74.4 Q24 74.8 26.2 76.2" fill="none" stroke="#e6e0d8" stroke-width="0.5" stroke-linecap="round"/>
  <path d="M2.8 78 L19.8 78" stroke="#eef1f6" stroke-width="0.8" stroke-linecap="round" opacity="0.9"/>
  <rect x="6.4" y="75.2" width="1.6" height="1.6" fill="#140f12"/>
  <circle cx="9.6" cy="76" r="0.65" fill="#140f12"/>
  <path d="M8.6 70 Q9.2 71.8 7.6 73" fill="none" stroke="#e6e0d8" stroke-width="0.4" opacity="0.7"/>
  </g>

  <!-- ===== gears spilled out over the grit ===== -->
  <path d="M60.9 90.4 61.6 90.5 61.6 91 60.9 91.1 60.7 91.8 61.1 92.2 60.8 92.7 60.2 92.4 59.7 92.8 59.8 93.5 59.3 93.7 59 93.1 58.3 93.2 58.1 93.8 57.5 93.7 57.6 93 56.9 92.7 56.4 93.1 56 92.7 56.4 92.2 56 91.5 55.4 91.6 55.2 91.1 55.9 90.8 55.9 90.1 55.3 89.8 55.5 89.3 56.1 89.4 56.6 88.8 56.2 88.3 56.7 87.9 57.1 88.4 57.8 88.1 57.8 87.4 58.4 87.4 58.5 88 59.2 88.2 59.6 87.6 60.1 87.9 59.9 88.5 60.4 89 61 88.8 61.3 89.3 60.8 89.7Z" fill="url(#ctd-copper)" stroke="#0d0a12" stroke-width="0.4" stroke-linejoin="round"/><circle cx="59.5" cy="91.8" r="0.5" fill="#1a1012" stroke="#0d0a12" stroke-width="0.25"/><circle cx="56.8" cy="90.9" r="0.5" fill="#1a1012" stroke="#0d0a12" stroke-width="0.25"/><circle cx="58.9" cy="89.1" r="0.5" fill="#1a1012" stroke="#0d0a12" stroke-width="0.25"/><circle cx="58.4" cy="90.6" r="0.9" fill="#3a2418" stroke="#0d0a12" stroke-width="0.3"/><circle cx="58.1" cy="90.3" r="0.3" fill="#ffd2ad"/><path d="M56.2 89.8 A2.3 2.3 0 0 1 57.6 88.4" fill="none" stroke="#ffd2ad" stroke-width="0.3" stroke-linecap="round" opacity="0.85"/>
  <path d="M72 90.6 72.4 90.7 72.4 91.3 72 91.4 71.7 92 71.8 92.4 71.4 92.7 71.1 92.4 70.4 92.6 70.2 93 69.7 92.9 69.7 92.4 69.1 92 68.7 92.1 68.5 91.6 68.8 91.4 68.8 90.6 68.5 90.4 68.7 89.9 69.1 90 69.7 89.6 69.7 89.1 70.2 89 70.4 89.4 71.1 89.6 71.4 89.3 71.8 89.6 71.7 90Z" fill="url(#ctd-brass-dark)" stroke="#0d0a12" stroke-width="0.4" stroke-linejoin="round"/><circle cx="70.4" cy="91" r="0.6" fill="#3a2418" stroke="#0d0a12" stroke-width="0.3"/>
  <path d="M53.2 57.7 53.6 57.9 53.5 58.4 53 58.4 52.6 58.9 52.7 59.3 52.3 59.6 52 59.3 51.3 59.4 51.1 59.8 50.6 59.7 50.6 59.2 50.1 58.8 49.7 58.9 49.4 58.5 49.7 58.2 49.6 57.5 49.2 57.3 49.3 56.8 49.8 56.8 50.2 56.3 50.1 55.9 50.5 55.6 50.8 55.9 51.5 55.8 51.7 55.4 52.2 55.5 52.2 56 52.7 56.4 53.1 56.3 53.4 56.7 53.1 57Z" fill="url(#ctd-brass)" stroke="#0d0a12" stroke-width="0.4" stroke-linejoin="round"/><circle cx="51.4" cy="57.6" r="0.6" fill="#3a2418" stroke="#0d0a12" stroke-width="0.3"/>
  <path d="M9.5 88.3 9.9 88.3 9.9 88.9 9.5 88.9 9.2 89.5 9.4 89.9 9 90.2 8.7 90 8 90.1 7.8 90.5 7.3 90.4 7.3 90 6.8 89.5 6.4 89.6 6.2 89.2 6.5 88.9 6.5 88.3 6.2 88 6.4 87.6 6.8 87.7 7.3 87.2 7.3 86.8 7.8 86.7 8 87.1 8.7 87.2 9 87 9.4 87.3 9.2 87.7Z" fill="url(#ctd-copper)" stroke="#0d0a12" stroke-width="0.4" stroke-linejoin="round"/><circle cx="8" cy="88.6" r="0.6" fill="#3a2418" stroke="#0d0a12" stroke-width="0.3"/>
  <path d="M42.6 58.5 43 58.6 43 59 42.6 59.1 42.4 59.6 42.6 59.9 42.2 60.2 42 60 41.4 60.1 41.3 60.4 40.8 60.3 40.8 60 40.4 59.6 40.1 59.7 39.9 59.3 40.2 59.1 40.2 58.5 39.9 58.3 40.1 57.9 40.4 58 40.8 57.6 40.8 57.3 41.3 57.2 41.4 57.5 42 57.6 42.2 57.4 42.6 57.7 42.4 58Z" fill="url(#ctd-brass-dark)" stroke="#0d0a12" stroke-width="0.4" stroke-linejoin="round"/><circle cx="41.4" cy="58.8" r="0.5" fill="#3a2418" stroke="#0d0a12" stroke-width="0.3"/>
  <!-- a loose spring, sprung rivets and shards of glass -->
  <path d="M74.4 93 q0.8 -1.6 1.6 0 q0.8 1.6 1.6 0 q0.8 -1.6 1.6 0 q0.8 1.6 1.6 0" fill="none" stroke="#0d0a12" stroke-width="1"/>
  <path d="M74.4 93 q0.8 -1.6 1.6 0 q0.8 1.6 1.6 0 q0.8 -1.6 1.6 0 q0.8 1.6 1.6 0" fill="none" stroke="#e0b45a" stroke-width="0.45"/>
  <g fill="#cfc6b8" stroke="#0d0a12" stroke-width="0.3"><circle cx="64.6" cy="93.4" r="0.5"/><circle cx="86.4" cy="90.6" r="0.5"/><circle cx="12.6" cy="63.4" r="0.5"/><circle cx="50.6" cy="92.4" r="0.5"/></g>
  <g fill="#cfc4ee" fill-opacity="0.6" stroke="#ffffff" stroke-width="0.3" stroke-linejoin="round">
    <path d="M53 88.2 L55.6 87.4 L54.4 89.6 Z M45.6 59.6 L48 58.8 L47 60.8 Z M66.6 89 L68.4 88 L68.2 89.8 Z M36.4 58.8 L38.4 57.8 L38.2 59.8 Z"/>
  </g>

  <!-- ===== a last puff of steam from the far vent ===== -->
  <g transform="translate(22.2 46.2) scale(1 1)" opacity="0.9"><circle cx="0.4" cy="-3.6" r="3.6" fill="url(#ctd-steam)"/><circle cx="2.6" cy="-7.8" r="2.9" fill="url(#ctd-steam)"/><circle cx="-0.4" cy="-11" r="2.3" fill="url(#ctd-steam)"/><path d="M0 0 C-1.8 -1.8 1.6 -3.4 0.2 -5.4 C-1.2 -7.2 1.4 -8.8 2.8 -8.4 C4 -8 3.8 -6.6 2.8 -6.8" fill="none" stroke="#eef3f8" stroke-width="0.75" stroke-linecap="round" opacity="0.75"/></g>
  <circle cx="21.4" cy="30.4" r="2.6" fill="url(#ctd-steam)" opacity="0.6"/>
  <path d="M23.4 35 Q21.4 33 22.4 30.8" fill="none" stroke="#e6eaf0" stroke-width="0.5" stroke-linecap="round" opacity="0.5"/>
</svg>
