<svg xmlns="http://www.w3.org/2000/svg" viewBox="0 0 96 96" width="96" height="96">
  <!-- Frost Sprite, attack key pose: mid-lunge, the Frost Lance driven forward at full extension, a frost wake trailing the tip. Lit from the upper left. -->
  <defs>
    <linearGradient id="fsa-skin" x1="0" y1="0" x2="1" y2="1">
      <stop offset="0" stop-color="#e4f5ff"/>
      <stop offset="0.5" stop-color="#a9d3ef"/>
      <stop offset="1" stop-color="#6893bf"/>
    </linearGradient>
    <linearGradient id="fsa-skin-dark" x1="0" y1="0" x2="1" y2="1">
      <stop offset="0" stop-color="#9fc8e6"/>
      <stop offset="1" stop-color="#4f78a6"/>
    </linearGradient>
    <linearGradient id="fsa-hair" x1="0" y1="0" x2="1" y2="1">
      <stop offset="0" stop-color="#ffffff"/>
      <stop offset="0.45" stop-color="#e2e6f6"/>
      <stop offset="1" stop-color="#9ca4cc"/>
    </linearGradient>
    <linearGradient id="fsa-wing" x1="0" y1="0" x2="1" y2="1">
      <stop offset="0" stop-color="#f4fcff"/>
      <stop offset="0.45" stop-color="#aee6ff"/>
      <stop offset="1" stop-color="#5aa6d6"/>
    </linearGradient>
    <linearGradient id="fsa-wing-far" x1="1" y1="0" x2="0" y2="1">
      <stop offset="0" stop-color="#d6f1ff"/>
      <stop offset="0.5" stop-color="#8ccdf0"/>
      <stop offset="1" stop-color="#4787b8"/>
    </linearGradient>
    <linearGradient id="fsa-leaf" x1="0" y1="0" x2="1" y2="1">
      <stop offset="0" stop-color="#9fd0e6"/>
      <stop offset="0.5" stop-color="#4f88b0"/>
      <stop offset="1" stop-color="#284a72"/>
    </linearGradient>
    <linearGradient id="fsa-leaf-dark" x1="0" y1="0" x2="1" y2="1">
      <stop offset="0" stop-color="#6b9cc0"/>
      <stop offset="1" stop-color="#1f3a5c"/>
    </linearGradient>
    <linearGradient id="fsa-ice" x1="0" y1="0" x2="1" y2="0">
      <stop offset="0" stop-color="#ffffff"/>
      <stop offset="0.48" stop-color="#bfeaff"/>
      <stop offset="0.52" stop-color="#7cc4ec"/>
      <stop offset="1" stop-color="#3b7fb0"/>
    </linearGradient>
    <linearGradient id="fsa-shaft" x1="0" y1="0" x2="1" y2="0">
      <stop offset="0" stop-color="#eaf2f8"/>
      <stop offset="0.5" stop-color="#a9bccd"/>
      <stop offset="1" stop-color="#5f7590"/>
    </linearGradient>
    <!-- frost wake behind the lance tip (lance-local space: tip at y=-61, butt at 0) -->
    <linearGradient id="fsa-wake" gradientUnits="userSpaceOnUse" x1="0" y1="-63" x2="0" y2="-4">
      <stop offset="0" stop-color="#e6f7ff" stop-opacity="0.9"/>
      <stop offset="0.35" stop-color="#8fd8ff" stop-opacity="0.55"/>
      <stop offset="1" stop-color="#8fd8ff" stop-opacity="0"/>
    </linearGradient>
    <linearGradient id="fsa-wake-line" gradientUnits="userSpaceOnUse" x1="0" y1="-58" x2="0" y2="-12">
      <stop offset="0" stop-color="#ffffff" stop-opacity="0.95"/>
      <stop offset="1" stop-color="#bfeaff" stop-opacity="0"/>
    </linearGradient>
    <!-- speed lines trailing off the back of the figure -->
    <linearGradient id="fsa-speed" x1="0" y1="0" x2="1" y2="0">
      <stop offset="0" stop-color="#e6f7ff" stop-opacity="0.7"/>
      <stop offset="1" stop-color="#8fd8ff" stop-opacity="0"/>
    </linearGradient>
    <radialGradient id="fsa-glow" cx="0.5" cy="0.5" r="0.5">
      <stop offset="0" stop-color="#e6f7ff"/>
      <stop offset="0.35" stop-color="#8fd8ff"/>
      <stop offset="1" stop-color="#8fd8ff" stop-opacity="0"/>
    </radialGradient>
    <radialGradient id="fsa-burst" cx="0.5" cy="0.5" r="0.5">
      <stop offset="0" stop-color="#ffffff"/>
      <stop offset="0.18" stop-color="#e6f7ff"/>
      <stop offset="0.45" stop-color="#8fd8ff" stop-opacity="0.7"/>
      <stop offset="1" stop-color="#8fd8ff" stop-opacity="0"/>
    </radialGradient>
    <radialGradient id="fsa-aura" cx="0.5" cy="0.5" r="0.5">
      <stop offset="0" stop-color="#8fd8ff" stop-opacity="0.5"/>
      <stop offset="0.6" stop-color="#8fd8ff" stop-opacity="0.16"/>
      <stop offset="1" stop-color="#8fd8ff" stop-opacity="0"/>
    </radialGradient>
    <radialGradient id="fsa-mist" cx="0.5" cy="0.5" r="0.5">
      <stop offset="0" stop-color="#e6f7ff" stop-opacity="0.5"/>
      <stop offset="1" stop-color="#bfe6ff" stop-opacity="0"/>
    </radialGradient>
    <radialGradient id="fsa-eye" cx="0.4" cy="0.4" r="0.6">
      <stop offset="0" stop-color="#ffffff"/>
      <stop offset="0.45" stop-color="#9fe2ff"/>
      <stop offset="1" stop-color="#2a86c4"/>
    </radialGradient>
  </defs>

  <!-- cold aura, dragged forward with the lunge -->
  <ellipse cx="44" cy="48" rx="40" ry="30" fill="url(#fsa-aura)"/>

  <!-- speed lines streaming off the back -->
  <g fill="none" stroke="url(#fsa-speed)" stroke-linecap="round">
    <path d="M66 44.6 L87 45.4" stroke-width="0.6"/>
    <path d="M67 52.6 L88 53.2" stroke-width="0.8"/>
    <path d="M64 60.4 L83 61" stroke-width="0.5"/>
    <path d="M62 69.4 L80 70" stroke-width="0.6"/>
  </g>

  <!-- ===== far wings (viewer right): flung back and stretched by the speed ===== -->
  <!-- far lower wing -->
  <g transform="rotate(-10 50.8 50)">
    <g transform="matrix(-1.02 0 0 0.96 96.7 2)">
      <path d="M45 49 L35 51.5 L24 55.5 L16.5 62 L22.5 62.6 L20.5 67.2 L27.5 64.8 L29.6 69.4 L36.6 61.6 L44 55 Z" fill="url(#fsa-wing-far)" fill-opacity="0.85" stroke="#0d0a12" stroke-width="1" stroke-linejoin="round"/>
      <path d="M44.6 51 L16.5 62 M44 53 L22.5 62.6 M43.6 54 L27.5 64.8 M36.6 61.6 L33 58" fill="none" stroke="#3e7aa8" stroke-width="0.5"/>
      <path d="M42 50.2 L24.5 56.2" fill="none" stroke="#f2fbff" stroke-width="0.6" opacity="0.8"/>
      <path d="M22.5 62.6 L27.5 64.8 L20.5 67.2 Z" fill="#2b6a9e" opacity="0.35"/>
    </g>
  </g>
  <!-- far upper wing -->
  <g transform="rotate(20 50.3 46)">
    <g transform="matrix(-1 0 0 0.94 95.8 2.8)">
      <path d="M45.5 46 L39 37.5 L29 27 L14.5 16.5 L18.6 24.2 L15.4 27.4 L22.4 31 L19.2 36 L27.2 38 L25.2 43 L34.6 44.4 Z" fill="url(#fsa-wing-far)" fill-opacity="0.85" stroke="#0d0a12" stroke-width="1" stroke-linejoin="round"/>
      <path d="M45 45.6 L14.5 16.5 M44.6 45.4 L22.4 31 M44.2 45.6 L27.2 38 M44 45.8 L34.6 44.4 M18.6 24.2 L29 30.6 M19.2 36 L30 37.4" fill="none" stroke="#3e7aa8" stroke-width="0.5"/>
      <path d="M43 42.6 L30 29.4 L17 18.6" fill="none" stroke="#f2fbff" stroke-width="0.7" opacity="0.85"/>
      <path d="M24 28.6 L26.8 33.4 L21.6 31.4 Z M30.4 37.4 L33.4 41.6 L28.4 40.4 Z" fill="#e6f7ff" opacity="0.45"/>
      <path d="M22.4 31 L29 30.6 L27.2 38 Z M19.2 36 L22.4 31 L27.2 38 Z" fill="#2b6a9e" opacity="0.35"/>
      <!-- frost shed off the trailing edge -->
      <path d="M14 21 L9 19.6 M15 26.4 L10.4 26 M18.4 35.6 L13.6 36.4" fill="none" stroke="#e6f7ff" stroke-width="0.45" stroke-linecap="round" opacity="0.6"/>
    </g>
  </g>

  <!-- ===== near wings (viewer left): swept back and folded tighter ===== -->
  <!-- near lower wing -->
  <g transform="translate(45 50) rotate(-14) scale(0.95) translate(-45 -50)">
    <path d="M45 49 L35 51.5 L24 55.5 L16.5 62 L22.5 62.6 L20.5 67.2 L27.5 64.8 L29.6 69.4 L36.6 61.6 L44 55 Z" fill="url(#fsa-wing)" fill-opacity="0.88" stroke="#0d0a12" stroke-width="1" stroke-linejoin="round"/>
    <path d="M44.6 51 L16.5 62 M44 53 L22.5 62.6 M43.6 54 L27.5 64.8 M36.6 61.6 L33 58" fill="none" stroke="#4d93c4" stroke-width="0.5"/>
    <path d="M42 50.2 L24.5 56.2 L18.4 61" fill="none" stroke="#ffffff" stroke-width="0.7" opacity="0.9"/>
    <path d="M30 59.4 L33.6 57.6 L32 61.4 Z M24 61 L27 60 L25.6 62.6 Z M38 53.6 L41.4 52.8 L39.4 55 Z" fill="#ffffff" opacity="0.55"/>
    <path d="M22.5 62.6 L27.5 64.8 L20.5 67.2 Z M27.5 64.8 L33 58 L29.6 69.4 Z" fill="#3d86c0" opacity="0.32"/>
    <path d="M30.6 68 L36 61.8 M21.4 66.2 L26.6 64.4" fill="none" stroke="#2f6894" stroke-width="0.6"/>
    <circle cx="17.6" cy="61.6" r="0.6" fill="#ffffff"/>
  </g>
  <!-- near upper wing -->
  <g transform="translate(45.5 46) rotate(16) scale(0.94) translate(-45.5 -46)">
    <path d="M45.5 46 L39 37.5 L29 27 L14.5 16.5 L18.6 24.2 L15.4 27.4 L22.4 31 L19.2 36 L27.2 38 L25.2 43 L34.6 44.4 Z" fill="url(#fsa-wing)" fill-opacity="0.88" stroke="#0d0a12" stroke-width="1" stroke-linejoin="round"/>
    <path d="M45 45.6 L14.5 16.5 M44.6 45.4 L22.4 31 M44.2 45.6 L27.2 38 M44 45.8 L34.6 44.4 M18.6 24.2 L29 30.6 M19.2 36 L30 37.4" fill="none" stroke="#4d93c4" stroke-width="0.5"/>
    <path d="M43 42.6 L30 29.4 L17 18.6" fill="none" stroke="#ffffff" stroke-width="0.8" opacity="0.95"/>
    <path d="M24 28.6 L26.8 33.4 L21.6 31.4 Z M30.4 37.4 L33.4 41.6 L28.4 40.4 Z M35 36 L38.6 40.4 L34.2 39.6 Z M18 19.6 L23.4 24.6 L20.2 23.6 Z" fill="#ffffff" opacity="0.6"/>
    <path d="M22.4 31 L29 30.6 L27.2 38 Z M34.6 44.4 L30 37.4 L37 41.2 Z M19.2 36 L22.4 31 L27.2 38 Z" fill="#3d86c0" opacity="0.32"/>
    <path d="M15.6 18 L19.4 21.8" stroke="#8fd8ff" stroke-width="0.6" stroke-linecap="round"/>
    <path d="M16.2 27.2 L22 30.6 M20.2 35.8 L26.6 37.8 M26 42.6 L33.8 44" fill="none" stroke="#2f6894" stroke-width="0.6"/>
    <circle cx="15.2" cy="17.4" r="0.7" fill="#ffffff"/>
  </g>

  <!-- ===== frost wake: a translucent smear trailing the lance tip (behind the body) ===== -->
  <g transform="translate(71 46.5) rotate(-100.4) scale(-1 1)">
    <path d="M0 -64 Q5.4 -54 6.6 -36 Q6.6 -20 5.2 -5 L-5.2 -5 Q-6.6 -20 -6.6 -36 Q-5.4 -54 0 -64 Z" fill="url(#fsa-wake)" opacity="0.75"/>
    <path d="M0 -63 Q3.2 -55 3.8 -42 Q3.8 -30 3 -16 L-3 -16 Q-3.8 -30 -3.8 -42 Q-3.2 -55 0 -63 Z" fill="url(#fsa-wake)" opacity="0.75"/>
    <g fill="none" stroke="url(#fsa-wake-line)" stroke-linecap="round">
      <path d="M3.4 -55 Q5 -40 5 -18" stroke-width="0.6"/>
      <path d="M-3.4 -55 Q-5 -40 -5 -14" stroke-width="0.6"/>
      <path d="M6.2 -46 Q7 -36 7 -24" stroke-width="0.45"/>
      <path d="M-6.4 -44 Q-7.4 -34 -7.4 -20" stroke-width="0.45"/>
      <path d="M1.6 -60 L2.4 -30" stroke-width="0.4"/>
    </g>
    <!-- bright frost slivers streaking back from the point -->
    <g fill="url(#fsa-wake-line)">
      <path d="M2 -61 Q4.4 -46 4.2 -26 L3.4 -26 Q3.4 -46 2 -61 Z"/>
      <path d="M-2 -61 Q-4.6 -48 -4.6 -30 L-3.8 -30 Q-3.6 -48 -2 -61 Z"/>
      <path d="M0.6 -64 Q1.6 -56 1.4 -44 L0.9 -44 Q0.9 -56 0.6 -64 Z"/>
      <path d="M2.6 -62 Q7.2 -48 7.6 -22 L6.6 -22 Q6.2 -46 2.6 -62 Z"/>
      <path d="M-2.6 -62 Q-7.6 -48 -8.2 -20 L-7.2 -20 Q-6.6 -46 -2.6 -62 Z"/>
      <path d="M1.2 -63 Q5.4 -54 5.6 -38 L5 -38 Q4.6 -52 1.2 -63 Z"/>
      <path d="M-1.2 -63 Q-5.6 -55 -6 -40 L-5.4 -40 Q-4.8 -53 -1.2 -63 Z"/>
    </g>
    <!-- ice crystals shed into the wake -->
    <g fill="url(#fsa-ice)" stroke="#0d0a12" stroke-width="0.35" stroke-linejoin="round">
      <path d="M5.2 -50 L6.4 -47.6 L5.4 -45 L4.2 -47.6 Z"/>
      <path d="M-5.6 -44 L-4.6 -42 L-5.4 -39.8 L-6.6 -42 Z"/>
      <path d="M7.6 -36 L8.4 -34.4 L7.6 -32.8 L6.8 -34.4 Z"/>
      <path d="M-7.8 -30 L-7 -28.6 L-7.8 -27.2 L-8.6 -28.6 Z"/>
    </g>
  </g>

  <!-- ===== legs: hovering, trailing back from the lunge, toes pointed ===== -->
  <!-- far leg, bent hard and kicked back -->
  <g transform="rotate(-14 52.5 58)">
    <path d="M49.6 58 Q53.6 58 55.4 61.4 Q56.4 65 55.2 68.4 Q56.6 71.4 58.4 74.6 Q59.4 77 58.2 78.4 Q56.6 78.6 55.4 76.6 Q53.2 73.6 51.8 70 Q50.4 66 49.6 62 Z" fill="url(#fsa-skin-dark)" stroke="#0d0a12" stroke-width="1" stroke-linejoin="round"/>
    <path d="M54.6 68.6 Q53 68.6 52.4 67.6" fill="none" stroke="#4d7194" stroke-width="0.6"/>
    <path d="M50.8 63.6 L55.6 62.4 M51.4 66 L55.8 65 M53 71 L56.4 69.8 M54.2 73.4 L57.4 72.4" stroke="#c4def0" stroke-width="0.8" stroke-linecap="round"/>
    <path d="M51 64.3 L55.6 63.2 M53.2 71.7 L56.6 70.6" stroke="#4d7194" stroke-width="0.4"/>
    <path d="M57.8 76.4 L59.6 77.6 L58.2 77.8" fill="#bfeaff" stroke="#0d0a12" stroke-width="0.4" stroke-linejoin="round"/>
  </g>
  <!-- near leg, long and straight, swept slightly back -->
  <g transform="rotate(-6 45.5 58)">
    <path d="M42.6 58 L48.4 58 Q48.8 64 48 69.6 Q47.8 74 48 77.4 Q48.4 80 47 82 Q45.8 81.6 45.4 79.2 Q44.8 75 44.6 70.4 Q42.6 64.6 42.6 58 Z" fill="url(#fsa-skin)" stroke="#0d0a12" stroke-width="1" stroke-linejoin="round"/>
    <path d="M43.8 60 Q44 65 45.4 69.4" fill="none" stroke="#ffffff" stroke-width="0.7" stroke-linecap="round" opacity="0.8"/>
    <path d="M47.6 70 Q46.4 70.8 45.4 70.2" fill="none" stroke="#5b80a4" stroke-width="0.6"/>
    <path d="M43.2 62 L48.4 60.8 M43.6 64.6 L48.4 63.4 M44.8 72.4 L48 71.4 M45 75 L48 74 M45.2 77.4 L48 76.6" stroke="#d6ebf8" stroke-width="0.8" stroke-linecap="round"/>
    <path d="M43.4 62.7 L48.4 61.5 M45 73.1 L48 72.1 M45.3 78 L48 77.3" stroke="#5b80a4" stroke-width="0.4"/>
    <path d="M45 78.6 L44 80.6 L45.8 79.6 M47.8 78.4 L49 80.2 L48 78.8" fill="#bfeaff" stroke="#0d0a12" stroke-width="0.4" stroke-linejoin="round"/>
  </g>

  <!-- ===== skirt of frosted leaves, fluttering back ===== -->
  <g transform="rotate(-9 48 53)">
    <g stroke="#0d0a12" stroke-width="0.9" stroke-linejoin="round">
      <path d="M53 52 Q58.6 54.6 60.6 61 Q57 60.2 53.6 57 Z" fill="url(#fsa-leaf-dark)"/>
      <path d="M42.4 52 Q37.6 55.4 37 62.2 Q40.4 60.6 42.6 57 Z" fill="url(#fsa-leaf)"/>
      <path d="M50.4 53 Q56 56.6 56.4 64 Q52.4 61.2 50.2 57.6 Z" fill="url(#fsa-leaf-dark)"/>
      <path d="M44.8 53 Q40.4 57.2 40.8 64.6 Q44.4 61.6 45.6 57.6 Z" fill="url(#fsa-leaf)"/>
      <path d="M47.6 53.4 Q52.2 57.8 51.6 65.6 Q47.8 62.4 46.8 58 Z" fill="url(#fsa-leaf-dark)"/>
      <path d="M47 53.4 Q43.2 58.2 44.6 65.6 Q47.6 62 48 58 Z" fill="url(#fsa-leaf)"/>
    </g>
    <path d="M42 54 Q39.6 57.6 37.8 61 M44.8 55 Q42.2 59.4 41.2 63.4 M47 55.6 Q45.2 60 44.8 64.4 M48.2 55.6 Q50.8 60 51.2 64.4 M51 55 Q54.2 59 55.8 62.6 M54 54 Q57.6 56.6 59.8 60" fill="none" stroke="#2a4d6a" stroke-width="0.45"/>
    <path d="M37.4 61.4 L38.6 60.2 M41 63.8 L42.2 62.4 M44.8 64.8 L45.8 63.2 M51.2 64.8 L50.4 63.2 M56 63.2 L55.2 61.8 M60.2 60.4 L59 59.4" stroke="#ffffff" stroke-width="0.8" stroke-linecap="round"/>
    <path d="M39.4 56.4 Q41 55.2 42 53.6 M43.4 58 Q44.4 56 45.2 54.6" fill="none" stroke="#f2fbff" stroke-width="0.5" opacity="0.85"/>
  </g>

  <!-- ===== torso, leaning into the thrust ===== -->
  <g transform="rotate(-6 48 56)">
    <path d="M41.6 44.2 Q48 42.2 54.4 44.2 L55.2 52.6 Q48 56 40.8 52.6 Z" fill="url(#fsa-leaf)" stroke="#0d0a12" stroke-width="1.1" stroke-linejoin="round"/>
    <path d="M42.4 47.6 Q44 49.6 46 47.6 Q48 49.6 50 47.6 Q52 49.6 54 47.6 M41.6 50.6 Q43.4 52.6 45.2 50.8 Q47 52.8 48.8 50.8 Q50.6 52.8 52.4 50.8 Q53.8 52.4 55 50.8" fill="none" stroke="#2a4d6a" stroke-width="0.5"/>
    <path d="M42.6 47.2 Q43.6 48.4 44.8 47.6 M46.4 47.2 Q47.4 48.4 48.6 47.6 M42 50.2 Q43 51.4 44.2 50.6" fill="none" stroke="#f2fbff" stroke-width="0.5"/>
    <path d="M42.6 45.4 Q45 44.2 47 44.2" fill="none" stroke="#ffffff" stroke-width="0.8" stroke-linecap="round" opacity="0.85"/>
    <path d="M53.6 46 L54.4 51.6" stroke="#28475f" stroke-width="0.7"/>
    <!-- silver cord belt with a snowflake clasp -->
    <path d="M40.8 52.2 Q48 55.6 55.2 52.2 L55.3 53.6 Q48 57 40.7 53.6 Z" fill="#d6e2ee" stroke="#0d0a12" stroke-width="0.7"/>
    <path d="M41.6 53 Q48 56 54.6 53" fill="none" stroke="#7d93ad" stroke-width="0.35"/>
    <circle cx="48" cy="55.2" r="1.7" fill="#bfeaff" stroke="#0d0a12" stroke-width="0.6"/>
    <path d="M48 53.8 L48 56.6 M46.8 54.5 L49.2 55.9 M46.8 55.9 L49.2 54.5" stroke="#ffffff" stroke-width="0.4"/>
    <circle cx="47.5" cy="54.7" r="0.35" fill="#ffffff"/>
    <!-- feathered collar, ruffled back -->
    <g stroke="#0d0a12" stroke-width="0.7" stroke-linejoin="round">
      <path d="M41.4 43.6 Q40.2 45.8 41.6 47.6 Q42.8 46.4 43.4 44.8 Z" fill="#e8f5fc"/>
      <path d="M43.4 43 Q42.8 45.6 44.4 47.2 Q45.6 45.8 45.6 43.6 Z" fill="#f4fbff"/>
      <path d="M54.6 43.6 Q57 45 56.6 47.4 Q54.4 46.6 52.6 44.8 Z" fill="#a9c8de"/>
      <path d="M52.6 43 Q54 45.4 53 47.4 Q51 46 50.4 43.6 Z" fill="#c4dcec"/>
    </g>
  </g>

  <!-- ===== far arm, driving the butt of the lance ===== -->
  <path d="M53.2 42.6 Q57.2 42.8 59.6 45.4 L60.6 46.8 L59.8 50 Q57.4 49.8 55.4 48.4 Q53.8 47.4 52.8 46.4 Z" fill="url(#fsa-skin-dark)" stroke="#0d0a12" stroke-width="1" stroke-linejoin="round"/>
  <path d="M54.8 43.6 Q57.4 44 59 45.6" fill="none" stroke="#e6f4fc" stroke-width="0.5"/>
  <path d="M55.6 48 Q57.4 49.2 59.4 49.4" fill="none" stroke="#3f6592" stroke-width="0.5"/>
  <!-- jagged ice cuff -->
  <path d="M57.4 45.6 L58.6 43.8 L59.6 45 L60.8 44.2 L61 48.8 L59.6 50.6 L58.4 50.2 L57.6 48.6 Z" fill="#bfeaff" stroke="#0d0a12" stroke-width="0.6" stroke-linejoin="round"/>
  <path d="M57.9 45.8 L58.7 44.6 M59.8 45.6 L60.5 44.9" stroke="#ffffff" stroke-width="0.4"/>
  <path d="M59.8 50 L60.8 48.6" stroke="#4d93c4" stroke-width="0.4"/>

  <!-- ===== the Frost Lance, at full extension (butt at 71,46.5; tip at 11,57.5) ===== -->
  <g transform="translate(71 46.5) rotate(-100.4) scale(-1 1)">
    <!-- butt spike -->
    <path d="M-1 0 L0 4 L1 0 Z" fill="#bfeaff" stroke="#0d0a12" stroke-width="0.6" stroke-linejoin="round"/>
    <!-- shaft -->
    <rect x="-1.1" y="-40" width="2.2" height="40.4" rx="0.8" fill="url(#fsa-shaft)" stroke="#0d0a12" stroke-width="0.8"/>
    <path d="M-0.5 -38.4 L-0.5 -1.6" stroke="#ffffff" stroke-width="0.4" opacity="0.85"/>
    <path d="M0.6 -38 L0.6 -2" stroke="#4c6079" stroke-width="0.3" opacity="0.7"/>
    <!-- birch-bark marks -->
    <path d="M0.2 -7 L1 -7 M-0.6 -14 L0.4 -14 M0 -27 L1 -27 M-0.8 -31 L0 -31 M0.2 -34.4 L1 -34.4" stroke="#3d4a5c" stroke-width="0.5"/>
    <!-- silver bindings -->
    <path d="M-1.3 -2.6 L1.3 -1.6 M-1.3 -4 L1.3 -3" stroke="#e6eef6" stroke-width="0.7"/>
    <path d="M-1.3 -20 L1.3 -19 M-1.3 -21.4 L1.3 -20.4 M-1.3 -22.8 L1.3 -21.8" stroke="#9fb3c9" stroke-width="0.6"/>
    <!-- crystal collar and head, blazing -->
    <g transform="translate(0 5.5) scale(0.875)">
      <ellipse cx="0" cy="-64" rx="9" ry="13" fill="url(#fsa-glow)" opacity="0.9"/>
      <path d="M-3 -52 L-1.4 -55.6 L1.4 -55.6 L3 -52 L1.2 -51 L-1.2 -51 Z" fill="#8fd0f0" stroke="#0d0a12" stroke-width="0.8" stroke-linejoin="round"/>
      <path d="M-2.2 -52.4 L-1 -54.8" stroke="#ffffff" stroke-width="0.4"/>
      <path d="M0 -76 L2.4 -68 L4.6 -67.4 L2.8 -64.8 L3.6 -60 L5.4 -58.6 L2.6 -57.4 L1.4 -55.4 L-1.4 -55.4 L-2.8 -57.6 L-5.2 -59.4 L-3.4 -60.6 L-3 -65 L-4.6 -66.6 L-2.4 -68.2 Z" fill="url(#fsa-ice)" stroke="#0d0a12" stroke-width="1" stroke-linejoin="round"/>
      <path d="M0 -75 L0 -56 M0 -68 L-2.4 -68.2 M0 -64 L2.8 -64.8 M0 -60.4 L-3.4 -60.6 M0 -59 L3.6 -60" fill="none" stroke="#2f6894" stroke-width="0.45"/>
      <path d="M-0.6 -73 L-0.8 -58" stroke="#ffffff" stroke-width="0.7"/>
      <path d="M-1.6 -66.6 L-2.6 -66.6 M-2 -59.6 L-3 -59.8" stroke="#ffffff" stroke-width="0.5"/>
      <circle cx="-0.5" cy="-71" r="0.7" fill="#ffffff"/>
      <!-- rime cracking along the facets -->
      <path d="M1.2 -62 L2.2 -61 M1.4 -66.6 L2 -67.6" stroke="#e6f7ff" stroke-width="0.35"/>
    </g>
  </g>

  <!-- far fist clamped on the shaft -->
  <path d="M59.8 46.2 Q61.8 45.2 63.6 46.2 Q64.4 48.2 63.6 50.2 Q61.6 51 59.8 50 Q59.2 48.2 59.8 46.2 Z" fill="url(#fsa-skin-dark)" stroke="#0d0a12" stroke-width="0.9" stroke-linejoin="round"/>
  <path d="M61 45.9 Q60.6 48 61 50.4 M62.3 45.8 Q62 48.2 62.4 50.5" fill="none" stroke="#3f6592" stroke-width="0.4"/>
  <path d="M60.2 46.6 Q61.4 46 62.8 46.2" fill="none" stroke="#e6f4fc" stroke-width="0.45"/>

  <!-- ===== near arm, thrust out straight along the lance ===== -->
  <path d="M42.6 43.6 Q39.4 44.4 37.8 47 L35 50.6 L37.8 52.8 L40.8 49.6 Q43 47.8 43.6 46 Z" fill="url(#fsa-skin)" stroke="#0d0a12" stroke-width="1" stroke-linejoin="round"/>
  <path d="M40.4 45.2 Q38.8 46.6 37.4 48.6" fill="none" stroke="#ffffff" stroke-width="0.6" opacity="0.85"/>
  <path d="M41.6 48.6 Q40.2 50 38.8 51.4" fill="none" stroke="#5b80a4" stroke-width="0.45"/>
  <!-- ice bracer -->
  <path d="M35.4 49.4 L38.6 51.4 L37 53.8 L33.8 51.8 Z" fill="#bfeaff" stroke="#0d0a12" stroke-width="0.6" stroke-linejoin="round"/>
  <path d="M35.4 50 L37.8 51.5" stroke="#ffffff" stroke-width="0.4"/>
  <path d="M34.6 52.2 L36.6 53.4" stroke="#4d93c4" stroke-width="0.35"/>
  <!-- fist around the shaft -->
  <path d="M31.6 51.2 Q34 50 36.2 51.2 Q37 53.2 36.2 55.2 Q34 56.2 31.6 55 Q30.8 53.2 31.6 51.2 Z" fill="url(#fsa-skin)" stroke="#0d0a12" stroke-width="0.9" stroke-linejoin="round"/>
  <path d="M32.8 51.1 Q32.4 53.2 32.8 55.4 M34.2 50.8 Q33.8 53.2 34.2 55.7 M35.5 51.1 Q35.2 53.2 35.5 55.4" fill="none" stroke="#5b80a4" stroke-width="0.4"/>
  <path d="M31.8 51.8 Q33.4 51 35.2 51.4" fill="none" stroke="#ffffff" stroke-width="0.5"/>

  <!-- ===== head, thrust forward with the body ===== -->
  <g transform="rotate(-6 48 56) rotate(-3 48 42)">
    <!-- neck -->
    <path d="M46 40 L50 40 L50.2 44.2 Q48 45 45.8 44.2 Z" fill="url(#fsa-skin-dark)" stroke="#0d0a12" stroke-width="0.8"/>
    <path d="M46.2 41 Q48 42.4 49.9 41 L50 42 Q48 43.4 46.1 42 Z" fill="#3f6592" opacity="0.6"/>

    <!-- wild white-silver hair, streaming back with the lunge -->
    <path d="M40.4 37.4 Q37.8 31 38.8 26.2 Q36.4 24.4 35 21.4 Q38 21.6 40.2 22.4 Q42 18 45.4 15 Q46 17.4 46.8 18.4 Q51.6 14.4 60 13.6 Q56.6 15.6 56 17.4 Q63.6 15.8 74 17 Q67.6 18.8 64.6 20.6 Q71 22 80 23.4 Q72 25.4 66.4 26.2 Q72.6 29.2 81 31.4 Q72.6 32.6 66.4 32.2 Q71 36 76 40 Q67.8 39.4 62.6 36.4 Q59.6 39.6 55.4 40.4 Z" fill="url(#fsa-hair)" stroke="#0d0a12" stroke-width="1.1" stroke-linejoin="round"/>
    <path d="M39.4 24.8 Q37.6 23.4 36.4 22 M41 21.6 Q42.6 18.4 45 16 M46.6 19.4 Q52 15.6 58.4 14.4 M54 18.8 Q62 16.6 72 17.4 M60.8 22 Q68 22.8 77.6 23.6" fill="none" stroke="#ffffff" stroke-width="0.7" stroke-linecap="round"/>
    <path d="M43.2 21 Q46 20.2 48.4 20.6 M51.6 19.6 Q57 18.6 62 19.4 M59.4 24 Q66 25 73 25.4 M59.6 27.4 Q68 30 78 31.2 M59.4 32.6 Q65 35.6 72.6 38.8 M57.4 35.6 Q58 38.2 56.6 39.6 M40.8 34.6 Q39.4 30.6 40.2 27.2" fill="none" stroke="#7d86b4" stroke-width="0.55" stroke-linecap="round"/>
    <path d="M61.4 29.4 Q65 31 69.4 32.2 M61.6 35 Q64 36.8 67 38.4 M57.6 22.4 Q61 22.6 64.4 23.6 M62 27.4 Q66 28.4 70 29" fill="none" stroke="#c8cdea" stroke-width="0.45" stroke-linecap="round"/>
    <!-- frost caught in the hair, and loose flecks whipped off the ends -->
    <circle cx="63.4" cy="25.4" r="0.45" fill="#ffffff"/><circle cx="37.6" cy="23.2" r="0.4" fill="#ffffff"/><circle cx="64.6" cy="35.4" r="0.4" fill="#e6f7ff"/>
    <circle cx="83.4" cy="27" r="0.45" fill="#e6f7ff" opacity="0.85"/><circle cx="79" cy="36.4" r="0.4" fill="#ffffff" opacity="0.8"/><circle cx="77.6" cy="19.4" r="0.35" fill="#ffffff" opacity="0.8"/>
    <path d="M81.6 24.6 L85.4 24.8 M82.4 32.4 L86 32.8 M77 39.4 L80.4 40.6" fill="none" stroke="#e6f7ff" stroke-width="0.4" stroke-linecap="round" opacity="0.55"/>

    <!-- pointed ears, laid back -->
    <path d="M41.2 31.6 Q37 29.6 33.4 26.6 Q34.6 31.6 37 33.8 Q39 35.4 41.4 35.4 Z" fill="url(#fsa-skin)" stroke="#0d0a12" stroke-width="0.9" stroke-linejoin="round"/>
    <path d="M40.4 32.4 Q37.6 30.8 35.4 28.8 Q36.6 32 40.2 34" fill="none" stroke="#7ea6c6" stroke-width="0.5"/>
    <path d="M54.8 31.6 Q59.6 29.4 64.4 27 Q62.4 31.6 59.6 33.8 Q57.2 35.4 54.6 35.4 Z" fill="url(#fsa-skin-dark)" stroke="#0d0a12" stroke-width="0.9" stroke-linejoin="round"/>
    <path d="M55.6 32.4 Q59 30.8 62.2 29.2 Q60.4 32 55.8 34" fill="none" stroke="#5a7fa2" stroke-width="0.5"/>
    <!-- ice earring, swinging back -->
    <path d="M59 34.4 L61.2 36.8 L59 35.8 Z" fill="#bfeaff" stroke="#0d0a12" stroke-width="0.35"/>

    <!-- face -->
    <path d="M40.6 30.6 Q40.6 24.2 48 24.2 Q55.4 24.2 55.4 30.6 Q55.4 36.6 52.6 39.6 Q50.2 41.8 48 41.8 Q45.8 41.8 43.4 39.6 Q40.6 36.6 40.6 30.6 Z" fill="url(#fsa-skin)" stroke="#0d0a12" stroke-width="1.1" stroke-linejoin="round"/>
    <path d="M55.2 29.6 Q55.6 36.4 52.4 39.6 Q50.4 41.4 48.6 41.6 Q52.6 38 53.4 31.4 Z" fill="#5f88b4" opacity="0.5"/>
    <path d="M42 30.6 Q48 27.6 55 30.8 Q48 29.4 42 31.8 Z" fill="#5f88b4" opacity="0.45"/>
    <path d="M42 33.4 Q42.2 36.6 44.4 38.8" fill="none" stroke="#ffffff" stroke-width="0.6" opacity="0.7"/>
    <!-- frost blush and freckles -->
    <ellipse cx="43.4" cy="36.6" rx="1.6" ry="0.8" fill="#9ccff0" opacity="0.6"/>
    <ellipse cx="52.6" cy="36.6" rx="1.6" ry="0.8" fill="#86b6dc" opacity="0.6"/>
    <circle cx="42.8" cy="36.4" r="0.25" fill="#ffffff"/><circle cx="43.8" cy="37" r="0.25" fill="#ffffff"/><circle cx="52.4" cy="36.4" r="0.25" fill="#ffffff"/>
    <!-- eye glow, blazing -->
    <ellipse cx="48" cy="33.6" rx="9.6" ry="4" fill="url(#fsa-glow)" opacity="0.75"/>
    <!-- eyes: narrowed and fierce, glaring along the lance -->
    <path d="M42 32.6 Q44.4 32.6 46.8 33.6 Q46.4 35.2 44.2 35.4 Q42.6 35.2 42 32.6 Z" fill="url(#fsa-eye)" stroke="#0d0a12" stroke-width="0.6" stroke-linejoin="round"/>
    <path d="M54 32.6 Q51.6 32.6 49.2 33.6 Q49.6 35.2 51.8 35.4 Q53.4 35.2 54 32.6 Z" fill="url(#fsa-eye)" stroke="#0d0a12" stroke-width="0.6" stroke-linejoin="round"/>
    <circle cx="43.8" cy="34.3" r="0.7" fill="#0f2c48"/><circle cx="50.8" cy="34.3" r="0.7" fill="#0f2c48"/>
    <circle cx="43.4" cy="33.8" r="0.45" fill="#ffffff"/><circle cx="50.4" cy="33.8" r="0.45" fill="#ffffff"/>
    <!-- lashes flicked back and hard V brows -->
    <path d="M41.9 32.6 L40.6 32 M54.1 32.6 L55.4 32" stroke="#0d0a12" stroke-width="0.5" stroke-linecap="round"/>
    <path d="M41.8 30.2 Q44.4 30.8 46.8 32.6 M54.2 30.2 Q51.6 30.8 49.2 32.6" fill="none" stroke="#c9dceb" stroke-width="0.95" stroke-linecap="round"/>
    <path d="M42 30.8 Q44.4 31.4 46.6 33 M54 30.8 Q51.6 31.4 49.4 33" fill="none" stroke="#2c4a68" stroke-width="0.45" stroke-linecap="round"/>
    <!-- nose wrinkle and an open battle cry -->
    <path d="M48.2 34.6 L47.6 36.6 L48.6 36.8" fill="none" stroke="#6f97ba" stroke-width="0.5" stroke-linecap="round"/>
    <path d="M47 34.2 L47.6 35 M49.4 34.2 L48.8 35" stroke="#6f97ba" stroke-width="0.35" stroke-linecap="round"/>
    <path d="M45.4 38 Q48 37 50.8 37.8 Q50.4 40.4 48.2 40.6 Q45.8 40.4 45.4 38 Z" fill="#1d3550" stroke="#0d0a12" stroke-width="0.5" stroke-linejoin="round"/>
    <path d="M46 38.2 Q48 37.6 50.2 38 L50 38.7 Q48 38.4 46.2 38.9 Z" fill="#f4fbff"/>
    <path d="M46.8 40 Q48 39.4 49.6 39.9" fill="none" stroke="#5f88b4" stroke-width="0.4"/>
    <!-- frost marking on the cheek, glowing -->
    <path d="M41.8 31.6 L40.9 30.2 M42.1 31.4 L42.1 29.8" stroke="#ffffff" stroke-width="0.45" stroke-linecap="round"/>

    <!-- front bangs, blown back -->
    <path d="M40.6 30.6 Q40.6 24.6 46 23.4 Q52.6 22.4 56.6 26.4 Q57.6 28.8 56.4 31.4 Q55.4 28.6 53.2 27.6 Q53.6 29.4 52.8 30.6 Q51.2 27.8 48 27.2 Q48.4 28.8 47.6 30 Q46 27.8 43.4 28 Q42 29 41.6 31.8 Z" fill="url(#fsa-hair)" stroke="#0d0a12" stroke-width="0.9" stroke-linejoin="round"/>
    <path d="M42.2 27 Q45 24.4 49.4 24.2 M50.8 24.6 Q54 25.2 55.8 27.2" fill="none" stroke="#ffffff" stroke-width="0.6" stroke-linecap="round"/>
    <path d="M44.4 26.4 Q46.8 25.8 49.4 26.4 M51.4 26 Q53.4 26.4 55 28" fill="none" stroke="#8a91bd" stroke-width="0.45" stroke-linecap="round"/>

    <!-- icicle crown -->
    <path d="M41 25.6 Q48 22.2 55.4 25.6 L55.2 27 Q48 23.8 41.2 27 Z" fill="#d6e2ee" stroke="#0d0a12" stroke-width="0.7" stroke-linejoin="round"/>
    <g fill="url(#fsa-ice)" stroke="#0d0a12" stroke-width="0.6" stroke-linejoin="round">
      <path d="M46.6 23.8 L48 15.4 L49.4 23.8 Z"/>
      <path d="M43.2 24.6 L43.4 18.6 L45.4 24 Z"/>
      <path d="M50.6 24 L52.6 18.6 L52.8 24.6 Z"/>
      <path d="M41 25.8 L39.8 21.4 L42.4 25 Z"/>
      <path d="M53.6 25 L56.2 21.4 L55 25.8 Z"/>
    </g>
    <path d="M47.6 22.8 L48 17 M43.8 23.6 L43.7 20.2" stroke="#ffffff" stroke-width="0.4"/>
    <circle cx="48" cy="24" r="3" fill="url(#fsa-glow)" opacity="0.7"/>
    <circle cx="48" cy="24" r="1.1" fill="#8fd8ff" stroke="#0d0a12" stroke-width="0.5"/>
    <circle cx="47.7" cy="23.7" r="0.35" fill="#ffffff"/>
    <path d="M41.6 25.8 Q45 24.2 48 24" fill="none" stroke="#ffffff" stroke-width="0.4"/>
  </g>

  <!-- ===== cold mist, dragged back behind the feet ===== -->
  <ellipse cx="53" cy="81" rx="13" ry="3.6" fill="url(#fsa-mist)"/>
  <ellipse cx="64" cy="79" rx="9" ry="2.4" fill="url(#fsa-mist)" opacity="0.8"/>
  <path d="M42 81.6 Q48 80 54 81 M56 81.8 Q63 82 70 79.6" fill="none" stroke="#e6f7ff" stroke-width="0.5" stroke-linecap="round" opacity="0.4"/>
  <path d="M64 76.4 Q70 76.6 74 75 M44 83.4 Q52 84 60 83" fill="none" stroke="#e6f7ff" stroke-width="0.4" stroke-linecap="round" opacity="0.3"/>

  <!-- ===== burst of cold light at the lance point ===== -->
  <circle cx="11" cy="57.5" r="9" fill="url(#fsa-burst)"/>
  <circle cx="11" cy="57.5" r="4.4" fill="url(#fsa-glow)"/>
  <!-- impact shock rings, opening forward -->
  <path d="M10.2 49.8 Q4.8 57.8 10.6 65.4" fill="none" stroke="#e6f7ff" stroke-width="0.6" stroke-linecap="round" opacity="0.75"/>
  <path d="M11.4 52.4 Q7.6 58 11.8 62.8" fill="none" stroke="#ffffff" stroke-width="0.45" stroke-linecap="round" opacity="0.85"/>
  <!-- four-point star -->
  <path d="M5.6 58.4 L10.4 56.8 L10 51.6 L11.6 56.6 L16.4 56.6 L11.6 58.2 L12 63.4 L10.4 58.4 Z" fill="#ffffff" stroke="#8fd8ff" stroke-width="0.3" stroke-linejoin="round"/>
  <path d="M8 54.6 L13.8 60.4 M8.2 60.6 L13.8 54.4" stroke="#e6f7ff" stroke-width="0.4" stroke-linecap="round" opacity="0.8"/>
  <circle cx="11" cy="57.5" r="1.1" fill="#ffffff"/>
  <!-- shattering ice crystals flung from the point -->
  <g fill="url(#fsa-ice)" stroke="#0d0a12" stroke-width="0.4" stroke-linejoin="round">
    <path d="M6.4 50.6 L8.6 51.4 L7.8 53.2 Z"/>
    <path d="M6 63 L8.4 62.8 L7.2 65.2 Z"/>
    <path d="M15.4 49.6 L17.4 50.8 L15.6 51.8 Z"/>
    <path d="M16 64.8 L18.4 64.2 L17.6 66.4 Z"/>
    <path d="M18.6 52.6 L20.4 53.4 L18.8 54.4 Z"/>
    <path d="M19.6 61.8 L21.4 61.6 L20.4 63.2 Z"/>
  </g>
  <path d="M6.9 51.3 L8 51.9 M6.6 63.2 L7.8 63.2" stroke="#ffffff" stroke-width="0.35"/>
  <g fill="#ffffff">
    <circle cx="5.6" cy="55" r="0.4"/><circle cx="5.4" cy="60.6" r="0.35"/><circle cx="13.4" cy="48.4" r="0.4"/>
    <circle cx="13.6" cy="66.4" r="0.4"/><circle cx="22.6" cy="57" r="0.35"/><circle cx="9" cy="67.6" r="0.3"/>
  </g>

  <!-- ===== snowflake sparkles ===== -->
  <g stroke="#e6f7ff" stroke-linecap="round">
    <path d="M84 40 L84 44 M82.3 41 L85.7 43 M82.3 43 L85.7 41" stroke-width="0.5"/>
    <path d="M24 75 L24 78 M22.7 75.8 L25.3 77.2 M22.7 77.2 L25.3 75.8" stroke-width="0.45"/>
    <path d="M74 66 L74 68.6 M72.9 66.6 L75.1 68 M72.9 68 L75.1 66.6" stroke-width="0.4"/>
    <path d="M35 7 L35 9.4 M33.9 7.6 L36.1 8.8 M33.9 8.8 L36.1 7.6" stroke-width="0.4"/>
  </g>
  <circle cx="84" cy="42" r="0.5" fill="#ffffff"/>
  <circle cx="80.6" cy="58" r="0.5" fill="#bfeaff" opacity="0.9"/>
  <circle cx="68" cy="74" r="0.45" fill="#bfeaff" opacity="0.8"/>
  <circle cx="32" cy="80" r="0.4" fill="#e6f7ff" opacity="0.7"/>
  <circle cx="60" cy="10" r="0.5" fill="#e6f7ff" opacity="0.8"/>
  <circle cx="26" cy="44" r="0.4" fill="#ffffff" opacity="0.8"/>
</svg>
