<svg xmlns="http://www.w3.org/2000/svg" viewBox="0 0 96 96" width="96" height="96">
  <!-- Grave Ghoul, fallen: sprawled face-down in a slick of grave-ichor, sockets dark, the chain slack; its gnawed bone rolled out of its hand. -->
  <defs>
    <linearGradient id="ggd-skin" x1="0" y1="0" x2="1" y2="1">
      <stop offset="0" stop-color="#a9b394"/>
      <stop offset="0.45" stop-color="#737e62"/>
      <stop offset="1" stop-color="#3f4737"/>
    </linearGradient>
    <linearGradient id="ggd-skin-dark" x1="0" y1="0" x2="1" y2="1">
      <stop offset="0" stop-color="#828d70"/>
      <stop offset="1" stop-color="#343c2d"/>
    </linearGradient>
    <linearGradient id="ggd-skin-v" x1="0" y1="0" x2="0" y2="1">
      <stop offset="0" stop-color="#99a385"/>
      <stop offset="1" stop-color="#4d5642"/>
    </linearGradient>
    <linearGradient id="ggd-claw" x1="0" y1="0" x2="1" y2="1">
      <stop offset="0" stop-color="#d2c7a2"/>
      <stop offset="0.5" stop-color="#958660"/>
      <stop offset="1" stop-color="#382e23"/>
    </linearGradient>
    <linearGradient id="ggd-shroud" x1="0" y1="0" x2="0.4" y2="1">
      <stop offset="0" stop-color="#cbc4a9"/>
      <stop offset="0.55" stop-color="#948c73"/>
      <stop offset="1" stop-color="#5a5444"/>
    </linearGradient>
    <linearGradient id="ggd-iron" x1="0" y1="0" x2="1" y2="1">
      <stop offset="0" stop-color="#8a8f98"/>
      <stop offset="0.5" stop-color="#555a63"/>
      <stop offset="1" stop-color="#2e3137"/>
    </linearGradient>
    <linearGradient id="ggd-rope" x1="0" y1="0" x2="0" y2="1">
      <stop offset="0" stop-color="#a3834f"/>
      <stop offset="1" stop-color="#5e452a"/>
    </linearGradient>
    <linearGradient id="ggd-bone" x1="0" y1="0" x2="1" y2="1">
      <stop offset="0" stop-color="#eee5c8"/>
      <stop offset="0.5" stop-color="#c9bd98"/>
      <stop offset="1" stop-color="#857a5c"/>
    </linearGradient>
    <radialGradient id="ggd-pool" cx="0.5" cy="0.5" r="0.5">
      <stop offset="0" stop-color="#252a1e"/>
      <stop offset="0.7" stop-color="#1a1d16"/>
      <stop offset="1" stop-color="#14151a"/>
    </radialGradient>
    <radialGradient id="ggd-maw" cx="0.5" cy="0.5" r="0.5">
      <stop offset="0" stop-color="#3a161a"/>
      <stop offset="1" stop-color="#14080b"/>
    </radialGradient>
  </defs>

  <!-- a slick of dark grave-ichor spreading under the body -->
  <path d="M9 80 Q10 72 22 70.6 Q38 68.6 54 72 Q68 74 77 80.4 Q80 86.6 68 89.4 Q52 91.6 36 91 Q18 90.4 11.4 86.6 Q8.4 84 9 80 Z" fill="url(#ggd-pool)" stroke="#0d0a12" stroke-width="0.8" stroke-linejoin="round"/>
  <path d="M13 79 Q15 74.6 22 73.4 M60 74.6 Q70 76.6 74.6 80.6" fill="none" stroke="#3c4532" stroke-width="0.6" opacity="0.8"/>
  <ellipse cx="18" cy="86.4" rx="2.4" ry="0.8" fill="#4d5a40" opacity="0.5"/>
  <ellipse cx="70.6" cy="86.2" rx="1.6" ry="0.6" fill="#4d5a40" opacity="0.5"/>
  <!-- the shackle's chain, slack at last, coiled in the dirt -->
  <ellipse cx="84.4" cy="80.6" rx="1.9" ry="1.15" transform="rotate(-60 84.4 80.6)" fill="none" stroke="#0d0a12" stroke-width="1.5"/><ellipse cx="84.4" cy="80.6" rx="1.9" ry="1.15" transform="rotate(-60 84.4 80.6)" fill="none" stroke="#7d828c" stroke-width="0.7"/><path d="M83 80.1 Q84.4 79.2 85.4 79.8" transform="rotate(-60 84.4 80.6)" fill="none" stroke="#c3c8d0" stroke-width="0.35"/><path d="M84.7 77.8 L88.1 77.8" transform="rotate(-70 86.4 77.8)" stroke="#0d0a12" stroke-width="1.6" stroke-linecap="round"/><path d="M84.7 77.8 L88.1 77.8" transform="rotate(-70 86.4 77.8)" stroke="#7d828c" stroke-width="0.6" stroke-linecap="round"/><circle cx="86.8" cy="78" r="0.45" fill="#8a4b2a" opacity="0.8"/><ellipse cx="87.4" cy="74.6" rx="1.9" ry="1.15" transform="rotate(-95 87.4 74.6)" fill="none" stroke="#0d0a12" stroke-width="1.5"/><ellipse cx="87.4" cy="74.6" rx="1.9" ry="1.15" transform="rotate(-95 87.4 74.6)" fill="none" stroke="#7d828c" stroke-width="0.7"/><path d="M86 74.1 Q87.4 73.2 88.4 73.8" transform="rotate(-95 87.4 74.6)" fill="none" stroke="#c3c8d0" stroke-width="0.35"/><path d="M84.9 71.4 L88.3 71.4" transform="rotate(-120 86.6 71.4)" stroke="#0d0a12" stroke-width="1.6" stroke-linecap="round"/><path d="M84.9 71.4 L88.3 71.4" transform="rotate(-120 86.6 71.4)" stroke="#7d828c" stroke-width="0.6" stroke-linecap="round"/><ellipse cx="84.4" cy="69" rx="1.9" ry="1.15" transform="rotate(-150 84.4 69)" fill="none" stroke="#0d0a12" stroke-width="1.5"/><ellipse cx="84.4" cy="69" rx="1.9" ry="1.15" transform="rotate(-150 84.4 69)" fill="none" stroke="#7d828c" stroke-width="0.7"/><path d="M83 68.5 Q84.4 67.6 85.4 68.2" transform="rotate(-150 84.4 69)" fill="none" stroke="#c3c8d0" stroke-width="0.35"/><path d="M79.7 68.2 L83.1 68.2" transform="rotate(175 81.4 68.2)" stroke="#0d0a12" stroke-width="1.6" stroke-linecap="round"/><path d="M79.7 68.2 L83.1 68.2" transform="rotate(175 81.4 68.2)" stroke="#7d828c" stroke-width="0.6" stroke-linecap="round"/><circle cx="81.8" cy="68.4" r="0.45" fill="#8a4b2a" opacity="0.8"/>
  <path d="M78.6 68.8 Q77.6 66.8 79.2 66.2" fill="none" stroke="#0d0a12" stroke-width="1.5" stroke-linecap="round"/>
  <path d="M78.6 68.8 Q77.6 66.8 79.2 66.2" fill="none" stroke="#6f747d" stroke-width="0.7" stroke-linecap="round"/>
  <!-- far leg: stretched out straight behind, foot turned in, shackle on the ankle -->
  <path d="M57 77.4 Q64 78 71.6 80.6 L71 85.4 Q63.6 84.6 56.4 83.4 Z" fill="url(#ggd-skin-dark)" stroke="#0d0a12" stroke-width="1.1" stroke-linejoin="round"/>
  <path d="M70.4 80.2 Q76.6 81.4 82.6 81.8 L82.2 85.6 Q76.4 86 70.6 85.6 Z" fill="url(#ggd-skin-dark)" stroke="#0d0a12" stroke-width="1.1" stroke-linejoin="round"/>
  <ellipse cx="71" cy="83" rx="2.2" ry="2.6" fill="#606b51"/>
  <path d="M70.2 80.4 Q72.6 80.6 73.4 82.6" fill="none" stroke="#0d0a12" stroke-width="0.9" stroke-linecap="round"/>
  <path d="M59 79.2 Q64 79.6 68.6 81.2 M73.6 82 Q77.6 82.6 80.8 82.6" fill="none" stroke="#99a385" stroke-width="0.5" opacity="0.8"/>
  <path d="M59 82.6 Q64 83.4 68.6 84.2" fill="none" stroke="#2a3125" stroke-width="0.5"/>
  <!-- foot, toes curled under -->
  <path d="M81.6 81.4 Q86 80.8 88 83 Q88.8 85.8 86.4 87.4 L83.2 87.6 Q81.4 86.4 81.6 81.4 Z" fill="#5c6750" stroke="#0d0a12" stroke-width="1" stroke-linejoin="round"/>
  <path d="M86.4 86.2 L87.2 87.6" fill="none" stroke="#0d0a12" stroke-width="2.2" stroke-linecap="round" stroke-linejoin="round"/><path d="M86.4 86.2 L87.2 87.6" fill="none" stroke="#5c6750" stroke-width="1.2" stroke-linecap="round" stroke-linejoin="round"/><path d="M84.4 86.8 L84.6 88.2" fill="none" stroke="#0d0a12" stroke-width="2.2" stroke-linecap="round" stroke-linejoin="round"/><path d="M84.4 86.8 L84.6 88.2" fill="none" stroke="#5c6750" stroke-width="1.2" stroke-linecap="round" stroke-linejoin="round"/>
  <path d="M87.67 87.63 Q88.07 88.85 88.31 89.1 Q87.43 88.65 86.73 87.97 Z" fill="url(#ggd-claw)" stroke="#0d0a12" stroke-width="0.45" stroke-linejoin="round"/>
  <path d="M85.1 88.4 Q85.06 89.68 85.2 90 Q84.52 89.28 84.1 88.4 Z" fill="url(#ggd-claw)" stroke="#0d0a12" stroke-width="0.45" stroke-linejoin="round"/>
  <ellipse cx="85.2" cy="83.4" rx="1.4" ry="0.8" fill="#4b3b2c" opacity="0.9"/>
  <!-- the iron shackle -->
  <path d="M77.2 80 L80.8 79.8 L81 86.8 L77.4 87 Z" fill="url(#ggd-iron)" stroke="#0d0a12" stroke-width="1" stroke-linejoin="round"/>
  <path d="M77.8 80.6 L78 86.2" stroke="#b6bcc6" stroke-width="0.5"/>
  <circle cx="79.2" cy="81.6" r="0.55" fill="#9aa0aa" stroke="#0d0a12" stroke-width="0.3"/><circle cx="79.3" cy="85.2" r="0.55" fill="#5e636c" stroke="#0d0a12" stroke-width="0.3"/>
  <path d="M79.8 82.6 q0.6 1.2 -0.2 2.6" stroke="#8a4b2a" stroke-width="0.7" opacity="0.8"/>
  <path d="M80.8 81.4 L83.4 80.4" stroke="#0d0a12" stroke-width="1.5" stroke-linecap="round"/><path d="M80.8 81.4 L83.4 80.4" stroke="#7a7f88" stroke-width="0.7" stroke-linecap="round"/>

  <!-- near leg: knee drawn up to the side, sole turned to the sky -->
  <path d="M55.6 70 Q60 64 65.4 60.6 Q69.6 61 69.4 64.8 Q64.6 69.4 60.6 75.6 Z" fill="url(#ggd-skin)" stroke="#0d0a12" stroke-width="1.1" stroke-linejoin="round"/>
  <path d="M66.4 60.8 Q72.6 62 78.6 63.2 L78.2 67.6 Q72.4 67 67.4 65.6 Z" fill="url(#ggd-skin)" stroke="#0d0a12" stroke-width="1.1" stroke-linejoin="round"/>
  <ellipse cx="66.6" cy="62.8" rx="2.6" ry="2.4" fill="#8c977a"/>
  <path d="M64.2 61.6 Q65.6 59.6 68.2 60.2" fill="none" stroke="#0d0a12" stroke-width="1" stroke-linecap="round"/>
  <path d="M65 61.6 Q66.4 60.6 67.8 61" fill="none" stroke="#d4dbc0" stroke-width="0.6"/>
  <path d="M58 68.6 Q61.4 64.6 64.6 62.4 M69.4 62.6 Q73.4 63.4 77 64" fill="none" stroke="#d4dbc0" stroke-width="0.55" opacity="0.8"/>
  <path d="M61.6 71.6 Q64.2 68.6 67.2 66.4" fill="none" stroke="#2a3125" stroke-width="0.5"/>
  <!-- foot lying on its side: bony heel, long sole, stubby clawed toes -->
  <path d="M84.4 67.4 L86.6 69.4" fill="none" stroke="#0d0a12" stroke-width="2.3" stroke-linecap="round" stroke-linejoin="round"/><path d="M84.4 67.4 L86.6 69.4" fill="none" stroke="#7e8a6a" stroke-width="1.3" stroke-linecap="round" stroke-linejoin="round"/><path d="M83 68.2 L84.4 70.4" fill="none" stroke="#0d0a12" stroke-width="2.3" stroke-linecap="round" stroke-linejoin="round"/><path d="M83 68.2 L84.4 70.4" fill="none" stroke="#7e8a6a" stroke-width="1.3" stroke-linecap="round" stroke-linejoin="round"/>
  <path d="M86.98 69.08 Q87.58 70.56 87.29 71.31 Q86.76 70.63 86.22 69.72 Z" fill="url(#ggd-claw)" stroke="#0d0a12" stroke-width="0.45" stroke-linejoin="round"/>
  <path d="M84.88 70.27 Q84.8 71.87 84.22 72.42 Q84.03 71.58 83.92 70.53 Z" fill="url(#ggd-claw)" stroke="#0d0a12" stroke-width="0.45" stroke-linejoin="round"/>
  <path d="M77 62.4 Q79.8 60.6 82.4 62.4 Q85.8 64.6 87.2 67.4 Q86.8 69 84.8 68.8 L79.6 68.4 Q77 66.8 77 62.4 Z" fill="#7e8a6a" stroke="#0d0a12" stroke-width="1" stroke-linejoin="round"/>
  <path d="M78.6 62.6 Q80.4 61.8 82 62.8" fill="none" stroke="#d4dbc0" stroke-width="0.55"/>
  <path d="M80 68 Q83 68.4 85.6 68" fill="none" stroke="#353d2e" stroke-width="0.45"/>
  <ellipse cx="79.6" cy="62.8" rx="1.2" ry="0.9" fill="#93a07e"/>
  <path d="M81.6 65.2 q1.8 -0.8 2.8 0.6 q-1 1.2 -2.4 0.8 Z" fill="#4b3b2c" opacity="0.9"/>
  <ellipse cx="79.4" cy="66.8" rx="0.9" ry="0.5" fill="#6e5641" opacity="0.9"/>
  <!-- torso, face down: the hunched back uppermost, ribs showing along the flank -->
  <path d="M29.6 70.6 Q30.2 63.8 38.6 62.2 Q48 61.2 56 64.6 Q62 68 61.6 74 Q60.8 79.4 54 81 Q44 83 35.4 81.8 Q29.6 79 29.6 70.6 Z" fill="url(#ggd-skin)" stroke="#0d0a12" stroke-width="1.2" stroke-linejoin="round"/>
  <path d="M31.6 69 Q33.2 64.6 38.6 63.6" fill="none" stroke="#d4dbc0" stroke-width="1" stroke-linecap="round" opacity="0.85"/>
  <!-- shoulder blades -->
  <path d="M33.6 67.4 Q36.8 65 41.4 65.8 Q40 69 35.6 70.4 M45.6 65.8 Q50 65.4 53 67.4 Q50 70 46 69.8" fill="none" stroke="#353d2e" stroke-width="0.7" stroke-linejoin="round"/>
  <path d="M34.2 67 Q37 65.6 40.4 66" fill="none" stroke="#c3cbae" stroke-width="0.45"/>
  <!-- ribs along the flank -->
  <path d="M37.6 71.4 Q35.8 75.4 37.4 80.2 M41.6 71.8 Q40 76 41.6 81 M45.6 71.8 Q44.4 76 45.6 81.4 M49.6 71.4 Q48.6 75.6 49.8 80.8" fill="none" stroke="#353d2e" stroke-width="0.75" stroke-linecap="round"/>
  <path d="M36.8 71.6 Q35.2 75.4 36.6 79.6 M40.8 72 Q39.4 76 40.8 80.6 M44.8 72 Q43.8 76 44.8 81" fill="none" stroke="#d4dbc0" stroke-width="0.5" stroke-linecap="round" opacity="0.7"/>
  <path d="M54 72 Q55.4 75.6 54.4 79.4" fill="none" stroke="#2a3125" stroke-width="0.8" opacity="0.8"/>
  <path d="M34.4 80.8 Q44 82.6 54.4 80.4" fill="none" stroke="#2a3125" stroke-width="1" opacity="0.7"/>
  <ellipse cx="33.6" cy="74.6" rx="1.6" ry="1" transform="rotate(20 33.6 74.6)" fill="#434d39" opacity="0.55"/><ellipse cx="48.4" cy="67.6" rx="1.4" ry="0.9" transform="rotate(0 48.4 67.6)" fill="#434d39" opacity="0.55"/><ellipse cx="57.6" cy="71" rx="1.6" ry="1" transform="rotate(-30 57.6 71)" fill="#434d39" opacity="0.55"/><ellipse cx="43" cy="78.6" rx="1.2" ry="0.8" transform="rotate(0 43 78.6)" fill="#434d39" opacity="0.55"/>
  <ellipse cx="36.6" cy="77" rx="0.8" ry="0.5" transform="rotate(0 36.6 77)" fill="#c3cbae" opacity="0.4"/><ellipse cx="52.6" cy="74.6" rx="0.7" ry="0.5" transform="rotate(0 52.6 74.6)" fill="#c3cbae" opacity="0.4"/>
  <!-- the stitched tear -->
  <path d="M50.4 74.6 L53.6 77.8" stroke="#3a2a26" stroke-width="0.7"/>
  <path d="M51 76.2 l1.2 -0.8 M52 77.2 l1.2 -0.8" stroke="#958460" stroke-width="0.4"/>
  <!-- vertebrae along the ridge of the back -->
  <g stroke="#0d0a12" stroke-width="0.7">
    <ellipse cx="36" cy="62.6" rx="2.1" ry="1.39" fill="#a5af90"/>
    <ellipse cx="40" cy="62" rx="2.2" ry="1.45" fill="#9ca788"/>
    <ellipse cx="44" cy="62.2" rx="2.1" ry="1.39" fill="#949f80"/>
    <ellipse cx="48" cy="63" rx="2" ry="1.32" fill="#8b9678"/>
    <ellipse cx="51.8" cy="64.2" rx="1.9" ry="1.25" fill="#838e70"/>
    <ellipse cx="55.2" cy="65.8" rx="1.7" ry="1.12" fill="#7b8669"/>
  </g>
  <path d="M34.74 62.08 Q36 61.13 37.05 61.76 M38.68 61.45 Q40 60.46 41.10 61.12 M42.74 61.68 Q44 60.73 45.05 61.36 M46.80 62.50 Q48 61.60 49.00 62.20 M50.66 63.73 Q51.8 62.87 52.75 63.44 M54.18 65.38 Q55.2 64.61 56.05 65.12" fill="none" stroke="#d4dbc0" stroke-width="0.45"/>

  <!-- the burial shroud, rucked up over the hips and spilling onto the ground -->
  <path d="M48 64.6 Q55.6 63 61.6 67 Q64.4 72.4 62.6 79 L64.2 84 L60.6 82.2 L59.8 86.8 L56.8 83 L54.2 87.2 L52.6 82.2 Q53.8 77.4 52.2 73.2 Q49.8 68.4 48 64.6 Z" fill="url(#ggd-shroud)" stroke="#0d0a12" stroke-width="1" stroke-linejoin="round"/>
  <path d="M51.6 65 Q55 69.4 55.6 76 M56 64.4 Q59.4 69.6 59 78 M59.6 66 Q62 71 61.2 79" fill="none" stroke="#615a48" stroke-width="0.6"/>
  <path d="M50 64.4 Q53.4 68.6 54 74" fill="none" stroke="#ebe4ca" stroke-width="0.5" opacity="0.8"/>
  <path d="M57.4 80 q1.4 0.6 1.4 2.6 q-1.4 -0.4 -1.4 -2.6 Z M53.8 70.6 q1.2 0.6 1 2 q-1 -0.4 -1 -2 Z" fill="#6f6048" opacity="0.75"/>
  <!-- rope belt across the small of the back -->
  <path d="M57.8 65.4 L60.8 66.8 Q60.4 75 57.6 82.2 L54.8 81.4 Q57.4 74.4 57.8 65.4 Z" fill="url(#ggd-rope)" stroke="#0d0a12" stroke-width="0.9" stroke-linejoin="round"/>
  <path d="M57.6 68 l2.4 0.6 M57.4 70.6 l2.4 0.6 M57 73.2 l2.4 0.6 M56.6 75.8 l2.4 0.6 M56 78.4 l2.4 0.6" stroke="#4f3a23" stroke-width="0.5"/>
  <ellipse cx="58.6" cy="70.4" rx="1.6" ry="1.4" fill="#8f7044" stroke="#0d0a12" stroke-width="0.6"/>
  <path d="M59.6 71 Q63 72.4 64.4 75.6 M59.4 71.8 Q61.4 74.4 61.6 77.4" fill="none" stroke="#0d0a12" stroke-width="1.4" stroke-linecap="round"/>
  <path d="M59.6 71 Q63 72.4 64.4 75.6 M59.4 71.8 Q61.4 74.4 61.6 77.4" fill="none" stroke="#8f7044" stroke-width="0.65" stroke-linecap="round"/>
  <!-- the gnawed bone it was carrying, rolled out of its hand -->
  <path d="M58.6 88.4 L70.4 85.6 L71 88 L59.2 90.8 Z" fill="url(#ggd-bone)" stroke="#0d0a12" stroke-width="0.9" stroke-linejoin="round"/>
  <circle cx="58" cy="88.6" r="1.6" fill="#ddd2b0" stroke="#0d0a12" stroke-width="0.8"/><circle cx="58.6" cy="91" r="1.5" fill="#b7ab86" stroke="#0d0a12" stroke-width="0.8"/>
  <circle cx="71.4" cy="85.4" r="1.6" fill="#ddd2b0" stroke="#0d0a12" stroke-width="0.8"/><circle cx="72" cy="87.8" r="1.5" fill="#b7ab86" stroke="#0d0a12" stroke-width="0.8"/>
  <path d="M59.4 88.8 L70 86.2" stroke="#fbf5df" stroke-width="0.5" opacity="0.9"/>
  <path d="M60.6 90.4 L69.6 88.2" stroke="#6b6148" stroke-width="0.45"/>
  <!-- tooth marks gnawed into the shaft -->
  <path d="M63 87.4 l0.4 1.4 M64.2 87.1 l0.4 1.4 M65.4 86.8 l0.4 1.4 M66.4 86.6 l0.3 1.2" stroke="#5a4f3a" stroke-width="0.45" stroke-linecap="round"/>
  <path d="M61.2 90 l0.6 -0.8 M68.8 88.2 l0.5 -0.8" stroke="#5a4f3a" stroke-width="0.4"/>
  <circle cx="57.8" cy="88.4" r="0.5" fill="#fbf5df"/>

  <!-- near arm folded back under the flank -->
  <path d="M35.4 78.4 Q39.6 78 40.6 81.6 Q40.4 85.6 39.4 89 L35.4 88.6 Q35 84 35.4 78.4 Z" fill="url(#ggd-skin-dark)" stroke="#0d0a12" stroke-width="1.1" stroke-linejoin="round"/>
  <path d="M36.8 87 Q41 86 45.8 86 L46 90.4 Q41.4 91 37 90.6 Z" fill="url(#ggd-skin)" stroke="#0d0a12" stroke-width="1.1" stroke-linejoin="round"/>
  <ellipse cx="37.4" cy="88.8" rx="2.3" ry="2" fill="#7f8a6c"/>
  <path d="M35 87.4 Q34.8 90.4 37.4 91" fill="none" stroke="#0d0a12" stroke-width="1" stroke-linecap="round"/>
  <path d="M38.6 87.6 Q42 87 45 87.2" fill="none" stroke="#d4dbc0" stroke-width="0.55" opacity="0.85"/>
  <!-- strip of shroud still wound round the forearm -->
  <path d="M41.6 86.4 Q42.8 88.4 42.4 90.8 L44.2 90.8 Q44.6 88.2 43.4 86.2 Z" fill="url(#ggd-shroud)" stroke="#0d0a12" stroke-width="0.6" stroke-linejoin="round"/>
  <path d="M49.6 86.4 L51.6 84.6 L53.4 85.2" fill="none" stroke="#0d0a12" stroke-width="2.6" stroke-linecap="round" stroke-linejoin="round"/><path d="M49.6 86.4 L51.6 84.6 L53.4 85.2" fill="none" stroke="#737e62" stroke-width="1.6" stroke-linecap="round" stroke-linejoin="round"/><circle cx="51.6" cy="84.6" r="0.51" fill="#353d2e" opacity="0.75"/><path d="M50.6 88.4 L53.4 87.8 L54.8 89" fill="none" stroke="#0d0a12" stroke-width="2.6" stroke-linecap="round" stroke-linejoin="round"/><path d="M50.6 88.4 L53.4 87.8 L54.8 89" fill="none" stroke="#737e62" stroke-width="1.6" stroke-linecap="round" stroke-linejoin="round"/><circle cx="53.4" cy="87.8" r="0.51" fill="#353d2e" opacity="0.75"/><path d="M50.4 90.4 L52.8 91 L53.6 92.4" fill="none" stroke="#0d0a12" stroke-width="2.6" stroke-linecap="round" stroke-linejoin="round"/><path d="M50.4 90.4 L52.8 91 L53.6 92.4" fill="none" stroke="#737e62" stroke-width="1.6" stroke-linecap="round" stroke-linejoin="round"/><circle cx="52.8" cy="91" r="0.51" fill="#353d2e" opacity="0.75"/><path d="M53.78 84.55 Q55.84 86.74 55.82 88.21 Q54.54 87.19 53.03 85.85 Z" fill="url(#ggd-claw)" stroke="#0d0a12" stroke-width="0.6" stroke-linejoin="round"/><path d="M53.78 85.12 Q55.03 86.34 55.41 87.33" fill="none" stroke="#f4ecd0" stroke-width="0.35" stroke-linecap="round" opacity="0.85"/><circle cx="54.02" cy="85.56" r="0.41" fill="#2e241c" opacity="0.85"/><path d="M55.37 88.52 Q56.56 91.28 56.04 92.66 Q55.19 91.26 54.23 89.48 Z" fill="url(#ggd-claw)" stroke="#0d0a12" stroke-width="0.6" stroke-linejoin="round"/><path d="M55.19 89.05 Q55.94 90.62 55.96 91.69" fill="none" stroke="#f4ecd0" stroke-width="0.35" stroke-linecap="round" opacity="0.85"/><circle cx="55.26" cy="89.55" r="0.41" fill="#2e241c" opacity="0.85"/><path d="M53.72 91.71 Q56.09 92.13 56.73 91.94 Q55.22 92.73 53.48 93.09 Z" fill="url(#ggd-claw)" stroke="#0d0a12" stroke-width="0.6" stroke-linejoin="round"/><path d="M53.88 92.2 Q55.28 92.39 56.01 92.22" fill="none" stroke="#f4ecd0" stroke-width="0.35" stroke-linecap="round" opacity="0.85"/><circle cx="54.19" cy="92.5" r="0.39" fill="#2e241c" opacity="0.85"/><path d="M45.2 85.6 Q49 84.4 50.8 86.4 Q51.6 89.4 50.4 91.4 Q47.4 92.4 45 90.8 Z" fill="url(#ggd-skin)" stroke="#0d0a12" stroke-width="1" stroke-linejoin="round"/><path d="M46.4 87.6 Q48.2 88.8 49.8 88.2" fill="none" stroke="#353d2e" stroke-width="0.45"/><path d="M46 86.2 Q47.8 85.4 49.6 86" fill="none" stroke="#d4dbc0" stroke-width="0.5"/>
  <!-- far arm flung out past the head -->
  <path d="M33.4 62 Q30.4 58.4 26 58.4 L24.8 62.4 Q29.4 63 32 66.4 Z" fill="url(#ggd-skin-dark)" stroke="#0d0a12" stroke-width="1.1" stroke-linejoin="round"/>
  <path d="M26.8 58.6 Q22.6 57.4 18.6 58 L18.8 62.4 Q22.4 62.6 25.6 62.6 Z" fill="url(#ggd-skin-dark)" stroke="#0d0a12" stroke-width="1.1" stroke-linejoin="round"/>
  <path d="M25 59.2 Q22 58.6 19.6 59" fill="none" stroke="#a9b394" stroke-width="0.55" opacity="0.8"/>
  <path d="M31.4 60.2 Q29 59.2 26.6 59.4" fill="none" stroke="#a9b394" stroke-width="0.55" opacity="0.8"/>
  <ellipse cx="25.8" cy="60.4" rx="2" ry="2.2" fill="#66715a"/>
  <path d="M24.8 58.2 Q27.4 57.6 27.8 59.6" fill="none" stroke="#0d0a12" stroke-width="0.9" stroke-linecap="round"/>
  <ellipse cx="21" cy="60.6" rx="1.2" ry="0.7" transform="rotate(0 21 60.6)" fill="#343c2d" opacity="0.55"/><ellipse cx="30" cy="62" rx="0.9" ry="0.6" transform="rotate(30 30 62)" fill="#343c2d" opacity="0.55"/>
  <g transform="translate(2 0)"><path d="M12.6 58.4 L9.6 56.6 L7.2 57" fill="none" stroke="#0d0a12" stroke-width="2.6" stroke-linecap="round" stroke-linejoin="round"/><path d="M12.6 58.4 L9.6 56.6 L7.2 57" fill="none" stroke="#545e48" stroke-width="1.6" stroke-linecap="round" stroke-linejoin="round"/><circle cx="9.6" cy="56.6" r="0.51" fill="#2a3125" opacity="0.75"/><path d="M11.8 60.6 L8.6 60.2 L6.8 61.6" fill="none" stroke="#0d0a12" stroke-width="2.6" stroke-linecap="round" stroke-linejoin="round"/><path d="M11.8 60.6 L8.6 60.2 L6.8 61.6" fill="none" stroke="#545e48" stroke-width="1.6" stroke-linecap="round" stroke-linejoin="round"/><circle cx="8.6" cy="60.2" r="0.51" fill="#2a3125" opacity="0.75"/><path d="M12.4 62.6 L9.6 63.6 L8.6 65.6" fill="none" stroke="#0d0a12" stroke-width="2.6" stroke-linecap="round" stroke-linejoin="round"/><path d="M12.4 62.6 L9.6 63.6 L8.6 65.6" fill="none" stroke="#545e48" stroke-width="1.6" stroke-linecap="round" stroke-linejoin="round"/><circle cx="9.6" cy="63.6" r="0.51" fill="#2a3125" opacity="0.75"/><path d="M7.27 57.75 Q4.41 58.11 3.74 58.71 Q5.24 57.28 7.13 56.25 Z" fill="url(#ggd-claw)" stroke="#0d0a12" stroke-width="0.6" stroke-linejoin="round"/><path d="M6.94 57.29 Q5.26 57.56 4.48 58.08" fill="none" stroke="#f4ecd0" stroke-width="0.35" stroke-linecap="round" opacity="0.85"/><circle cx="6.48" cy="57.06" r="0.41" fill="#2e241c" opacity="0.85"/><path d="M7.28 62.17 Q5.23 63.96 4.97 64.7 Q5.38 62.81 6.32 61.03 Z" fill="url(#ggd-claw)" stroke="#0d0a12" stroke-width="0.6" stroke-linejoin="round"/><path d="M6.76 61.98 Q5.59 63.07 5.23 63.86" fill="none" stroke="#f4ecd0" stroke-width="0.35" stroke-linecap="round" opacity="0.85"/><circle cx="6.28" cy="62.04" r="0.41" fill="#2e241c" opacity="0.85"/><path d="M9.28 65.85 Q8.46 68.27 8.63 69.02 Q8.03 67.27 7.92 65.35 Z" fill="url(#ggd-claw)" stroke="#0d0a12" stroke-width="0.6" stroke-linejoin="round"/><path d="M8.75 65.93 Q8.33 67.37 8.42 68.19" fill="none" stroke="#f4ecd0" stroke-width="0.35" stroke-linecap="round" opacity="0.85"/><circle cx="8.38" cy="66.2" r="0.4" fill="#2e241c" opacity="0.85"/><path d="M12 57 Q15.6 56 17.4 58.2 Q17.8 61.6 16.2 63.6 Q13.2 64.2 11.6 62.6 Q10.8 59.4 12 57 Z" fill="url(#ggd-skin-dark)" stroke="#0d0a12" stroke-width="1" stroke-linejoin="round"/><path d="M12.8 57.6 Q14.6 56.8 16.4 57.8" fill="none" stroke="#b3bc9f" stroke-width="0.5"/><path d="M13.4 59.6 L16.4 59.4 M13.2 61.6 L16 61.6" stroke="#2a3125" stroke-width="0.45"/><path d="M3.8 58.4 Q5.6 59 7.4 58.8 M4 62.6 Q5.4 63 7 62.8" fill="none" stroke="#2e241c" stroke-width="0.6" stroke-linecap="round" opacity="0.8"/></g>
  <!-- head lying on its cheek in the ichor, jaw slack, sockets dark -->
  <g transform="translate(22.4 75.4) rotate(-38) scale(0.88) translate(-49 -35)">
  <!-- pointed ears, limp -->
  <path d="M40.4 29.4 Q36.4 29.6 32.6 33.4 Q34 34.6 35.6 34.2 L35.2 35.4 Q38.4 35.2 40.8 33.8 Z" fill="url(#ggd-skin-dark)" stroke="#0d0a12" stroke-width="1" stroke-linejoin="round"/>
  <path d="M39.6 31 Q36.8 31.6 34.6 33.6" fill="none" stroke="#2a3125" stroke-width="0.6"/>
  <path d="M57.8 29.6 Q62.8 27.2 66.2 22.4 Q65.2 27.6 63 30.4 L64.2 31.2 Q61.2 33.2 57.6 33.6 Z" fill="url(#ggd-skin)" stroke="#0d0a12" stroke-width="1" stroke-linejoin="round"/>
  <path d="M58.8 30.6 Q62.2 28.6 64.6 25.4" fill="none" stroke="#353d2e" stroke-width="0.6"/>
  <path d="M59.4 29 Q62.4 27.2 64.4 24.4" fill="none" stroke="#d4dbc0" stroke-width="0.5" opacity="0.8"/>
  <!-- lower jaw, slack and hanging open -->
  <path d="M41.8 37.4 Q49 39.4 56.4 37.4 Q56.8 43.2 53.8 46.4 Q49.2 48.4 44.6 46.4 Q41.4 43.2 41.8 37.4 Z" fill="url(#ggd-skin-v)" stroke="#0d0a12" stroke-width="1.1" stroke-linejoin="round"/>
  <path d="M54.8 41.6 Q54.4 44.4 52 45.8" fill="none" stroke="#d4dbc0" stroke-width="0.5" opacity="0.7"/>
  <!-- cranium -->
  <path d="M39.6 32 Q38.6 24.6 44 22.6 Q49 21 54.2 22.6 Q59.6 24.8 58.8 32 Q58.6 36 56.4 38.6 Q49 40.4 41.8 38.6 Q39.8 36 39.6 32 Z" fill="url(#ggd-skin)" stroke="#0d0a12" stroke-width="1.2" stroke-linejoin="round"/>
  <path d="M51 23.2 Q55.6 23.8 57.4 28" fill="none" stroke="#d4dbc0" stroke-width="1.1" stroke-linecap="round" opacity="0.85"/>
  <path d="M40.6 29 Q40.2 34 42.4 37.4" fill="none" stroke="#2a3125" stroke-width="0.8" stroke-linecap="round"/>
  <ellipse cx="54.6" cy="25.2" rx="1.6" ry="1" transform="rotate(20 54.6 25.2)" fill="#434d39" opacity="0.55"/><ellipse cx="42.2" cy="33.8" rx="1" ry="0.7" transform="rotate(0 42.2 33.8)" fill="#434d39" opacity="0.55"/><ellipse cx="56.6" cy="31.2" rx="0.9" ry="1.3" transform="rotate(0 56.6 31.2)" fill="#434d39" opacity="0.55"/>
  <path d="M45 22.8 Q41.6 24 40.2 28.8 M46.4 22.4 Q42.6 25.6 42 30 M52.6 22.4 Q56.6 23.4 58.2 27.6" fill="none" stroke="#2b2c26" stroke-width="0.55" stroke-linecap="round"/>
  <path d="M45.2 25.6 Q48.6 24.8 52.4 25.6 M46 27 Q48.8 26.4 51.6 27" fill="none" stroke="#353d2e" stroke-width="0.45"/>
  <!-- empty, dark sockets: the hunger gone out of them -->
  <path d="M41.4 30.2 Q44.4 29.6 47.6 31.6 Q46.8 33.8 44.4 33.8 Q41.8 33.4 41.4 30.2 Z" fill="#100d0b" stroke="#0d0a12" stroke-width="0.6"/>
  <path d="M57 30.2 Q54 29.6 50.8 31.6 Q51.6 33.8 54 33.8 Q56.6 33.4 57 30.2 Z" fill="#100d0b" stroke="#0d0a12" stroke-width="0.6"/>
  <!-- heavy lids drooped half shut over the dead sockets -->
  <path d="M41.2 30 Q44.4 29.2 47.8 31.4 Q44.8 32.6 41.6 31.8 Z" fill="#7d8869" stroke="#0d0a12" stroke-width="0.6" stroke-linejoin="round"/>
  <path d="M57.2 30 Q54 29.2 50.6 31.4 Q53.6 32.6 56.8 31.8 Z" fill="#7d8869" stroke="#0d0a12" stroke-width="0.6" stroke-linejoin="round"/>
  <path d="M42 31.6 Q44.6 32.4 47 31.6 M51.4 31.6 Q53.8 32.4 56.4 31.6" fill="none" stroke="#2a2b22" stroke-width="0.5"/>
  <path d="M41 28.6 Q44.4 27.6 47.4 29 M57.4 28.6 Q54 27.6 51 29" fill="none" stroke="#0d0a12" stroke-width="0.8" stroke-linecap="round"/>
  <path d="M48.2 33.4 Q47.6 35 48.4 35.4 Q48.9 34.6 48.6 33.4 Z M50.2 33.4 Q50.8 35 50 35.4 Q49.5 34.6 49.8 33.4 Z" fill="#1c1a14"/>
  <path d="M41.6 35.8 Q42.6 37.6 43.4 38.4 M56.8 35.8 Q55.8 37.6 55 38.4" fill="none" stroke="#2a3125" stroke-width="0.7"/>
  <!-- the slack maw -->
  <path d="M43 37.6 Q49.2 39.4 55.4 37.6 Q55.4 41.8 53.2 43.6 Q49.2 44.8 45.2 43.6 Q43 41.8 43 37.6 Z" fill="url(#ggd-maw)" stroke="#0d0a12" stroke-width="0.7"/>
  <path d="M43.2 37.6 Q49.2 39.6 55.2 37.6 L55 38.6 Q49.2 40.4 43.4 38.6 Z" fill="#5a3434"/>
  <path d="M44 38.4 L44.8 40.4 L45.4 38.7 L46.2 40.2 L46.8 38.9 L47.6 41.2 L48.4 39 L49.2 40.6 L50 39 L50.8 41.2 L51.6 38.9 L52.2 40.2 L53 38.7 L53.6 40.4 L54.4 38.4 Z" fill="#c9bf9e" stroke="#0d0a12" stroke-width="0.35" stroke-linejoin="round"/>
  <path d="M45.4 43.4 L46 41.8 L46.6 43.6 L47.4 42.2 L48.2 44 L49 42.4 L49.8 44.2 L50.6 42.4 L51.4 44 L52 42 L52.8 43.4 Q49.2 45 45.4 43.4 Z" fill="#c4b994" stroke="#0d0a12" stroke-width="0.35" stroke-linejoin="round"/>
  <!-- tongue lolling out of the slack jaw -->
  <path d="M49.6 43.2 Q52.6 42.6 54.4 44.6 Q56 47.6 54.6 49.8 Q53 50.4 52.4 48.6 Q52.2 46.2 49.6 44.4 Z" fill="#6e3038" stroke="#0d0a12" stroke-width="0.6" stroke-linejoin="round"/>
  <path d="M51.6 44 Q53.6 45 54 47.6" fill="none" stroke="#a24d58" stroke-width="0.4"/>
  <!-- one tooth knocked loose -->
  <path d="M47.4 41.2 L48.4 41.2 L47.9 42.6 Z" fill="#0d0a12"/>
  </g>
  <!-- the knocked-out tooth, lying in the muck -->
  <path d="M12.6 88.4 L14.4 88 L13.8 90 Z" fill="#d6ccac" stroke="#0d0a12" stroke-width="0.4" stroke-linejoin="round"/>
  <!-- clods of grave dirt and a few pebbles -->
  <g fill="#4b3b2c" stroke="#0d0a12" stroke-width="0.3">
    <ellipse cx="6.8" cy="78" rx="1.3" ry="0.7"/><ellipse cx="88.4" cy="91" rx="1.1" ry="0.6"/><ellipse cx="30.4" cy="93" rx="1.2" ry="0.6"/>
    <ellipse cx="76.4" cy="91.6" rx="0.8" ry="0.5"/><ellipse cx="20.4" cy="57.6" rx="0.8" ry="0.5"/>
  </g>
  <g fill="#3a3346" stroke="#0d0a12" stroke-width="0.3">
    <ellipse cx="41" cy="94" rx="1" ry="0.6"/><ellipse cx="90" cy="76" rx="0.8" ry="0.5"/>
  </g>
</svg>
