<svg xmlns="http://www.w3.org/2000/svg" viewBox="0 0 96 96" width="96" height="96">
  <!-- Thorn Dryad, fallen: withered to a kneeling husk of dry, cracked bark, head bowed, one antler snapped, her leaves turned brown and shed in a ring around her. The blossom staff lies broken in two, its flowers dead. One last green sprout rises from her open palm. Lit from the upper left. -->
  <defs>
    <linearGradient id="tdd-bark" x1="0" y1="0" x2="1" y2="1">
      <stop offset="0" stop-color="#b3aa9b"/>
      <stop offset="0.45" stop-color="#7a7164"/>
      <stop offset="1" stop-color="#3e3832"/>
    </linearGradient>
    <linearGradient id="tdd-bark-dk" x1="0" y1="0" x2="1" y2="1">
      <stop offset="0" stop-color="#857c6e"/>
      <stop offset="1" stop-color="#34302b"/>
    </linearGradient>
    <linearGradient id="tdd-face" x1="0.2" y1="0" x2="0.8" y2="1">
      <stop offset="0" stop-color="#bdb3a3"/>
      <stop offset="0.5" stop-color="#8a8070"/>
      <stop offset="1" stop-color="#4e4740"/>
    </linearGradient>
    <linearGradient id="tdd-dry" x1="0" y1="0" x2="1" y2="1">
      <stop offset="0" stop-color="#c9a160"/>
      <stop offset="0.5" stop-color="#93683a"/>
      <stop offset="1" stop-color="#553a22"/>
    </linearGradient>
    <linearGradient id="tdd-dry-lt" x1="0" y1="0" x2="1" y2="1">
      <stop offset="0" stop-color="#dcbc7c"/>
      <stop offset="1" stop-color="#a27a40"/>
    </linearGradient>
    <linearGradient id="tdd-dry-dk" x1="0" y1="0" x2="1" y2="1">
      <stop offset="0" stop-color="#7d5a34"/>
      <stop offset="1" stop-color="#3a2818"/>
    </linearGradient>
    <linearGradient id="tdd-wither" x1="0" y1="0" x2="1" y2="1">
      <stop offset="0" stop-color="#9a9a5c"/>
      <stop offset="0.55" stop-color="#6a6a3c"/>
      <stop offset="1" stop-color="#3a3a24"/>
    </linearGradient>
    <linearGradient id="tdd-gown" x1="0" y1="0" x2="1" y2="1">
      <stop offset="0" stop-color="#a58a52"/>
      <stop offset="0.55" stop-color="#6c5532"/>
      <stop offset="1" stop-color="#352818"/>
    </linearGradient>
    <linearGradient id="tdd-wood" x1="0" y1="0" x2="1" y2="1">
      <stop offset="0" stop-color="#a99070"/>
      <stop offset="0.5" stop-color="#6e5640"/>
      <stop offset="1" stop-color="#3a2c20"/>
    </linearGradient>
    <linearGradient id="tdd-petal" x1="0" y1="0" x2="1" y2="1">
      <stop offset="0" stop-color="#d8ccb2"/>
      <stop offset="1" stop-color="#8a7656"/>
    </linearGradient>
    <linearGradient id="tdd-moss" x1="0" y1="0" x2="0" y2="1">
      <stop offset="0" stop-color="#9c9a62"/>
      <stop offset="1" stop-color="#5a5634"/>
    </linearGradient>
    <radialGradient id="tdd-litter" cx="0.5" cy="0.5" r="0.5">
      <stop offset="0" stop-color="#4a3824"/>
      <stop offset="0.7" stop-color="#33261a"/>
      <stop offset="1" stop-color="#211912"/>
    </radialGradient>
    <linearGradient id="tdd-sprout" x1="0" y1="0" x2="1" y2="1">
      <stop offset="0" stop-color="#c8f08a"/>
      <stop offset="1" stop-color="#4f9a48"/>
    </linearGradient>
  </defs>

  <!-- a bed of dead leaf litter under the husk -->
  <path d="M12 86 Q14 78 30 76.4 Q48 74.6 66 76.4 Q82 78 85 85 Q84 91.6 66 93 Q48 94.4 30 93 Q12 91.6 12 86 Z" fill="url(#tdd-litter)" stroke="#0d0a12" stroke-width="1" stroke-linejoin="round"/>
  <path d="M18 83 Q24 79.6 34 78.6 M62 78.6 Q74 79.6 80 83" fill="none" stroke="#4e3c28" stroke-width="0.6" opacity="0.8"/>
  <!-- the ring of fallen leaves -->
  <g><path d="M84.19 85.31 Q83.32 87.92 85.96 89.56 Q86.65 86.54 84.19 85.31 Z" fill="url(#tdd-dry)" stroke="#0d0a12" stroke-width="0.6" stroke-linejoin="round"/><path d="M84.4 85.82 Q84.79 87.31 85.64 88.8" fill="none" stroke="#3a2614" stroke-width="0.4" opacity="0.75"/><path d="M84.18 86.07 Q83.96 87.65 85.57 88.63" fill="none" stroke="#ecd3a0" stroke-width="0.45" stroke-linecap="round" opacity="0.6"/><path d="M82.65 87.41 Q79.71 87.68 79.16 90.99 Q82.45 90.35 82.65 87.41 Z" fill="url(#tdd-dry-lt)" stroke="#0d0a12" stroke-width="0.6" stroke-linejoin="round"/><path d="M82.23 87.84 Q80.91 88.86 79.78 90.34" fill="none" stroke="#3a2614" stroke-width="0.4" opacity="0.75"/><path d="M78.97 89.41 Q75.8 89.36 74.76 92.8 Q78.35 92.52 78.97 89.41 Z" fill="url(#tdd-dry-dk)" stroke="#0d0a12" stroke-width="0.6" stroke-linejoin="round"/><path d="M78.46 89.82 Q76.92 90.75 75.52 92.19" fill="none" stroke="#3a2614" stroke-width="0.4" opacity="0.75"/><path d="M73.3 91.21 Q69.95 90.77 68.38 94.28 Q72.23 94.41 73.3 91.21 Z" fill="url(#tdd-dry)" stroke="#0d0a12" stroke-width="0.6" stroke-linejoin="round"/><path d="M72.71 91.58 Q70.95 92.37 69.27 93.73" fill="none" stroke="#3a2614" stroke-width="0.4" opacity="0.75"/><path d="M72.41 91.41 Q70.39 91.46 69.47 93.6" fill="none" stroke="#ecd3a0" stroke-width="0.45" stroke-linecap="round" opacity="0.6"/><path d="M64.82 91.95 Q62.08 91.19 60.48 93.99 Q63.66 94.55 64.82 91.95 Z" fill="url(#tdd-wither)" stroke="#0d0a12" stroke-width="0.6" stroke-linejoin="round"/><path d="M64.3 92.2 Q62.77 92.67 61.26 93.63" fill="none" stroke="#3a2614" stroke-width="0.4" opacity="0.75"/><path d="M56.65 92.9 Q53.81 91.77 51.71 94.54 Q55.04 95.51 56.65 92.9 Z" fill="url(#tdd-dry-lt)" stroke="#0d0a12" stroke-width="0.6" stroke-linejoin="round"/><path d="M56.05 93.1 Q54.35 93.41 52.6 94.24" fill="none" stroke="#3a2614" stroke-width="0.4" opacity="0.75"/><path d="M47.65 93.37 Q44.77 91.83 42.16 94.49 Q45.59 95.92 47.65 93.37 Z" fill="url(#tdd-dry)" stroke="#0d0a12" stroke-width="0.6" stroke-linejoin="round"/><path d="M46.99 93.5 Q45.13 93.63 43.15 94.28" fill="none" stroke="#3a2614" stroke-width="0.4" opacity="0.75"/><path d="M46.77 93.24 Q44.92 92.61 43.37 94.24" fill="none" stroke="#ecd3a0" stroke-width="0.45" stroke-linecap="round" opacity="0.6"/><path d="M38.94 92.53 Q36.73 90.9 34.36 92.9 Q37.02 94.49 38.94 92.53 Z" fill="url(#tdd-dry-lt)" stroke="#0d0a12" stroke-width="0.6" stroke-linejoin="round"/><path d="M38.39 92.58 Q36.86 92.48 35.18 92.84" fill="none" stroke="#3a2614" stroke-width="0.4" opacity="0.75"/><path d="M30.42 91.98 Q28.24 89.98 25.42 91.79 Q28.1 93.81 30.42 91.98 Z" fill="url(#tdd-dry-dk)" stroke="#0d0a12" stroke-width="0.6" stroke-linejoin="round"/><path d="M29.82 91.96 Q28.18 91.66 26.32 91.82" fill="none" stroke="#3a2614" stroke-width="0.4" opacity="0.75"/><path d="M22.63 90.92 Q23.65 87.93 20.7 85.88 Q19.86 89.38 22.63 90.92 Z" fill="url(#tdd-dry)" stroke="#0d0a12" stroke-width="0.6" stroke-linejoin="round"/><path d="M22.4 90.32 Q21.99 88.57 21.05 86.79" fill="none" stroke="#3a2614" stroke-width="0.4" opacity="0.75"/><path d="M22.06 90.27 Q20.58 89.1 21.12 86.99" fill="none" stroke="#ecd3a0" stroke-width="0.45" stroke-linecap="round" opacity="0.6"/><path d="M16.07 89.4 Q17.51 86.35 14.66 83.78 Q13.35 87.39 16.07 89.4 Z" fill="url(#tdd-wither)" stroke="#0d0a12" stroke-width="0.6" stroke-linejoin="round"/><path d="M15.9 88.73 Q15.68 86.81 14.91 84.79" fill="none" stroke="#3a2614" stroke-width="0.4" opacity="0.75"/><path d="M13.43 87.22 Q15 84.84 12.83 82.45 Q11.32 85.31 13.43 87.22 Z" fill="url(#tdd-dry-lt)" stroke="#0d0a12" stroke-width="0.6" stroke-linejoin="round"/><path d="M13.36 86.64 Q13.38 85.04 12.94 83.31" fill="none" stroke="#3a2614" stroke-width="0.4" opacity="0.75"/><path d="M10.71 85.2 Q12.66 82.84 10.67 80 Q8.72 82.87 10.71 85.2 Z" fill="url(#tdd-dry)" stroke="#0d0a12" stroke-width="0.6" stroke-linejoin="round"/><path d="M10.7 84.57 Q10.93 82.85 10.68 80.93" fill="none" stroke="#3a2614" stroke-width="0.4" opacity="0.75"/><path d="M10.4 84.42 Q9.47 82.87 10.68 81.14" fill="none" stroke="#ecd3a0" stroke-width="0.45" stroke-linecap="round" opacity="0.6"/><path d="M10.11 83.01 Q12.46 80.74 10.74 77.45 Q8.32 80.27 10.11 83.01 Z" fill="url(#tdd-dry-lt)" stroke="#0d0a12" stroke-width="0.6" stroke-linejoin="round"/><path d="M10.18 82.34 Q10.64 80.54 10.62 78.45" fill="none" stroke="#3a2614" stroke-width="0.4" opacity="0.75"/><path d="M13.99 81.08 Q16.22 79.48 15.05 76.6 Q12.72 78.65 13.99 81.08 Z" fill="url(#tdd-dry-dk)" stroke="#0d0a12" stroke-width="0.6" stroke-linejoin="round"/><path d="M14.12 80.54 Q14.68 79.11 14.86 77.41" fill="none" stroke="#3a2614" stroke-width="0.4" opacity="0.75"/><path d="M17.59 79.12 Q20.16 77.67 19.31 74.42 Q16.57 76.35 17.59 79.12 Z" fill="url(#tdd-dry)" stroke="#0d0a12" stroke-width="0.6" stroke-linejoin="round"/><path d="M17.8 78.56 Q18.58 77.09 19 75.27" fill="none" stroke="#3a2614" stroke-width="0.4" opacity="0.75"/><path d="M17.57 78.31 Q17.25 76.6 18.93 75.46" fill="none" stroke="#ecd3a0" stroke-width="0.45" stroke-linecap="round" opacity="0.6"/><path d="M23.15 77.37 Q26.06 76.12 25.6 72.55 Q22.44 74.28 23.15 77.37 Z" fill="url(#tdd-wither)" stroke="#0d0a12" stroke-width="0.6" stroke-linejoin="round"/><path d="M23.44 76.79 Q24.47 75.31 25.16 73.42" fill="none" stroke="#3a2614" stroke-width="0.4" opacity="0.75"/><path d="M65.26 76.62 Q66.1 79.23 69.19 79.01 Q67.96 76.16 65.26 76.62 Z" fill="url(#tdd-dry)" stroke="#0d0a12" stroke-width="0.6" stroke-linejoin="round"/><path d="M65.73 76.91 Q66.92 77.88 68.48 78.58" fill="none" stroke="#3a2614" stroke-width="0.4" opacity="0.75"/><path d="M72.91 77.65 Q73.5 80.54 76.85 80.73 Q75.86 77.53 72.91 77.65 Z" fill="url(#tdd-wither)" stroke="#0d0a12" stroke-width="0.6" stroke-linejoin="round"/><path d="M73.39 78.02 Q74.54 79.21 76.14 80.17" fill="none" stroke="#3a2614" stroke-width="0.4" opacity="0.75"/><path d="M73.69 77.87 Q75.42 78.1 75.98 80.05" fill="none" stroke="#ecd3a0" stroke-width="0.45" stroke-linecap="round" opacity="0.6"/><path d="M79.36 79.12 Q79.65 82.28 83.19 82.94 Q82.52 79.4 79.36 79.12 Z" fill="url(#tdd-dry-lt)" stroke="#0d0a12" stroke-width="0.6" stroke-linejoin="round"/><path d="M79.82 79.58 Q80.91 81.01 82.5 82.25" fill="none" stroke="#3a2614" stroke-width="0.4" opacity="0.75"/><path d="M84.18 80.99 Q84.11 84.36 87.77 85.54 Q87.47 81.71 84.18 80.99 Z" fill="url(#tdd-dry)" stroke="#0d0a12" stroke-width="0.6" stroke-linejoin="round"/><path d="M84.61 81.53 Q85.59 83.2 87.12 84.72" fill="none" stroke="#3a2614" stroke-width="0.4" opacity="0.75"/><path d="M84.61 83.23 Q84.15 86.04 87.11 87.33 Q87.32 84.11 84.61 83.23 Z" fill="url(#tdd-dry-lt)" stroke="#0d0a12" stroke-width="0.6" stroke-linejoin="round"/><path d="M84.91 83.72 Q85.55 85.19 86.66 86.59" fill="none" stroke="#3a2614" stroke-width="0.4" opacity="0.75"/><path d="M84.73 84 Q84.76 85.67 86.56 86.42" fill="none" stroke="#ecd3a0" stroke-width="0.45" stroke-linecap="round" opacity="0.6"/><path d="M16 84.6 Q16.84 86.93 19.64 86.7 Q18.44 84.16 16 84.6 Z" fill="url(#tdd-dry-lt)" stroke="#0d0a12" stroke-width="0.6" stroke-linejoin="round"/><path d="M79.6 86.4 Q77.28 85.54 75.65 87.84 Q78.37 88.55 79.6 86.4 Z" fill="url(#tdd-dry)" stroke="#0d0a12" stroke-width="0.6" stroke-linejoin="round"/><path d="M24 91.6 Q26.2 92.39 27.76 90.23 Q25.18 89.57 24 91.6 Z" fill="url(#tdd-dry-dk)" stroke="#0d0a12" stroke-width="0.6" stroke-linejoin="round"/><path d="M24.46 91.11 Q25.37 90.11 26.93 90.53" fill="none" stroke="#ecd3a0" stroke-width="0.45" stroke-linecap="round" opacity="0.6"/><path d="M72.4 91.2 Q71.22 89.17 68.64 89.83 Q70.2 91.99 72.4 91.2 Z" fill="url(#tdd-dry-lt)" stroke="#0d0a12" stroke-width="0.6" stroke-linejoin="round"/><path d="M38 92.6 Q39.35 94.26 41.55 93.23 Q39.84 91.5 38 92.6 Z" fill="url(#tdd-dry)" stroke="#0d0a12" stroke-width="0.6" stroke-linejoin="round"/></g>
  <g fill="url(#tdd-dry-dk)" stroke="#0d0a12" stroke-width="0.5" stroke-linejoin="round">
    <path d="M22.6 89 q1.6 -2 3.2 -0.4 q-0.6 1.6 -2.2 1.4 Z"/><path d="M74 85.6 q1.4 -1.8 3 -0.6 q-0.4 1.6 -2 1.6 Z"/><path d="M50.6 92 q1.2 -1.6 2.6 -0.4 q-0.4 1.4 -1.8 1.2 Z"/>
  </g>
  <!-- the living staff, snapped in two: the lower shaft on the left -->
  <path d="M8.97 88.49 L12.52 87.43 L15.93 85.47 L19.31 83.9 L22.57 82.66 L26.13 81.55 L29.54 79.56 L28.46 77.53 L25.07 79.18 L21.83 80.48 L18.29 81.5 L14.87 83.43 L11.48 85.04 L8.23 86.31 Z" fill="url(#tdd-wood)" stroke="#0d0a12" stroke-width="0.95" stroke-linejoin="round"/>
  <path d="M11 85.8 Q13 85.4 14.4 84.2 M16.4 83.6 Q18.6 83.4 19.8 82 M22 81.4 Q24 81.2 25.4 79.8" fill="none" stroke="#2a1e14" stroke-width="0.5"/>
  <path d="M10 85.4 L27.6 77.8" stroke="#cdb594" stroke-width="0.45" opacity="0.7"/>
  <path d="M28.4 77.2 L30.4 76.2 L29.8 77.6 L31.6 77.6 L30 78.6 L31 79.8 L29.2 79.6 Z" fill="#c9b08a" stroke="#0d0a12" stroke-width="0.6" stroke-linejoin="round"/>
  <ellipse cx="18" cy="83.2" rx="1.1" ry="0.75" fill="#4a3624" stroke="#0d0a12" stroke-width="0.4"/>
  <!-- ...and the crown end on the right, its blossoms dead and brown -->
  <path d="M66.34 89.7 L69.46 88.9 L72.44 87.15 L75.33 85.94 L78.19 85.04 L81.33 84.24 L80.27 81.43 L77.49 82.85 L74.43 83.5 L71.4 85.1 L68.46 86.5 L65.66 87.5 Z" fill="url(#tdd-wood)" stroke="#0d0a12" stroke-width="0.95" stroke-linejoin="round"/>
  <path d="M68.4 87 Q70 86.8 71 85.6 M73.4 85.8 Q75 85.6 76 84.4" fill="none" stroke="#2a1e14" stroke-width="0.5"/>
  <path d="M67.4 87.2 L79.6 82.4" stroke="#cdb594" stroke-width="0.45" opacity="0.6"/>
  <path d="M66.6 87.4 L64.4 88.2 L65.4 88.6 L63.8 89.8 L65.8 89.6 L65.4 90.8 L67 89.6 Z" fill="#c9b08a" stroke="#0d0a12" stroke-width="0.6" stroke-linejoin="round"/>
  <path d="M80.8 82.6 C82.6 80.6 84.6 80 86.6 80.6 M80.8 82.6 C82 80 82.4 78 84 76.6 M80.8 82.6 C83 83.2 85.4 84.6 87.4 84.2" fill="none" stroke="#0d0a12" stroke-width="2.4" stroke-linecap="round"/><path d="M80.8 82.6 C82.6 80.6 84.6 80 86.6 80.6 M80.8 82.6 C82 80 82.4 78 84 76.6 M80.8 82.6 C83 83.2 85.4 84.6 87.4 84.2" fill="none" stroke="#6a5038" stroke-width="1.3" stroke-linecap="round"/>
  <ellipse cx="87.68" cy="80.67" rx="1.36" ry="0.92" transform="rotate(20 87.68 80.67)" fill="url(#tdd-petal)" stroke="#3a2c1c" stroke-width="0.4"/><ellipse cx="85.93" cy="81.48" rx="1.36" ry="0.92" transform="rotate(110 85.93 81.48)" fill="url(#tdd-petal)" stroke="#3a2c1c" stroke-width="0.4"/><ellipse cx="85.12" cy="79.73" rx="1.36" ry="0.92" transform="rotate(200 85.12 79.73)" fill="url(#tdd-petal)" stroke="#3a2c1c" stroke-width="0.4"/><ellipse cx="86.87" cy="78.92" rx="1.36" ry="0.92" transform="rotate(290 86.87 78.92)" fill="url(#tdd-petal)" stroke="#3a2c1c" stroke-width="0.4"/><circle cx="86.4" cy="80.2" r="0.66" fill="#6a5430" stroke="#3a2c1c" stroke-width="0.3"/>
  <ellipse cx="84.2" cy="77.55" rx="1.24" ry="0.84" transform="rotate(50 84.2 77.55)" fill="url(#tdd-petal)" stroke="#3a2c1c" stroke-width="0.4"/><ellipse cx="82.18" cy="76.82" rx="1.24" ry="0.84" transform="rotate(170 82.18 76.82)" fill="url(#tdd-petal)" stroke="#3a2c1c" stroke-width="0.4"/><ellipse cx="83.82" cy="75.43" rx="1.24" ry="0.84" transform="rotate(290 83.82 75.43)" fill="url(#tdd-petal)" stroke="#3a2c1c" stroke-width="0.4"/><circle cx="83.4" cy="76.6" r="0.6" fill="#6a5430" stroke="#3a2c1c" stroke-width="0.3"/>
  <ellipse cx="88.32" cy="84.4" rx="1.12" ry="0.76" transform="rotate(0 88.32 84.4)" fill="url(#tdd-petal)" stroke="#3a2c1c" stroke-width="0.4"/><ellipse cx="87.2" cy="85.52" rx="1.12" ry="0.76" transform="rotate(90 87.2 85.52)" fill="url(#tdd-petal)" stroke="#3a2c1c" stroke-width="0.4"/><ellipse cx="86.08" cy="84.4" rx="1.12" ry="0.76" transform="rotate(180 86.08 84.4)" fill="url(#tdd-petal)" stroke="#3a2c1c" stroke-width="0.4"/><ellipse cx="87.2" cy="83.28" rx="1.12" ry="0.76" transform="rotate(270 87.2 83.28)" fill="url(#tdd-petal)" stroke="#3a2c1c" stroke-width="0.4"/><circle cx="87.2" cy="84.4" r="0.54" fill="#6a5430" stroke="#3a2c1c" stroke-width="0.3"/>
  <path d="M84 82.6 Q82.55 83.9 83.41 85.95 Q84.92 84.32 84 82.6 Z" fill="url(#tdd-dry-dk)" stroke="#0d0a12" stroke-width="0.5" stroke-linejoin="round"/><path d="M81.6 80 Q81.88 78.28 80.1 77.4 Q79.97 79.38 81.6 80 Z" fill="url(#tdd-dry)" stroke="#0d0a12" stroke-width="0.5" stroke-linejoin="round"/>
  <path d="M78.4 89.6 q0.99 -0.81 1.8 0 q-0.81 0.9 -1.8 0 Z" transform="rotate(20 78.4 89.6)" fill="#b8a888" stroke="#3a2c1c" stroke-width="0.3" opacity="1"/><path d="M89.6 88.6 q0.88 -0.72 1.6 0 q-0.72 0.8 -1.6 0 Z" transform="rotate(-30 89.6 88.6)" fill="#a8987a" stroke="#3a2c1c" stroke-width="0.3" opacity="1"/><path d="M74.6 79.6 q0.88 -0.72 1.6 0 q-0.72 0.8 -1.6 0 Z" transform="rotate(60 74.6 79.6)" fill="#b8a888" stroke="#3a2c1c" stroke-width="0.3" opacity="1"/>
  <!-- root-toes splayed out behind the kneeling legs -->
  <path d="M27 82.6 Q22 82.2 18.4 84.2 Q22.4 83.8 27.6 84.6 Z" fill="url(#tdd-bark-dk)" stroke="#0d0a12" stroke-width="0.8" stroke-linejoin="round"/><path d="M27.4 84.4 Q23.6 85.6 21.4 88 Q24.6 86.4 28.4 86 Z" fill="url(#tdd-bark-dk)" stroke="#0d0a12" stroke-width="0.8" stroke-linejoin="round"/><path d="M69 82.6 Q74 82.2 77.4 84 Q73.6 83.8 68.4 84.6 Z" fill="url(#tdd-bark-dk)" stroke="#0d0a12" stroke-width="0.8" stroke-linejoin="round"/><path d="M68.6 84.4 Q72.6 85.8 74.6 88.2 Q71.4 86.4 67.6 86 Z" fill="url(#tdd-bark-dk)" stroke="#0d0a12" stroke-width="0.8" stroke-linejoin="round"/>
  <!-- the gown, withered brown, pooled around her knees -->
  <path d="M39.4 67 Q29 73 24.4 86.4 Q36 90.6 48 90.2 Q60 90.6 71.6 86.4 Q67 73 56.6 67 Z" fill="url(#tdd-gown)" stroke="#0d0a12" stroke-width="1.1" stroke-linejoin="round"/>
  <path d="M34 76 Q31.4 80.6 30.4 86 M62.4 76 Q65 80.6 66 86" fill="none" stroke="#231c10" stroke-width="0.6"/>
  <path d="M38 70 Q32 75 28 83" fill="none" stroke="#b4a466" stroke-width="0.6" opacity="0.6"/>
  <g><path d="M25.6 84.6 Q22.24 83.27 19.96 86.65 Q23.88 87.78 25.6 84.6 Z" fill="url(#tdd-dry-dk)" stroke="#0d0a12" stroke-width="0.7" stroke-linejoin="round"/><path d="M24.92 84.85 Q22.96 85.25 20.98 86.28" fill="none" stroke="#2e1e0e" stroke-width="0.4" opacity="0.75"/><path d="M24.65 84.63 Q22.55 84.13 21.2 86.2" fill="none" stroke="#e2c48c" stroke-width="0.45" stroke-linecap="round" opacity="0.55"/><path d="M29.4 86.6 Q25.99 86.46 25.11 90.2 Q28.95 89.98 29.4 86.6 Z" fill="url(#tdd-dry)" stroke="#0d0a12" stroke-width="0.7" stroke-linejoin="round"/><path d="M28.89 87.03 Q27.29 88.01 25.88 89.55" fill="none" stroke="#2e1e0e" stroke-width="0.4" opacity="0.75"/><path d="M28.56 86.91 Q26.55 87.13 26.05 89.41" fill="none" stroke="#e2c48c" stroke-width="0.45" stroke-linecap="round" opacity="0.55"/><path d="M34.4 88.2 Q31.46 89.31 32.29 92.73 Q35.44 91.17 34.4 88.2 Z" fill="url(#tdd-dry-lt)" stroke="#0d0a12" stroke-width="0.7" stroke-linejoin="round"/><path d="M34.15 88.74 Q33.21 90.13 32.67 91.92" fill="none" stroke="#2e1e0e" stroke-width="0.4" opacity="0.75"/><path d="M33.81 88.75 Q32.21 89.66 32.75 91.73" fill="none" stroke="#e2c48c" stroke-width="0.45" stroke-linecap="round" opacity="0.55"/><path d="M39.6 88.8 Q37.27 90.49 38.8 93.33 Q41.21 91.19 39.6 88.8 Z" fill="url(#tdd-dry)" stroke="#0d0a12" stroke-width="0.7" stroke-linejoin="round"/><path d="M39.5 89.34 Q39 90.8 38.94 92.51" fill="none" stroke="#2e1e0e" stroke-width="0.4" opacity="0.75"/><path d="M39.18 89.43 Q38.02 90.62 38.98 92.33" fill="none" stroke="#e2c48c" stroke-width="0.45" stroke-linecap="round" opacity="0.55"/><path d="M44.6 89.2 Q42.64 91.02 44.45 93.4 Q46.43 91.16 44.6 89.2 Z" fill="url(#tdd-wither)" stroke="#0d0a12" stroke-width="0.7" stroke-linejoin="round"/><path d="M50 89.2 Q48.24 91.22 50.29 93.39 Q52.03 90.95 50 89.2 Z" fill="url(#tdd-dry)" stroke="#0d0a12" stroke-width="0.7" stroke-linejoin="round"/><path d="M55.2 88.8 Q53.67 91.24 56.16 93.3 Q57.59 90.41 55.2 88.8 Z" fill="url(#tdd-dry-dk)" stroke="#0d0a12" stroke-width="0.7" stroke-linejoin="round"/><path d="M55.31 89.34 Q55.4 90.87 55.98 92.49" fill="none" stroke="#2e1e0e" stroke-width="0.4" opacity="0.75"/><path d="M60.6 88.2 Q59.61 91.19 62.79 92.69 Q63.56 89.26 60.6 88.2 Z" fill="url(#tdd-dry)" stroke="#0d0a12" stroke-width="0.7" stroke-linejoin="round"/><path d="M60.86 88.74 Q61.35 90.34 62.4 91.89" fill="none" stroke="#2e1e0e" stroke-width="0.4" opacity="0.75"/><path d="M65.6 86.6 Q66.05 89.98 69.89 90.2 Q69.01 86.46 65.6 86.6 Z" fill="url(#tdd-dry-dk)" stroke="#0d0a12" stroke-width="0.7" stroke-linejoin="round"/><path d="M66.11 87.03 Q67.35 88.43 69.12 89.55" fill="none" stroke="#2e1e0e" stroke-width="0.4" opacity="0.75"/><path d="M69.6 84.6 Q71.32 87.78 75.24 86.65 Q72.96 83.27 69.6 84.6 Z" fill="url(#tdd-wither)" stroke="#0d0a12" stroke-width="0.7" stroke-linejoin="round"/><path d="M70.28 84.85 Q72.04 85.79 74.22 86.28" fill="none" stroke="#2e1e0e" stroke-width="0.4" opacity="0.75"/></g>
  <g><path d="M29.4 79 Q24.93 78.57 24.04 83.5 Q29.04 83.48 29.4 79 Z" fill="url(#tdd-dry-dk)" stroke="#0d0a12" stroke-width="0.75" stroke-linejoin="round"/><path d="M28.76 79.54 Q26.74 80.73 25 82.69" fill="none" stroke="#2e1e0e" stroke-width="0.4" opacity="0.75"/><path d="M28.4 79.45 Q25.71 79.5 25.22 82.51" fill="none" stroke="#e8cc96" stroke-width="0.45" stroke-linecap="round" opacity="0.55"/><path d="M33.6 80.6 Q29 81.55 29.78 86.71 Q34.77 85.15 33.6 80.6 Z" fill="url(#tdd-dry)" stroke="#0d0a12" stroke-width="0.75" stroke-linejoin="round"/><path d="M33.14 81.33 Q31.54 83.13 30.47 85.61" fill="none" stroke="#2e1e0e" stroke-width="0.4" opacity="0.75"/><path d="M32.77 81.36 Q30.1 82.23 30.62 85.36" fill="none" stroke="#e8cc96" stroke-width="0.45" stroke-linecap="round" opacity="0.55"/><path d="M38.4 81.4 Q34.61 83.96 37.45 88.13 Q41.34 84.9 38.4 81.4 Z" fill="url(#tdd-dry-lt)" stroke="#0d0a12" stroke-width="0.75" stroke-linejoin="round"/><path d="M38.29 82.21 Q37.57 84.37 37.62 86.92" fill="none" stroke="#2e1e0e" stroke-width="0.4" opacity="0.75"/><path d="M37.96 82.37 Q35.89 84.14 37.66 86.65" fill="none" stroke="#e8cc96" stroke-width="0.45" stroke-linecap="round" opacity="0.55"/><path d="M43.2 82.4 Q39.15 83.87 40.8 88.33 Q45.09 86.27 43.2 82.4 Z" fill="url(#tdd-dry)" stroke="#0d0a12" stroke-width="0.75" stroke-linejoin="round"/><path d="M42.91 83.11 Q41.77 84.93 41.23 87.27" fill="none" stroke="#2e1e0e" stroke-width="0.4" opacity="0.75"/><path d="M42.56 83.18 Q40.28 84.33 41.33 87.03" fill="none" stroke="#e8cc96" stroke-width="0.45" stroke-linecap="round" opacity="0.55"/><path d="M48.4 82.2 Q45.67 85.7 49.55 88.7 Q52.17 84.55 48.4 82.2 Z" fill="url(#tdd-wither)" stroke="#0d0a12" stroke-width="0.75" stroke-linejoin="round"/><path d="M48.54 82.98 Q48.53 85.19 49.34 87.53" fill="none" stroke="#2e1e0e" stroke-width="0.4" opacity="0.75"/><path d="M48.28 83.23 Q46.9 85.48 49.29 87.27" fill="none" stroke="#e8cc96" stroke-width="0.45" stroke-linecap="round" opacity="0.55"/><path d="M53.6 82.4 Q50.12 84.93 52.93 88.76 Q56.48 85.6 53.6 82.4 Z" fill="url(#tdd-dry)" stroke="#0d0a12" stroke-width="0.75" stroke-linejoin="round"/><path d="M53.52 83.16 Q52.92 85.22 53.05 87.62" fill="none" stroke="#2e1e0e" stroke-width="0.4" opacity="0.75"/><path d="M58.2 81.4 Q56.08 85.52 60.59 87.98 Q62.47 83.2 58.2 81.4 Z" fill="url(#tdd-dry-dk)" stroke="#0d0a12" stroke-width="0.75" stroke-linejoin="round"/><path d="M58.49 82.19 Q58.89 84.5 60.16 86.79" fill="none" stroke="#2e1e0e" stroke-width="0.4" opacity="0.75"/><path d="M62.8 80.6 Q61.63 85.15 66.62 86.71 Q67.4 81.55 62.8 80.6 Z" fill="url(#tdd-dry)" stroke="#0d0a12" stroke-width="0.75" stroke-linejoin="round"/><path d="M63.26 81.33 Q64.17 83.56 65.93 85.61" fill="none" stroke="#2e1e0e" stroke-width="0.4" opacity="0.75"/><path d="M67 79 Q67.36 83.48 72.36 83.5 Q71.47 78.57 67 79 Z" fill="url(#tdd-dry-dk)" stroke="#0d0a12" stroke-width="0.75" stroke-linejoin="round"/><path d="M67.64 79.54 Q69.17 81.32 71.4 82.69" fill="none" stroke="#2e1e0e" stroke-width="0.4" opacity="0.75"/></g>
  <g><path d="M38 72 Q33.58 72.04 33.05 76.95 Q37.96 76.42 38 72 Z" fill="url(#tdd-dry)" stroke="#0d0a12" stroke-width="0.75" stroke-linejoin="round"/><path d="M37.41 72.59 Q35.51 73.96 33.94 76.06" fill="none" stroke="#2e1e0e" stroke-width="0.4" opacity="0.75"/><path d="M37.05 72.53 Q34.41 72.87 34.14 75.86" fill="none" stroke="#e8cc96" stroke-width="0.45" stroke-linecap="round" opacity="0.6"/><path d="M41.6 73.4 Q37.46 75.46 39.38 80.25 Q43.74 77.5 41.6 73.4 Z" fill="url(#tdd-dry-lt)" stroke="#0d0a12" stroke-width="0.75" stroke-linejoin="round"/><path d="M41.33 74.22 Q40.22 76.36 39.78 79.02" fill="none" stroke="#2e1e0e" stroke-width="0.4" opacity="0.75"/><path d="M40.98 74.33 Q38.65 75.85 39.86 78.74" fill="none" stroke="#e8cc96" stroke-width="0.45" stroke-linecap="round" opacity="0.6"/><path d="M45.6 74.2 Q41.92 76.66 44.42 80.9 Q48.22 77.77 45.6 74.2 Z" fill="url(#tdd-dry)" stroke="#0d0a12" stroke-width="0.75" stroke-linejoin="round"/><path d="M45.46 75 Q44.69 77.15 44.63 79.69" fill="none" stroke="#2e1e0e" stroke-width="0.4" opacity="0.75"/><path d="M45.13 75.15 Q43.11 76.87 44.68 79.42" fill="none" stroke="#e8cc96" stroke-width="0.45" stroke-linecap="round" opacity="0.6"/><path d="M50.2 74.2 Q47.86 78.03 51.89 80.99 Q54.07 76.48 50.2 74.2 Z" fill="url(#tdd-wither)" stroke="#0d0a12" stroke-width="0.75" stroke-linejoin="round"/><path d="M50.4 75.02 Q50.59 77.35 51.59 79.77" fill="none" stroke="#2e1e0e" stroke-width="0.4" opacity="0.75"/><path d="M54.4 73.4 Q52.7 77.7 57.33 79.98 Q58.73 75.02 54.4 73.4 Z" fill="url(#tdd-dry-dk)" stroke="#0d0a12" stroke-width="0.75" stroke-linejoin="round"/><path d="M54.75 74.19 Q55.36 76.52 56.8 78.79" fill="none" stroke="#2e1e0e" stroke-width="0.4" opacity="0.75"/><path d="M58 72 Q57.96 76.42 62.86 77.04 Q62.42 72.11 58 72 Z" fill="url(#tdd-dry-dk)" stroke="#0d0a12" stroke-width="0.75" stroke-linejoin="round"/><path d="M58.58 72.6 Q59.92 74.52 61.99 76.13" fill="none" stroke="#2e1e0e" stroke-width="0.4" opacity="0.75"/></g>
  <g fill="none" stroke-linecap="round"><path d="M36.6 79.6 Q39.4 83 42.6 81 M53.4 81 Q56.6 83 59.4 79.6 M38.4 81.4 q-0.3 1.4 0.2 2.6 M57.6 81.4 q0.3 1.4 -0.2 2.6" stroke="#141008" stroke-width="1.3"/><path d="M36.6 79.6 Q39.4 83 42.6 81 M53.4 81 Q56.6 83 59.4 79.6 M38.4 81.4 q-0.3 1.4 0.2 2.6 M57.6 81.4 q0.3 1.4 -0.2 2.6" stroke="#88865a" stroke-width="0.6"/></g>
  <!-- the mane, dried and drooping behind the shoulders -->
  <g><path d="M41 55 Q36.78 56.72 37 61.93 Q41.62 59.52 41 55 Z" fill="url(#tdd-dry-dk)" stroke="#0d0a12" stroke-width="0.8" stroke-linejoin="round"/><path d="M40.52 55.83 Q38.91 57.95 37.72 60.68" fill="none" stroke="#2a1a0c" stroke-width="0.4" opacity="0.75"/><path d="M40 59 Q36.36 61.75 37.93 66.73 Q41.77 63.2 40 59 Z" fill="url(#tdd-dry-dk)" stroke="#0d0a12" stroke-width="0.8" stroke-linejoin="round"/><path d="M39.75 59.93 Q38.74 62.39 38.3 65.34" fill="none" stroke="#2a1a0c" stroke-width="0.4" opacity="0.75"/><path d="M57 55 Q56.38 59.52 61 61.93 Q61.22 56.72 57 55 Z" fill="url(#tdd-dry-dk)" stroke="#0d0a12" stroke-width="0.8" stroke-linejoin="round"/><path d="M57.48 55.83 Q58.51 58.29 60.28 60.68" fill="none" stroke="#2a1a0c" stroke-width="0.4" opacity="0.75"/><path d="M58.6 59 Q56.61 63.1 60.26 66.83 Q62.09 61.94 58.6 59 Z" fill="url(#tdd-dry-dk)" stroke="#0d0a12" stroke-width="0.8" stroke-linejoin="round"/><path d="M58.8 59.94 Q59.02 62.59 59.96 65.42" fill="none" stroke="#2a1a0c" stroke-width="0.4" opacity="0.75"/><path d="M43.4 52.6 Q39.86 51.87 38.2 55.6 Q42.26 56.03 43.4 52.6 Z" fill="url(#tdd-dry)" stroke="#0d0a12" stroke-width="0.8" stroke-linejoin="round"/><path d="M42.78 52.96 Q40.92 53.7 39.14 55.06" fill="none" stroke="#2a1a0c" stroke-width="0.4" opacity="0.75"/><path d="M55.2 52.6 Q56.34 56.03 60.4 55.6 Q58.74 51.87 55.2 52.6 Z" fill="url(#tdd-dry-dk)" stroke="#0d0a12" stroke-width="0.8" stroke-linejoin="round"/><path d="M55.82 52.96 Q57.39 54.2 59.46 55.06" fill="none" stroke="#2a1a0c" stroke-width="0.4" opacity="0.75"/></g>
  <!-- the torso, slumped forward: dry, cracked bark -->
  <g transform="rotate(6 48 72)">
  <path d="M40.4 58.6 Q48 56 56 59 Q56.8 63.4 54.8 67.4 Q55 70.4 55.6 72.6 Q48 74.6 40.8 72.6 Q41.4 70 41.4 67.4 Q39.4 63.2 40.4 58.6 Z" fill="url(#tdd-bark)" stroke="#0d0a12" stroke-width="1.15" stroke-linejoin="round"/>
  <path d="M41.4 60.4 Q41.4 63.6 42.6 66" fill="none" stroke="#ddd3c2" stroke-width="0.7" stroke-linecap="round" opacity="0.7"/>
  <ellipse cx="48" cy="62" rx="2.2" ry="1.7" fill="#3e3228" stroke="#0d0a12" stroke-width="0.6"/>
  <ellipse cx="48" cy="62.1" rx="1.3" ry="1" fill="#5a4630" stroke="#1a120c" stroke-width="0.3"/>
  <path d="M48 60.4 L48.6 61.6 L47.6 62.4 L48.4 63.6" fill="none" stroke="#120c08" stroke-width="0.5"/>
  <path d="M40.8 60 Q43.4 59.6 45 62 Q47.6 66 50.6 69.6 Q51.6 72 50 74 Q45 74.2 41.4 72.6 Q42.2 69.4 41.6 66.8 Q40 63.6 40.8 60 Z" fill="url(#tdd-dry)" stroke="#0d0a12" stroke-width="0.85" stroke-linejoin="round"/>
  <path d="M55.2 60 Q52.8 59.6 51.2 62 Q48.6 66 45.6 69.6 Q44.6 72 46.2 74 Q51 74.2 54.8 72.6 Q54 69.4 54.6 66.8 Q56.2 63.6 55.2 60 Z" fill="url(#tdd-dry-dk)" stroke="#0d0a12" stroke-width="0.85" stroke-linejoin="round"/>
  <path d="M41.8 61.4 Q44.6 65.6 48.4 72.4 M54.2 61.4 Q51.4 65.6 47.6 72.4" fill="none" stroke="#2e1e0e" stroke-width="0.45"/>
  <path d="M42.6 64.2 l1.6 -0.4 M43.6 66.8 l1.8 -0.5 M53.4 64.2 l-1.6 -0.4 M52.4 66.8 l-1.8 -0.5" stroke="#2e1e0e" stroke-width="0.4"/>
  <path d="M44 61.6 l0.8 0.6 l-0.2 0.8 M52.4 69 l-0.9 0.4 l0.2 0.9" fill="none" stroke="#120c08" stroke-width="0.45"/>
  <path d="M41 71.6 Q48 74.6 55.2 71.6" fill="none" stroke="#0d0a12" stroke-width="2.2" stroke-linecap="round"/><path d="M41 71.6 Q48 74.6 55.2 71.6" fill="none" stroke="#5a4634" stroke-width="1.1" stroke-linecap="round"/>
  <path d="M53.4 59.8 L52.2 61.8 L53 63.2 L51.6 65.2 M43 59.6 L44 60.8" fill="none" stroke="#120c08" stroke-width="0.7" stroke-linejoin="round"/>
  <path d="M53.9 60.2 L52.8 62 L53.6 63.4" fill="none" stroke="#d6ccbc" stroke-width="0.3"/>
  </g>
  <!-- the arm on the viewer's left hangs limp, its hand open on the ground -->
  <path d="M39.64 58.4 L38.91 59.74 L38.21 61.14 L37.58 62.57 L37.01 64.02 L36.5 65.48 L36.06 66.97 L35.67 68.48 L35.36 69.96 L35.02 71.36 L34.7 72.76 L34.41 74.15 L34.14 75.52 L33.89 76.87 L33.68 78.2 L33.48 79.5 L33.32 80.78 L35.88 81.22 L36.14 79.98 L36.42 78.73 L36.73 77.46 L37.06 76.18 L37.42 74.88 L37.8 73.56 L38.2 72.22 L38.64 70.84 L39.09 69.45 L39.57 68.13 L40.1 66.84 L40.69 65.58 L41.33 64.35 L42.01 63.16 L42.75 61.98 L43.56 60.8 Z" fill="url(#tdd-bark)" stroke="#0d0a12" stroke-width="1" stroke-linejoin="round"/>
  <path d="M40.2 60.4 Q38 64.6 37 69 Q35.8 74 35.2 78.4" fill="none" stroke="#d4cab8" stroke-width="0.6" stroke-linecap="round" opacity="0.7"/>
  <path d="M38.4 66 l1.4 0.6 M36.6 72.4 l1.4 0.4 M35.6 77 l1.3 0.2" stroke="#2a221c" stroke-width="0.5"/>
  <path d="M31.4 81.4 Q34 80 36.8 81.2 Q37.6 83.4 36 84.8 Q33.2 85.6 31.2 84.2 Q30.4 82.8 31.4 81.4 Z" fill="url(#tdd-face)" stroke="#0d0a12" stroke-width="0.9" stroke-linejoin="round"/>
  <path d="M31.4 82 Q29.6 81.6 28.8 80.2 M31.2 83.6 Q29.2 83.8 28.2 82.8 M31.8 84.6 Q30.2 85.6 29.4 85.2 M36.8 81.8 Q38.4 81 38.8 79.8" fill="none" stroke="#0d0a12" stroke-width="2" stroke-linecap="round"/><path d="M31.4 82 Q29.6 81.6 28.8 80.2 M31.2 83.6 Q29.2 83.8 28.2 82.8 M31.8 84.6 Q30.2 85.6 29.4 85.2 M36.8 81.8 Q38.4 81 38.8 79.8" fill="none" stroke="#857b6c" stroke-width="1" stroke-linecap="round"/>
  <path d="M32 82.6 Q33.8 82 35.6 82.6" fill="none" stroke="#4a4038" stroke-width="0.4"/>
  <!-- the arm on the viewer's right, braced on the ground, root-fingers dug in -->
  <path d="M53.27 60.85 L54.13 62.04 L54.92 63.21 L55.65 64.41 L56.34 65.64 L56.97 66.9 L57.55 68.19 L58.08 69.5 L58.57 70.87 L58.95 72.07 L59.31 73.3 L59.66 74.53 L59.98 75.77 L60.29 77.01 L60.59 78.27 L60.86 79.53 L61.12 80.81 L63.68 80.39 L63.52 79.08 L63.34 77.76 L63.14 76.44 L62.92 75.13 L62.68 73.83 L62.42 72.53 L62.14 71.23 L61.83 69.93 L61.46 68.42 L61.02 66.91 L60.53 65.43 L59.96 63.96 L59.34 62.51 L58.66 61.09 L57.91 59.69 L57.13 58.35 Z" fill="url(#tdd-bark-dk)" stroke="#0d0a12" stroke-width="1" stroke-linejoin="round"/>
  <path d="M56.6 61 Q58.6 64.6 59.4 68.6" fill="none" stroke="#b4aa9a" stroke-width="0.55" stroke-linecap="round" opacity="0.7"/>
  <path d="M58.8 66.4 l-1.4 0.6 M60.6 72.6 l-1.4 0.4" stroke="#1e1a16" stroke-width="0.5"/>
  <path d="M59.6 80.2 Q62.4 79 65 80.4 Q65.6 82.4 64 83.4 Q61.2 83.8 59.6 82.6 Z" fill="url(#tdd-bark-dk)" stroke="#0d0a12" stroke-width="0.9" stroke-linejoin="round"/>
  <path d="M60.2 82.6 Q59.6 84.4 59.8 85.8 M61.8 83.4 Q61.8 85.2 62.6 86.4 M63.4 83.2 Q64.4 84.8 65.6 85.6 M64.6 81.6 Q66.4 82.4 67.2 83.6" fill="none" stroke="#0d0a12" stroke-width="2" stroke-linecap="round"/><path d="M60.2 82.6 Q59.6 84.4 59.8 85.8 M61.8 83.4 Q61.8 85.2 62.6 86.4 M63.4 83.2 Q64.4 84.8 65.6 85.6 M64.6 81.6 Q66.4 82.4 67.2 83.6" fill="none" stroke="#6e6558" stroke-width="1" stroke-linecap="round"/>
  <!-- dry brambles slipping off the arms -->
  <path d="M40.4 62 C37.4 62.8 37.8 66.4 40 66.4 C41.6 66.4 36.4 70 35.6 72.6" fill="none" stroke="#0d0a12" stroke-width="1.85" stroke-linecap="round" stroke-linejoin="round"/><path d="M39.05 62.66 L39.59 64.44 L38.48 63.39 Z M38.41 65.47 L37.95 67.28 L39.02 66.18 Z M40.37 66.63 L40.98 68.39 L39.83 67.38 Z M37.15 70.17 L35.29 70.04 L36.55 70.9 Z" fill="#a89878" stroke="#0d0a12" stroke-width="0.35" stroke-linejoin="round"/><path d="M40.4 62 C37.4 62.8 37.8 66.4 40 66.4 C41.6 66.4 36.4 70 35.6 72.6" fill="none" stroke="#5e4a38" stroke-width="0.85" stroke-linecap="round" stroke-linejoin="round"/><path d="M40.4 62 C37.4 62.8 37.8 66.4 40 66.4 C41.6 66.4 36.4 70 35.6 72.6" fill="none" stroke="#8e7a62" stroke-width="0.27" stroke-linecap="round" opacity="0.7" transform="translate(-0.25 -0.25)"/><path d="M40.4 62 C37.4 62.8 37.8 66.4 40 66.4 C41.6 66.4 36.4 70 35.6 72.6" fill="none" stroke="#3a2416" stroke-width="0.24" stroke-linecap="round" stroke-dasharray="0.6 1.6" opacity="0.8" transform="translate(0.2 0.25)"/>
  <path d="M56.6 62.6 C59.6 62 60.4 65.6 58.4 66.6 C62.4 68 66.6 74 69.4 77.6 C71.4 80 74.6 79.6 74 77.4" fill="none" stroke="#0d0a12" stroke-width="1.9" stroke-linecap="round" stroke-linejoin="round"/><path d="M57.44 62.49 L58.98 61.2 L58.39 62.75 Z M59.21 63.53 L58.03 65.16 L59.54 64.47 Z M59.44 65.5 L60.2 67.36 L58.9 66.33 Z M60 67.37 L60.03 69.39 L60.82 67.93 Z M64.02 70.91 L66.02 70.67 L64.68 71.64 Z M67.59 75.24 L66.98 77.16 L68.19 76.03 Z M70.06 78.3 L71.94 77.56 L70.89 78.84 Z M72.18 79.26 L73.46 80.82 L73.17 79.19 Z M73.85 78.81 L72.65 77.19 L74.16 77.88 Z" fill="#a89878" stroke="#0d0a12" stroke-width="0.35" stroke-linejoin="round"/><path d="M56.6 62.6 C59.6 62 60.4 65.6 58.4 66.6 C62.4 68 66.6 74 69.4 77.6 C71.4 80 74.6 79.6 74 77.4" fill="none" stroke="#5e4a38" stroke-width="0.9" stroke-linecap="round" stroke-linejoin="round"/><path d="M56.6 62.6 C59.6 62 60.4 65.6 58.4 66.6 C62.4 68 66.6 74 69.4 77.6 C71.4 80 74.6 79.6 74 77.4" fill="none" stroke="#8e7a62" stroke-width="0.29" stroke-linecap="round" opacity="0.7" transform="translate(-0.25 -0.25)"/><path d="M56.6 62.6 C59.6 62 60.4 65.6 58.4 66.6 C62.4 68 66.6 74 69.4 77.6 C71.4 80 74.6 79.6 74 77.4" fill="none" stroke="#3a2416" stroke-width="0.25" stroke-linecap="round" stroke-dasharray="0.6 1.6" opacity="0.8" transform="translate(0.2 0.25)"/>
  <g><path d="M42.2 58 Q39.62 56.32 37.28 58.87 Q40.35 60.46 42.2 58 Z" fill="url(#tdd-dry)" stroke="#0d0a12" stroke-width="0.7" stroke-linejoin="round"/><path d="M41.61 58.1 Q39.94 58.14 38.16 58.71" fill="none" stroke="#2a1a0c" stroke-width="0.4" opacity="0.75"/><path d="M42.2 59.8 Q38.99 59.9 38.52 63.48 Q42.1 63.01 42.2 59.8 Z" fill="url(#tdd-dry-lt)" stroke="#0d0a12" stroke-width="0.7" stroke-linejoin="round"/><path d="M41.76 60.24 Q40.36 61.27 39.18 62.82" fill="none" stroke="#2a1a0c" stroke-width="0.4" opacity="0.75"/><path d="M53.8 58 Q55.65 60.46 58.72 58.87 Q56.38 56.32 53.8 58 Z" fill="url(#tdd-dry-dk)" stroke="#0d0a12" stroke-width="0.7" stroke-linejoin="round"/><path d="M54.39 58.1 Q55.97 58.64 57.84 58.71" fill="none" stroke="#2a1a0c" stroke-width="0.4" opacity="0.75"/><path d="M53.8 59.8 Q53.9 63.01 57.48 63.48 Q57.01 59.9 53.8 59.8 Z" fill="url(#tdd-wither)" stroke="#0d0a12" stroke-width="0.7" stroke-linejoin="round"/><path d="M54.24 60.24 Q55.27 61.64 56.82 62.82" fill="none" stroke="#2a1a0c" stroke-width="0.4" opacity="0.75"/></g>
  <!-- the head, bowed low on the chest: eyes gone dark, one antler snapped -->
  <g transform="translate(1.6 2.6) rotate(18 49 62)">
  <path d="M45.4 51.4 C44 48.6 41.6 46.6 38.2 45.6 M41.6 46.6 C41.4 45 41.8 43.6 42.6 42.4 M39.8 46 C38.4 46.8 37 47 35.4 46.8 M52.6 51.4 C53.4 49.4 54.4 48.2 55.6 47.4" fill="none" stroke="#0d0a12" stroke-width="2.5" stroke-linecap="round"/><path d="M45.4 51.4 C44 48.6 41.6 46.6 38.2 45.6 M41.6 46.6 C41.4 45 41.8 43.6 42.6 42.4 M39.8 46 C38.4 46.8 37 47 35.4 46.8 M52.6 51.4 C53.4 49.4 54.4 48.2 55.6 47.4" fill="none" stroke="#6e5a46" stroke-width="1.35" stroke-linecap="round"/>
  <path d="M45 50.6 C43.8 48.6 41.8 47 39 46.2" fill="none" stroke="#b8a68c" stroke-width="0.4" stroke-linecap="round"/>
  <path d="M54.8 46.8 L56.4 46.4 L55.8 47.4 L56.8 47.8 L55.4 48.4 Z" fill="#cdb894" stroke="#0d0a12" stroke-width="0.5" stroke-linejoin="round"/>
  <path d="M38.2 45.6 Q36.98 44.9 35.84 46.02 Q37.29 46.67 38.2 45.6 Z" fill="url(#tdd-dry-dk)" stroke="#0d0a12" stroke-width="0.45" stroke-linejoin="round"/>
  <path d="M41.6 56.6 Q41.8 50.6 48.6 50.6 Q55.6 50.6 55.8 56.6 Q55.8 61.4 53 63.8 Q50.8 65.4 48.6 65.4 Q46.4 65.4 44.2 63.8 Q41.6 61.4 41.6 56.6 Z" fill="url(#tdd-face)" stroke="#0d0a12" stroke-width="1.15" stroke-linejoin="round"/>
  <path d="M55.2 57.4 Q55 61.4 52.6 63.4 Q50.6 64.8 48.6 65 Q51.8 62.6 53.4 59.6 Z" fill="#3c362f" opacity="0.6"/>
  <path d="M43 55 Q44.2 52.4 47.2 51.6" fill="none" stroke="#ddd4c4" stroke-width="0.8" stroke-linecap="round" opacity="0.8"/>
  <path d="M43.4 58.6 Q45.4 57.6 47.4 58.6 Q45.4 59.8 43.4 58.6 Z M50 58.6 Q52 57.6 54 58.6 Q52 59.8 50 58.6 Z" fill="#17110c" stroke="#0d0a12" stroke-width="0.4"/>
  <path d="M43.2 57.2 Q45.4 56.4 47.4 57.4 M50 57.4 Q52 56.4 54.2 57.2" fill="none" stroke="#2a221c" stroke-width="0.6" stroke-linecap="round"/>
  <path d="M48.8 60 Q49.4 61.6 48.6 62.2 M47.4 63.6 Q48.6 63.2 49.8 63.6" fill="none" stroke="#2a221c" stroke-width="0.45" stroke-linecap="round"/>
  <path d="M46 51.2 L46.8 53.4 L45.6 55 L46.2 56.6 M53.4 61.2 L52.2 62.6 L52.6 64" fill="none" stroke="#0d0a12" stroke-width="0.6" stroke-linejoin="round"/>
  <path d="M46.4 51.4 L47.2 53.4 L46.1 54.9" fill="none" stroke="#e0d6c6" stroke-width="0.3"/>
  <path d="M53 52.6 q1.4 -0.6 1.8 0.8 q-0.2 1.2 -1.6 1 Z" fill="url(#tdd-moss)" stroke="#2a2818" stroke-width="0.3"/>
  <g><path d="M42 51.6 Q38.92 52.52 38.79 56.19 Q42.19 54.81 42 51.6 Z" fill="url(#tdd-dry-lt)" stroke="#0d0a12" stroke-width="0.7" stroke-linejoin="round"/><path d="M41.61 52.15 Q40.36 53.53 39.37 55.36" fill="none" stroke="#2e1e0e" stroke-width="0.4" opacity="0.75"/><path d="M41.27 52.12 Q39.54 52.95 39.49 55.18" fill="none" stroke="#ecd3a0" stroke-width="0.45" stroke-linecap="round" opacity="0.6"/><path d="M44.8 50.2 Q42.38 51.88 43.51 55.03 Q46.05 52.87 44.8 50.2 Z" fill="url(#tdd-dry)" stroke="#0d0a12" stroke-width="0.7" stroke-linejoin="round"/><path d="M44.64 50.78 Q44 52.31 43.74 54.16" fill="none" stroke="#2e1e0e" stroke-width="0.4" opacity="0.75"/><path d="M44.32 50.85 Q43.08 52.07 43.79 53.97" fill="none" stroke="#ecd3a0" stroke-width="0.45" stroke-linecap="round" opacity="0.6"/><path d="M48 49.8 Q46.2 51.78 48 54.2 Q49.8 51.78 48 49.8 Z" fill="url(#tdd-dry-lt)" stroke="#0d0a12" stroke-width="0.7" stroke-linejoin="round"/><path d="M47.7 50.46 Q46.88 51.78 48 53.23" fill="none" stroke="#ecd3a0" stroke-width="0.45" stroke-linecap="round" opacity="0.6"/><path d="M51.2 50 Q49.95 52.67 52.49 54.83 Q53.62 51.68 51.2 50 Z" fill="url(#tdd-dry)" stroke="#0d0a12" stroke-width="0.7" stroke-linejoin="round"/><path d="M51.36 50.58 Q51.56 52.23 52.26 53.96" fill="none" stroke="#2e1e0e" stroke-width="0.4" opacity="0.75"/><path d="M54.2 51 Q53.68 54.1 56.9 55.68 Q57.15 52.1 54.2 51 Z" fill="url(#tdd-dry-dk)" stroke="#0d0a12" stroke-width="0.7" stroke-linejoin="round"/><path d="M54.52 51.56 Q55.21 53.22 56.41 54.83" fill="none" stroke="#2e1e0e" stroke-width="0.4" opacity="0.75"/><path d="M41.6 53.4 Q38.68 56.72 40.14 61.67 Q43.21 57.52 41.6 53.4 Z" fill="url(#tdd-dry)" stroke="#0d0a12" stroke-width="0.7" stroke-linejoin="round"/><path d="M41.42 54.39 Q40.67 57.07 40.4 60.18" fill="none" stroke="#2e1e0e" stroke-width="0.4" opacity="0.75"/><path d="M55.6 53.4 Q53.99 57.52 57.06 61.67 Q58.52 56.72 55.6 53.4 Z" fill="url(#tdd-dry-dk)" stroke="#0d0a12" stroke-width="0.7" stroke-linejoin="round"/><path d="M55.78 54.39 Q55.98 57.17 56.8 60.18" fill="none" stroke="#2e1e0e" stroke-width="0.4" opacity="0.75"/></g>
  <ellipse cx="43.28" cy="51.29" rx="1.12" ry="0.76" transform="rotate(15 43.28 51.29)" fill="url(#tdd-petal)" stroke="#3a2c1c" stroke-width="0.4"/><ellipse cx="41.91" cy="52.08" rx="1.12" ry="0.76" transform="rotate(105 41.91 52.08)" fill="url(#tdd-petal)" stroke="#3a2c1c" stroke-width="0.4"/><ellipse cx="41.12" cy="50.71" rx="1.12" ry="0.76" transform="rotate(195 41.12 50.71)" fill="url(#tdd-petal)" stroke="#3a2c1c" stroke-width="0.4"/><ellipse cx="42.49" cy="49.92" rx="1.12" ry="0.76" transform="rotate(285 42.49 49.92)" fill="url(#tdd-petal)" stroke="#3a2c1c" stroke-width="0.4"/><circle cx="42.2" cy="51" r="0.54" fill="#6a5430" stroke="#3a2c1c" stroke-width="0.3"/>
  </g>
  <!-- the snapped antler tip, fallen -->
  <path d="M50.4 91.4 C53 90.4 55.6 90.6 58 91.4 M54.2 90.6 C54.8 89.2 55.8 88.6 57 88.4" fill="none" stroke="#0d0a12" stroke-width="2.3" stroke-linecap="round"/><path d="M50.4 91.4 C53 90.4 55.6 90.6 58 91.4 M54.2 90.6 C54.8 89.2 55.8 88.6 57 88.4" fill="none" stroke="#6e5a46" stroke-width="1.2" stroke-linecap="round"/>
  <path d="M50.4 91.4 l-0.8 -0.6 l0.2 1.2 Z" fill="#cdb894" stroke="#0d0a12" stroke-width="0.4"/>
  <!-- the story: one last green sprout rising from her open palm -->
  <path d="M33.8 82.4 Q33.2 79.6 34.2 77.2 Q34.8 75.8 34.4 74.6" fill="none" stroke="#0d0a12" stroke-width="1.5" stroke-linecap="round"/>
  <path d="M33.8 82.4 Q33.2 79.6 34.2 77.2 Q34.8 75.8 34.4 74.6" fill="none" stroke="#7ec85a" stroke-width="0.7" stroke-linecap="round"/>
  <path d="M34.2 77.4 Q33.52 75.16 30.91 75.5 Q31.92 77.93 34.2 77.4 Z" fill="url(#tdd-sprout)" stroke="#0d0a12" stroke-width="0.6" stroke-linejoin="round"/><path d="M34.4 75.6 Q36.43 76.05 37.34 73.9 Q35.03 73.62 34.4 75.6 Z" fill="url(#tdd-sprout)" stroke="#0d0a12" stroke-width="0.6" stroke-linejoin="round"/>
  <ellipse cx="34.4" cy="74.2" rx="0.6" ry="0.9" fill="#b6e47a" stroke="#1d3a14" stroke-width="0.35"/>
  <path d="M32.6 82.6 q1.2 -0.6 2.6 0" fill="none" stroke="#3a2a1a" stroke-width="0.5"/>
  <path d="M22 66 Q22.34 68.11 24.76 68.31 Q24.14 65.97 22 66 Z" fill="url(#tdd-dry)" stroke="#0d0a12" stroke-width="0.5" stroke-linejoin="round"/><path d="M72 64 Q70.02 63.64 69.06 65.7 Q71.32 65.89 72 64 Z" fill="url(#tdd-dry-lt)" stroke="#0d0a12" stroke-width="0.5" stroke-linejoin="round"/>
  <g fill="#6e6558" stroke="#0d0a12" stroke-width="0.35"><path d="M44 89.2 l1.4 -0.4 l0.4 0.9 l-1.3 0.3 Z"/><path d="M27 75.6 l1.2 -0.6 l0.3 0.8 Z"/><path d="M66.6 77 l1.2 0 l-0.2 0.9 Z"/></g>
</svg>
