<svg xmlns="http://www.w3.org/2000/svg" viewBox="0 0 96 96" width="96" height="96">
  <!-- Tomb Knight: a corroded knight risen from its barrow, soulfire in the visor. Lit from the upper left. -->
  <defs>
    <linearGradient id="tk-steel" x1="0" y1="0" x2="1" y2="1">
      <stop offset="0" stop-color="#a7b0c0"/>
      <stop offset="0.45" stop-color="#6b7487"/>
      <stop offset="1" stop-color="#363b4b"/>
    </linearGradient>
    <linearGradient id="tk-steel-dark" x1="0" y1="0" x2="1" y2="1">
      <stop offset="0" stop-color="#7d8698"/>
      <stop offset="1" stop-color="#2a2e3b"/>
    </linearGradient>
    <linearGradient id="tk-cape" x1="0" y1="0" x2="0" y2="1">
      <stop offset="0" stop-color="#3b2852"/>
      <stop offset="1" stop-color="#160f22"/>
    </linearGradient>
    <linearGradient id="tk-tabard" x1="0" y1="0" x2="0" y2="1">
      <stop offset="0" stop-color="#5b2a44"/>
      <stop offset="1" stop-color="#2d1424"/>
    </linearGradient>
    <linearGradient id="tk-blade" x1="0" y1="0" x2="1" y2="0">
      <stop offset="0" stop-color="#e9eef6"/>
      <stop offset="0.5" stop-color="#9ea8b8"/>
      <stop offset="0.51" stop-color="#5d6676"/>
      <stop offset="1" stop-color="#3a404e"/>
    </linearGradient>
    <linearGradient id="tk-shield" x1="0" y1="0" x2="1" y2="1">
      <stop offset="0" stop-color="#4a4258"/>
      <stop offset="1" stop-color="#1f1b29"/>
    </linearGradient>
    <radialGradient id="tk-glow" cx="0.5" cy="0.5" r="0.5">
      <stop offset="0" stop-color="#d8fff0"/>
      <stop offset="0.35" stop-color="#5ef0c0"/>
      <stop offset="1" stop-color="#5ef0c0" stop-opacity="0"/>
    </radialGradient>
  </defs>

  <!-- cape, behind everything, tattered at the hem -->
  <path d="M33 31 C27 44 24 62 21 82 L26 79 L29 86 L34 80 L38 87 L43 81 L48 86 L53 81 L58 87 L62 80 L67 86 L70 79 L75 82 C72 62 69 44 63 31 Z" fill="url(#tk-cape)" stroke="#0d0a12" stroke-width="1.2" stroke-linejoin="round"/>
  <path d="M30 50 C28 62 27 72 26 79 M35 58 C34 68 34 76 34 80 M64 56 C65 66 66 74 67 85 M68 48 C70 60 71 70 72 80" fill="none" stroke="#120b1b" stroke-width="0.8" opacity="0.8"/>
  <path d="M32 40 C29 52 27 64 25 76" fill="none" stroke="#5a4378" stroke-width="0.7" opacity="0.6"/>

  <!-- legs: greaves and sabatons -->
  <g stroke="#0d0a12" stroke-width="1.1" stroke-linejoin="round">
    <path d="M37 64 L46 64 L46.5 82 L37 82 Z" fill="url(#tk-steel)"/>
    <path d="M50 64 L59 64 L59 82 L49.5 82 Z" fill="url(#tk-steel-dark)"/>
    <path d="M34 82 Q34 79 37 79 L46 79 Q47.5 80 47.5 83 L47.5 88 L33 88 Q32 86 34 82 Z" fill="url(#tk-steel-dark)"/>
    <path d="M49 79 L59 79 Q62 79 62.5 83 Q63.5 86 62.5 88 L48.5 88 L48.5 83 Q48.5 80 49 79 Z" fill="#3b4150"/>
  </g>
  <!-- knee cops -->
  <ellipse cx="41.5" cy="71" rx="5.2" ry="3.6" fill="#8e98aa" stroke="#0d0a12" stroke-width="1"/>
  <ellipse cx="54.5" cy="71" rx="5" ry="3.5" fill="#596275" stroke="#0d0a12" stroke-width="1"/>
  <path d="M38 70 Q41.5 67.8 45 70" fill="none" stroke="#d3dae6" stroke-width="0.8"/>
  <circle cx="41.5" cy="71.3" r="0.9" fill="#2a2e3b"/><circle cx="54.5" cy="71.3" r="0.9" fill="#1d2029"/>
  <!-- sabaton lames and greave highlights -->
  <path d="M34.5 84 L47 84 M34 86 L47 86 M49 84 L62 84 M49 86 L62.5 86" stroke="#1a1d26" stroke-width="0.6"/>
  <path d="M38.5 75 L38.8 81" stroke="#c8d0dc" stroke-width="0.9" stroke-linecap="round"/>
  <path d="M57.5 75 L57.5 81" stroke="#232733" stroke-width="0.8"/>
  <!-- rust streaks -->
  <path d="M44 74 Q44.5 77 43.8 80 M52 66 Q52.6 69 52 72" stroke="#8a4b2a" stroke-width="0.7" fill="none" opacity="0.75"/>

  <!-- tassets (hip plates) -->
  <g stroke="#0d0a12" stroke-width="1" stroke-linejoin="round">
    <path d="M35 56 L45 57 L45 64 Q40 66 35.5 64 Z" fill="url(#tk-steel)"/>
    <path d="M51 57 L61 56 L60.5 64 Q56 66 51 64 Z" fill="url(#tk-steel-dark)"/>
  </g>
  <path d="M35.5 60 L45 60.6 M51 60.6 L60.8 60" stroke="#20232d" stroke-width="0.6"/>
  <circle cx="37" cy="58" r="0.7" fill="#d8dfe9"/><circle cx="43.5" cy="58.4" r="0.7" fill="#d8dfe9"/>
  <circle cx="52.5" cy="58.4" r="0.7" fill="#8a93a3"/><circle cx="59" cy="58" r="0.7" fill="#8a93a3"/>

  <!-- tabard hanging between the tassets -->
  <path d="M42 50 L54 50 L55 72 L52.5 69.5 L50.5 73.5 L48 70 L45.5 73.5 L43.5 69.5 L41 72 Z" fill="url(#tk-tabard)" stroke="#0d0a12" stroke-width="1" stroke-linejoin="round"/>
  <path d="M43 52 L43.6 70 M53 52 L53.4 70" stroke="#c99a4a" stroke-width="0.7" opacity="0.85"/>
  <path d="M47 55 C46 61 46.5 66 45.8 71 M50 56 C50.5 62 50 66 50.6 72" stroke="#1d0d17" stroke-width="0.6" fill="none"/>
  <!-- tabard sigil: a small pale skull over crossed bones -->
  <path d="M45 66 L51.4 60.4 M45 60.4 L51.4 66" stroke="#d9cfb4" stroke-width="1" stroke-linecap="round"/>
  <path d="M45.6 59.6 Q48.2 56 50.8 59.6 Q51 62 49.6 62.6 L46.8 62.6 Q45.4 62 45.6 59.6 Z" fill="#e3dac0" stroke="#2d1424" stroke-width="0.5"/>
  <circle cx="47.2" cy="59.8" r="0.7" fill="#2d1424"/><circle cx="49.2" cy="59.8" r="0.7" fill="#2d1424"/>

  <!-- breastplate -->
  <path d="M34 34 Q48 29 62 34 L61 52 Q55 57 48 57 Q41 57 35 52 Z" fill="url(#tk-steel)" stroke="#0d0a12" stroke-width="1.2" stroke-linejoin="round"/>
  <path d="M48 31.5 L48 56.5" stroke="#2e3340" stroke-width="0.8"/>
  <path d="M47.2 32 L47.2 55.5" stroke="#dfe5ee" stroke-width="0.7" opacity="0.8"/>
  <path d="M37 38 Q42 35 46 35.5" fill="none" stroke="#eef2f8" stroke-width="1.1" stroke-linecap="round" opacity="0.85"/>
  <path d="M51 47 Q56 46 59.5 43" fill="none" stroke="#262a35" stroke-width="0.9" stroke-linecap="round"/>
  <!-- fauld bands at the waist -->
  <path d="M35.5 51.5 Q48 57.5 60.8 51.5 L60.6 54.5 Q48 60 35.6 54.5 Z" fill="#4c5466" stroke="#0d0a12" stroke-width="0.9"/>
  <path d="M36 53 Q48 58.6 60.5 53" fill="none" stroke="#a9b2c2" stroke-width="0.5"/>
  <!-- belt with a bronze buckle -->
  <path d="M35.8 55 Q48 61 60.5 55 L60.4 57.6 Q48 63 35.8 57.6 Z" fill="#3a2a22" stroke="#0d0a12" stroke-width="0.9"/>
  <rect x="45.6" y="57" width="4.8" height="3.8" rx="0.8" fill="#b9873c" stroke="#0d0a12" stroke-width="0.7"/>
  <rect x="47" y="58.1" width="2" height="1.6" fill="#3a2a22"/>
  <!-- battle damage on the breastplate: a gouge and rivets -->
  <path d="M39 44 L43.5 41.5 L42 43.6 L45 42.6" fill="none" stroke="#1c1f28" stroke-width="0.8" stroke-linejoin="round"/>
  <path d="M39.3 44.8 L43.6 42.3" stroke="#c9d1dd" stroke-width="0.4"/>
  <circle cx="36.8" cy="36.5" r="0.7" fill="#e6ebf2"/><circle cx="59" cy="36.5" r="0.7" fill="#7f889a"/>
  <path d="M55 38 Q56.5 42 55.6 45" stroke="#8a4b2a" stroke-width="0.7" fill="none" opacity="0.7"/>
  <!-- verdigris bloom -->
  <path d="M57 49 q1.5 -1 2.6 0.4 q-0.6 1.4 -2.2 1.2 Z" fill="#4f8f7a" opacity="0.8"/>

  <!-- shield arm: the pauldron on the right, half hidden by the shield -->
  <path d="M58 30 Q67 28 70 35 Q71 41 66 43 Q61 40 57 39 Z" fill="url(#tk-steel-dark)" stroke="#0d0a12" stroke-width="1.1" stroke-linejoin="round"/>
  <path d="M60 32.5 Q66 31 68.5 36" fill="none" stroke="#aab3c2" stroke-width="0.7"/>

  <!-- tower shield, held on the left arm -->
  <path d="M56 38 L79 35.5 Q82.5 56 71.5 76.5 Q65 80.5 58.5 75 Q54.5 57 56 38 Z" fill="url(#tk-shield)" stroke="#0d0a12" stroke-width="1.3" stroke-linejoin="round"/>
  <!-- iron rim -->
  <path d="M57.3 39.3 L77.8 37 Q80.8 56 70.6 75 Q65 78.6 59.6 74 Q56 57 57.3 39.3 Z" fill="none" stroke="#7a8395" stroke-width="1.6"/>
  <path d="M57.3 39.3 L77.8 37" stroke="#c3cbd8" stroke-width="0.8"/>
  <path d="M57.4 41 Q56.2 58 59.7 73.4" fill="none" stroke="#a0a9b9" stroke-width="0.6"/>
  <!-- rim studs -->
  <g fill="#d2d9e4" stroke="#0d0a12" stroke-width="0.4">
    <circle cx="60" cy="39" r="0.9"/><circle cx="67.5" cy="38.2" r="0.9"/><circle cx="75" cy="37.4" r="0.9"/>
    <circle cx="79" cy="46" r="0.9"/><circle cx="78.6" cy="56" r="0.9"/><circle cx="76" cy="65" r="0.9"/>
    <circle cx="71.5" cy="73" r="0.9"/><circle cx="64" cy="75.6" r="0.9"/><circle cx="58.3" cy="66" r="0.9"/>
    <circle cx="57.4" cy="56" r="0.9"/><circle cx="57.4" cy="47" r="0.9"/>
  </g>
  <!-- painted sigil: bone-white skull with soulfire eyes, faded -->
  <path d="M61 50 Q67.5 42 74.5 49.5 Q75.5 55 72.5 57.5 L72.5 60.5 L63.5 61 L63.6 58 Q60.2 55.5 61 50 Z" fill="#d6cdb3" stroke="#0d0a12" stroke-width="0.8" stroke-linejoin="round"/>
  <path d="M62.3 50.5 Q67.5 44.5 73 49.6" fill="none" stroke="#f3ecd8" stroke-width="0.7"/>
  <path d="M63 52 Q65 50.5 67 52.3 Q66.5 55 64.4 54.9 Q62.8 54.2 63 52 Z" fill="#1a1622"/>
  <path d="M69 52.2 Q71 50.5 72.8 52 Q73 54.2 71.3 54.8 Q69.4 55 69 52.2 Z" fill="#1a1622"/>
  <circle cx="65" cy="52.8" r="1" fill="#5ef0c0"/><circle cx="70.9" cy="52.8" r="1" fill="#5ef0c0"/>
  <path d="M67.6 55.4 L66.8 57.4 L68.6 57.4 Z" fill="#1a1622"/>
  <path d="M65 58.5 L65 60.6 M67 58.6 L67 60.8 M69 58.6 L69 60.8 M71 58.5 L71 60.6" stroke="#5c5444" stroke-width="0.6"/>
  <!-- crossed bones under the skull -->
  <path d="M61.5 63.5 L74 70 M74 63.5 L61.5 70" stroke="#c8bfa5" stroke-width="1.3" stroke-linecap="round"/>
  <circle cx="61.4" cy="63.3" r="1" fill="#c8bfa5"/><circle cx="74.1" cy="63.3" r="1" fill="#c8bfa5"/>
  <circle cx="61.4" cy="70.2" r="1" fill="#c8bfa5"/><circle cx="74.1" cy="70.2" r="1" fill="#c8bfa5"/>
  <!-- dents and a deep scratch across the shield face -->
  <path d="M59.5 44 L66 47.5 M72 66 L77 60.5" stroke="#0f0c16" stroke-width="0.8"/>
  <path d="M59.6 44.8 L65.8 48.2 M72.5 66.6 L77.3 61.3" stroke="#6e6680" stroke-width="0.4"/>
  <path d="M74.5 40.5 l1.5 1.2" stroke="#8a4b2a" stroke-width="0.8"/>

  <!-- gorget -->
  <path d="M39 29 Q48 26.5 57 29 L57.5 34 Q48 36.5 38.5 34 Z" fill="url(#tk-steel-dark)" stroke="#0d0a12" stroke-width="1"/>
  <path d="M39.5 31.4 Q48 29 56.8 31.4" fill="none" stroke="#aab3c2" stroke-width="0.6"/>

  <!-- sword arm: pauldron, rerebrace, couter, vambrace -->
  <path d="M26 34 Q28 27 37 28.5 Q41 31 40 37 Q35 41 28.5 40 Q25.5 38 26 34 Z" fill="url(#tk-steel)" stroke="#0d0a12" stroke-width="1.2" stroke-linejoin="round"/>
  <path d="M27.5 36.5 Q31 34.5 39 35.5 M28 38.7 Q32 37.5 38.6 38" fill="none" stroke="#2c303c" stroke-width="0.7"/>
  <path d="M28.2 32.5 Q30.5 29.2 35.5 29.5" fill="none" stroke="#f0f4fa" stroke-width="1" stroke-linecap="round"/>
  <circle cx="34" cy="32.4" r="0.7" fill="#2c303c"/>
  <path d="M29 40 L34.5 40.5 L33.6 47 L28.2 46.4 Z" fill="#7b8496" stroke="#0d0a12" stroke-width="1"/>
  <ellipse cx="30.8" cy="47.6" rx="3.6" ry="2.8" fill="#97a1b2" stroke="#0d0a12" stroke-width="0.9"/>
  <path d="M28.2 47.6 L33.5 47.8" stroke="#3a3f4c" stroke-width="0.5"/>

  <!-- greatsword, raised across the body -->
  <path d="M27.8 49.7 L12.2 17.4 Q11.3 14.6 12.6 13.4 Q14.2 14 15.2 16.6 L30.6 48.6 Z" fill="url(#tk-blade)" stroke="#0d0a12" stroke-width="1" stroke-linejoin="round"/>
  <path d="M27.6 47.3 L13.4 17.6" stroke="#2a2f3a" stroke-width="0.5"/>
  <path d="M26.6 46.6 L13 18.4" stroke="#ffffff" stroke-width="0.5" opacity="0.8"/>
  <!-- runes etched near the fuller, lit by soulfire -->
  <path d="M24.2 41.3 l-0.9 -1.8 l1.6 -0.3 M22.6 37.8 l-0.8 -1.7 M21.4 35.2 l0.9 -0.6 l-0.6 -1.3 M19.8 31.7 l-0.8 -1.6 l1.2 -0.2" fill="none" stroke="#5ef0c0" stroke-width="0.6" stroke-linecap="round"/>
  <!-- nicks in the edge -->
  <path d="M18.4 26.7 l0.9 -0.4 l0.2 0.9 M23 35.6 l0.8 -0.4 l0.2 0.8" fill="#0d0a12" stroke="#0d0a12" stroke-width="0.4"/>
  <!-- crossguard, grip, pommel -->
  <path d="M23.4 51.6 Q29 47 35.6 46.4 L36.2 48.4 Q30.4 49.6 24.6 53.6 Z" fill="#c09048" stroke="#0d0a12" stroke-width="0.9" stroke-linejoin="round"/>
  <path d="M24.4 51.8 Q29.6 48 35.4 47.2" fill="none" stroke="#f1d08a" stroke-width="0.5"/>
  <circle cx="23.6" cy="52.8" r="1.4" fill="#a87a36" stroke="#0d0a12" stroke-width="0.6"/>
  <circle cx="36.2" cy="47.2" r="1.4" fill="#a87a36" stroke="#0d0a12" stroke-width="0.6"/>
  <path d="M30.6 50.4 L34.4 58" stroke="#3a2418" stroke-width="2.6" stroke-linecap="round"/>
  <path d="M31 51.4 l1.6 -0.6 M31.8 53 l1.6 -0.6 M32.6 54.6 l1.6 -0.6 M33.4 56.2 l1.6 -0.6" stroke="#6a4a30" stroke-width="0.5"/>
  <circle cx="35" cy="59.2" r="1.9" fill="#c09048" stroke="#0d0a12" stroke-width="0.8"/>
  <circle cx="34.5" cy="58.7" r="0.6" fill="#f6dc9c"/>
  <!-- gauntlet wrapped around the grip -->
  <path d="M28.4 49.5 Q31.5 47.8 34.4 49.6 Q35.6 52.6 33.5 54.6 Q30.2 55.2 28.4 53 Z" fill="url(#tk-steel)" stroke="#0d0a12" stroke-width="1" stroke-linejoin="round"/>
  <path d="M29.3 51 Q31.6 49.6 33.8 50.8 M29.2 52.6 Q31.4 51.4 33.6 52.6" fill="none" stroke="#2a2e3b" stroke-width="0.5"/>
  <path d="M29.4 50.2 Q30.5 49.3 31.8 49.2" fill="none" stroke="#eef2f8" stroke-width="0.5"/>

  <!-- great helm -->
  <path d="M37.5 15.5 Q48 8.5 58.5 15.5 L59 29.5 Q48 33.5 37 29.5 Z" fill="url(#tk-steel)" stroke="#0d0a12" stroke-width="1.3" stroke-linejoin="round"/>
  <!-- ridge down the brow and dome highlight -->
  <path d="M48 9.8 L48 31.6" stroke="#2a2e3b" stroke-width="0.8"/>
  <path d="M47.1 10.4 L47.1 18.5" stroke="#f2f5fa" stroke-width="0.8"/>
  <path d="M39.6 16.4 Q42.5 12.6 46 11.6" fill="none" stroke="#f2f5fa" stroke-width="1.2" stroke-linecap="round" opacity="0.9"/>
  <path d="M56.8 17 L57.2 28.6" stroke="#2a2e3b" stroke-width="0.9"/>
  <!-- the visor's eye slit and breaths, full of soulfire -->
  <ellipse cx="48" cy="21.3" rx="12" ry="4.5" fill="url(#tk-glow)" opacity="0.75"/>
  <path d="M39.2 20 L56.8 20 L56.6 22.6 L39.4 22.6 Z" fill="#0b0912" stroke="#0d0a12" stroke-width="0.6"/>
  <path d="M40.5 21.3 L46.4 21.3 M49.6 21.3 L55.5 21.3" stroke="#8ff7d6" stroke-width="1.2" stroke-linecap="round"/>
  <circle cx="43.4" cy="21.3" r="1.1" fill="#e9fff7"/><circle cx="52.6" cy="21.3" r="1.1" fill="#e9fff7"/>
  <path d="M46.9 23.6 L46.9 29.6 M49.1 23.6 L49.1 29.6" stroke="#0b0912" stroke-width="1.1"/>
  <path d="M41 25 l0 2.6 M43 25.3 l0 2.6 M53 25.3 l0 2.6 M55 25 l0 2.6" stroke="#262a35" stroke-width="0.8" stroke-linecap="round"/>
  <!-- brow band rivets -->
  <path d="M38 17.8 Q48 15 58.2 17.8" fill="none" stroke="#3c4250" stroke-width="0.7"/>
  <g fill="#e1e7ef" stroke="#0d0a12" stroke-width="0.3">
    <circle cx="40.2" cy="17.4" r="0.6"/><circle cx="44" cy="16.5" r="0.6"/><circle cx="52" cy="16.5" r="0.6"/><circle cx="55.8" cy="17.4" r="0.6"/>
  </g>
  <!-- tattered crimson plume streaming off the crest -->
  <path d="M48 9.6 Q53 4 61.5 5.5 Q67 7 70.5 12 L66.5 11 L68.5 15.5 L63.5 12.6 L64 17 L59.8 13 Q55 10.2 51 11.5 Z" fill="#7e1f2e" stroke="#0d0a12" stroke-width="1" stroke-linejoin="round"/>
  <path d="M50.5 9.2 Q55.5 5.8 62 7 M53 10.6 Q58.4 8.6 64.6 10.6" fill="none" stroke="#c4425a" stroke-width="0.7"/>
  <path d="M56 11.6 Q60.5 11 63 13.2" fill="none" stroke="#3f0d18" stroke-width="0.6"/>
  <rect x="45.8" y="8.2" width="4.4" height="2.8" rx="0.8" fill="#b9873c" stroke="#0d0a12" stroke-width="0.7"/>

  <!-- soulfire embers rising from the visor -->
  <circle cx="58.5" cy="18" r="0.8" fill="#8ff7d6" opacity="0.9"/>
  <circle cx="61" cy="15.5" r="0.55" fill="#8ff7d6" opacity="0.7"/>
  <circle cx="37" cy="17.8" r="0.6" fill="#8ff7d6" opacity="0.6"/>
</svg>
